$MeshFormat
4.1 0 8
$EndMeshFormat
$Entities
8 12 6 1
1 0 0 1 0 
2 0 0 0 0 
3 0 1 1 0 
4 0 1 0 0 
5 1 0 1 0 
6 1 0 0 0 
7 1 1 1 0 
8 1 1 0 0 
1 -1e-07 -1e-07 -9.999999994736442e-08 1e-07 1e-07 1.0000001 0 2 2 -1 
2 -1e-07 -9.999999994736442e-08 0.9999999000000001 1e-07 1.0000001 1.0000001 0 2 1 -3 
3 -1e-07 0.9999999000000001 -9.999999994736442e-08 1e-07 1.0000001 1.0000001 0 2 4 -3 
4 -1e-07 -9.999999994736442e-08 -1e-07 1e-07 1.0000001 1e-07 0 2 2 -4 
5 0.9999999000000001 -1e-07 -9.999999994736442e-08 1.0000001 1e-07 1.0000001 0 2 6 -5 
6 0.9999999000000001 -9.999999994736442e-08 0.9999999000000001 1.0000001 1.0000001 1.0000001 0 2 5 -7 
7 0.9999999000000001 0.9999999000000001 -9.999999994736442e-08 1.0000001 1.0000001 1.0000001 0 2 8 -7 
8 0.9999999000000001 -9.999999994736442e-08 -1e-07 1.0000001 1.0000001 1e-07 0 2 6 -8 
9 -9.999999994736442e-08 -1e-07 -1e-07 1.0000001 1e-07 1e-07 0 2 2 -6 
10 -9.999999994736442e-08 -1e-07 0.9999999000000001 1.0000001 1e-07 1.0000001 0 2 1 -5 
11 -9.999999994736442e-08 0.9999999000000001 -1e-07 1.0000001 1.0000001 1e-07 0 2 4 -8 
12 -9.999999994736442e-08 0.9999999000000001 0.9999999000000001 1.0000001 1.0000001 1.0000001 0 2 3 -7 
1 -1e-07 -9.999999994736442e-08 -9.999999994736442e-08 1e-07 1.0000001 1.0000001 0 4 -1 4 3 -2 
2 0.9999999000000001 -9.999999994736442e-08 -9.999999994736442e-08 1.0000001 1.0000001 1.0000001 0 4 -5 8 7 -6 
3 -9.999999994736442e-08 -1e-07 -9.999999994736442e-08 1.0000001 1e-07 1.0000001 0 4 -9 1 10 -5 
4 -9.999999994736442e-08 0.9999999000000001 -9.999999994736442e-08 1.0000001 1.0000001 1.0000001 0 4 -11 3 12 -7 
5 -9.999999994736442e-08 -9.999999994736442e-08 -1e-07 1.0000001 1.0000001 1e-07 0 4 -4 9 8 -11 
6 -9.999999994736442e-08 -9.999999994736442e-08 0.9999999000000001 1.0000001 1.0000001 1.0000001 0 4 -2 10 6 -12 
1 -9.999999994736442e-08 -9.999999994736442e-08 -9.999999994736442e-08 1.0000001 1.0000001 1.0000001 0 6 -1 2 -3 4 -5 6 
$EndEntities
$Nodes
27 336 1 336
0 1 0 1
1
0 0 1
0 2 0 1
2
0 0 0
0 3 0 1
3
0 1 1
0 4 0 1
4
0 1 0
0 5 0 1
5
1 0 1
0 6 0 1
6
1 0 0
0 7 0 1
7
1 1 1
0 8 0 1
8
1 1 0
1 1 0 5
9
10
11
12
13
0 0 0.1666666666666662
0 0 0.3333333333333324
0 0 0.4999999999999986
0 0 0.6666666666666646
0 0 0.8333333333333321
1 2 0 5
14
15
16
17
18
0 0.1666666666666662 1
0 0.3333333333333324 1
0 0.4999999999999986 1
0 0.6666666666666646 1
0 0.8333333333333321 1
1 3 0 5
19
20
21
22
23
0 1 0.1666666666666662
0 1 0.3333333333333324
0 1 0.4999999999999986
0 1 0.6666666666666646
0 1 0.8333333333333321
1 4 0 5
24
25
26
27
28
0 0.1666666666666662 0
0 0.3333333333333324 0
0 0.4999999999999986 0
0 0.6666666666666646 0
0 0.8333333333333321 0
1 5 0 5
29
30
31
32
33
1 0 0.1666666666666662
1 0 0.3333333333333324
1 0 0.4999999999999986
1 0 0.6666666666666646
1 0 0.8333333333333321
1 6 0 5
34
35
36
37
38
1 0.1666666666666662 1
1 0.3333333333333324 1
1 0.4999999999999986 1
1 0.6666666666666646 1
1 0.8333333333333321 1
1 7 0 5
39
40
41
42
43
1 1 0.1666666666666662
1 1 0.3333333333333324
1 1 0.4999999999999986
1 1 0.6666666666666646
1 1 0.8333333333333321
1 8 0 5
44
45
46
47
48
1 0.1666666666666662 0
1 0.3333333333333324 0
1 0.4999999999999986 0
1 0.6666666666666646 0
1 0.8333333333333321 0
1 9 0 5
49
50
51
52
53
0.1666666666666662 0 0
0.3333333333333324 0 0
0.4999999999999986 0 0
0.6666666666666646 0 0
0.8333333333333321 0 0
1 10 0 5
54
55
56
57
58
0.1666666666666662 0 1
0.3333333333333324 0 1
0.4999999999999986 0 1
0.6666666666666646 0 1
0.8333333333333321 0 1
1 11 0 5
59
60
61
62
63
0.1666666666666662 1 0
0.3333333333333324 1 0
0.4999999999999986 1 0
0.6666666666666646 1 0
0.8333333333333321 1 0
1 12 0 5
64
65
66
67
68
0.1666666666666662 1 1
0.3333333333333324 1 1
0.4999999999999986 1 1
0.6666666666666646 1 1
0.8333333333333321 1 1
2 1 0 34
69
70
71
72
73
74
75
76
77
78
79
80
81
82
83
84
85
86
87
88
89
90
91
92
93
94
95
96
97
98
99
100
101
102
0 0.5833333333333316 0.8556624327025941
0 0.5815109568340524 0.1508426476087527
0 0.1493826874925711 0.5977876091177627
0 0.8506173125074283 0.597787609117763
0 0.1356302602983094 0.2458798294733581
0 0.8611620212026556 0.2477062749977592
0 0.2507062282134787 0.8588713258240283
0 0.7492937717865187 0.8588713258240285
0 0.6925646466622742 0.697528712446488
0 0.5043163299992668 0.7090255065787379
0 0.5833333333333319 0.5669872981077819
0 0.4222204468242287 0.5638129342155496
0 0.5009256300262592 0.4250635842210114
0 0.666666666666665 0.4226497308103759
0 0.3400905403382409 0.421369939200061
0 0.4404659175556338 0.2835712984850789
0 0.3088453690744141 0.6967467520581047
0 0.1687852027634297 0.4203907139583832
0 0.4134224323256369 0.8533843361939107
0 0.8318012084636079 0.4209213154057614
0 0.8613549960618433 0.7514957068082695
0 0.1388128629544283 0.7514026162858429
0 0.7528831044824418 0.1369493419813703
0 0.2418072307765988 0.1313072671406492
0 0.4059952396911893 0.135163461222794
0 0.5825475961794456 0.3153718094250967
0 0.2832075760009829 0.2833193598962178
0 0.7127619256381447 0.2824068533715194
0 0.7209936490538894 0.5502404735808372
0 0.2778648492985769 0.5400215897099723
0 0.8779915320718527 0.8779915320718527
0 0.1220084679281455 0.8779915320718541
0 0.8779915320718541 0.1220084679281456
0 0.1211598774258424 0.1211598774258424
2 2 0 34
103
104
105
106
107
108
109
110
111
112
113
114
115
116
117
118
119
120
121
122
123
124
125
126
127
128
129
130
131
132
133
134
135
136
1 0.5833333333333316 0.8556624327025941
1 0.5815109568340524 0.1508426476087527
1 0.1493826874925711 0.5977876091177627
1 0.8506173125074283 0.597787609117763
1 0.1356302602983094 0.2458798294733581
1 0.8611620212026556 0.2477062749977592
1 0.2507062282134787 0.8588713258240283
1 0.7492937717865187 0.8588713258240285
1 0.6925646466622742 0.697528712446488
1 0.5043163299992668 0.7090255065787379
1 0.5833333333333319 0.5669872981077819
1 0.4222204468242287 0.5638129342155495
1 0.5009256300262592 0.4250635842210114
1 0.666666666666665 0.4226497308103759
1 0.340090540338241 0.421369939200061
1 0.4404659175556339 0.2835712984850788
1 0.3088453690744141 0.6967467520581047
1 0.1687852027634298 0.4203907139583832
1 0.4134224323256369 0.8533843361939107
1 0.8318012084636079 0.4209213154057614
1 0.8613549960618433 0.7514957068082695
1 0.1388128629544283 0.7514026162858429
1 0.7528831044824418 0.1369493419813703
1 0.2418072307765989 0.1313072671406492
1 0.4059952396911893 0.135163461222794
1 0.5825475961794457 0.3153718094250967
1 0.283207576000983 0.2833193598962177
1 0.7127619256381447 0.2824068533715194
1 0.7209936490538894 0.5502404735808372
1 0.2778648492985769 0.5400215897099722
1 0.8779915320718527 0.8779915320718527
1 0.1220084679281455 0.8779915320718541
1 0.8779915320718541 0.1220084679281456
1 0.1211598774258424 0.1211598774258424
2 3 0 34
137
138
139
140
141
142
143
144
145
146
147
148
149
150
151
152
153
154
155
156
157
158
159
160
161
162
163
164
165
166
167
168
169
170
0.8506173125074279 0 0.5977876091177629
0.1493826874925709 0 0.5977876091177626
0.5815109568340524 0 0.1508426476087527
0.5833333333333316 0 0.8556624327025939
0.1356302602983094 0 0.2458798294733581
0.2507062282134787 0 0.8588713258240283
0.8611620212026556 0 0.2477062749977593
0.7492937717865189 0 0.858871325824028
0.6925646466622739 0 0.697528712446488
0.5043163299992666 0 0.7090255065787379
0.5833333333333311 0 0.5669872981077819
0.4222204468242281 0 0.5638129342155495
0.5009256300262586 0 0.4250635842210114
0.6666666666666643 0 0.4226497308103761
0.3400905403382406 0 0.421369939200061
0.4404659175556335 0 0.2835712984850788
0.8318012084636077 0 0.4209213154057616
0.4175037597021233 0 0.8558140217517579
0.1687852027634296 0 0.4203907139583831
0.308964953793765 0 0.6967684076365563
0.8613549960618434 0 0.7514957068082695
0.1388270992305415 0 0.7514051943308966
0.7528831044824418 0 0.1369493419813703
0.2418072307765988 0 0.1313072671406492
0.5825475961794454 0 0.3153718094250967
0.4059952396911893 0 0.135163461222794
0.2832075760009828 0 0.2833193598962177
0.7127619256381444 0 0.2824068533715194
0.7209936490538891 0 0.5502404735808378
0.2778887662424469 0 0.5400259208256625
0.8779915320718531 0 0.8779915320718531
0.8779915320718541 0 0.1220084679281456
0.1220084679281456 0 0.8779915320718541
0.1211598774258424 0 0.1211598774258424
2 4 0 34
171
172
173
174
175
176
177
178
179
180
181
182
183
184
185
186
187
188
189
190
191
192
193
194
195
196
197
198
199
200
201
202
203
204
0.8506173125074279 1 0.5977876091177629
0.1493826874925709 1 0.5977876091177626
0.5815109568340524 1 0.1508426476087527
0.5833333333333316 1 0.8556624327025939
0.1356302602983094 1 0.2458798294733581
0.2507062282134787 1 0.8588713258240283
0.8611620212026556 1 0.2477062749977593
0.7492937717865189 1 0.858871325824028
0.6925646466622739 1 0.697528712446488
0.5043163299992666 1 0.7090255065787379
0.5833333333333311 1 0.5669872981077819
0.4222204468242281 1 0.5638129342155495
0.5009256300262586 1 0.4250635842210114
0.6666666666666643 1 0.4226497308103761
0.3400905403382406 1 0.421369939200061
0.4404659175556335 1 0.2835712984850788
0.8318012084636077 1 0.4209213154057616
0.4175037597021233 1 0.8558140217517579
0.1687852027634296 1 0.4203907139583831
0.308964953793765 1 0.6967684076365563
0.8613549960618434 1 0.7514957068082695
0.1388270992305415 1 0.7514051943308966
0.7528831044824418 1 0.1369493419813703
0.2418072307765988 1 0.1313072671406492
0.5825475961794454 1 0.3153718094250967
0.4059952396911893 1 0.135163461222794
0.2832075760009828 1 0.2833193598962177
0.7127619256381444 1 0.2824068533715194
0.7209936490538891 1 0.5502404735808378
0.2778887662424469 1 0.5400259208256625
0.8779915320718531 1 0.8779915320718531
0.8779915320718541 1 0.1220084679281456
0.1220084679281456 1 0.8779915320718541
0.1211598774258424 1 0.1211598774258424
2 5 0 34
205
206
207
208
209
210
211
212
213
214
215
216
217
218
219
220
221
222
223
224
225
226
227
228
229
230
231
232
233
234
235
236
237
238
0.5977876091177629 0.8506173125074281 0
0.5977876091177626 0.1493826874925709 0
0.1508426476087526 0.5815109568340523 0
0.8556624327025939 0.5833333333333316 0
0.1513080901435648 0.2623742252847558 0
0.8588713258240283 0.2507062282134787 0
0.2477062749977592 0.8611620212026556 0
0.858871325824028 0.7492937717865189 0
0.6975287124464881 0.692564646662274 0
0.7090255065787381 0.5043163299992666 0
0.5669872981077819 0.583333333333331 0
0.5638129342155496 0.422220446824228 0
0.4250635842210114 0.5009256300262583 0
0.421266030862663 0.3399105658185371 0
0.422649730810376 0.6666666666666641 0
0.2722221709498887 0.4199000080986984 0
0.8558140217517579 0.4175037597021233 0
0.4209213154057616 0.8318012084636078 0
0.4220429753551876 0.1691750301123359 0
0.6967684076365566 0.3089649537937649 0
0.7514957068082694 0.8613549960618434 0
0.1369493419813702 0.7528831044824418 0
0.7514051943308966 0.1388270992305415 0
0.2555622040077321 0.139278356241809 0
0.3131019839180586 0.5784344142880582 0
0.1148745817404412 0.4194237047101675 0
0.3044802942638072 0.2661276371112272 0
0.2820285491203464 0.7120763953229133 0
0.5502404735808379 0.7209936490538889 0
0.5403355914375439 0.2779307368082873 0
0.8779915320718531 0.8779915320718531 0
0.1220084679281459 0.1220084679281459 0
0.1220084679281455 0.8779915320718541 0
0.8779915320718541 0.1220084679281456 0
2 6 0 34
239
240
241
242
243
244
245
246
247
248
249
250
251
252
253
254
255
256
257
258
259
260
261
262
263
264
265
266
267
268
269
270
271
272
0.5977876091177629 0.8506173125074281 1
0.5977876091177626 0.1493826874925709 1
0.1508426476087526 0.5815109568340523 1
0.8556624327025939 0.5833333333333316 1
0.1513080901435648 0.2623742252847558 1
0.8588713258240283 0.2507062282134787 1
0.2477062749977592 0.8611620212026556 1
0.858871325824028 0.7492937717865189 1
0.6975287124464881 0.692564646662274 1
0.7090255065787381 0.5043163299992666 1
0.5669872981077819 0.583333333333331 1
0.5638129342155496 0.422220446824228 1
0.4250635842210114 0.5009256300262583 1
0.421266030862663 0.3399105658185371 1
0.422649730810376 0.6666666666666641 1
0.2722221709498887 0.4199000080986984 1
0.8558140217517579 0.4175037597021233 1
0.4209213154057616 0.8318012084636078 1
0.4220429753551876 0.1691750301123359 1
0.6967684076365566 0.3089649537937649 1
0.7514957068082694 0.8613549960618434 1
0.1369493419813702 0.7528831044824418 1
0.7514051943308966 0.1388270992305415 1
0.2555622040077321 0.139278356241809 1
0.3131019839180586 0.5784344142880582 1
0.1148745817404412 0.4194237047101675 1
0.3044802942638072 0.2661276371112272 1
0.2820285491203464 0.7120763953229133 1
0.5502404735808379 0.7209936490538889 1
0.5403355914375439 0.2779307368082873 1
0.8779915320718531 0.8779915320718531 1
0.1220084679281459 0.1220084679281459 1
0.1220084679281455 0.8779915320718541 1
0.8779915320718541 0.1220084679281456 1
3 1 0 64
273
274
275
276
277
278
279
280
281
282
283
284
285
286
287
288
289
290
291
292
293
294
295
296
297
298
299
300
301
302
303
304
305
306
307
308
309
310
311
312
313
314
315
316
317
318
319
320
321
322
323
324
325
326
327
328
329
330
331
332
333
334
335
336
0.5 0.5 0.5000000000000001
0.3055013694242268 0.6471006481508601 0.3046954969686695
0.6959478876127025 0.6959478876127027 0.3545771591559443
0.3118903211744494 0.3306193602138225 0.3098609615546684
0.2980617243712348 0.2980646476922269 0.6161072988976261
0.2989017907906386 0.7033172242108245 0.6035067702334526
0.6963571812718174 0.3040494911491777 0.3554760083731576
0.6174475226600586 0.2990151334454423 0.7022019645554803
0.687418427459435 0.6874184274594352 0.6683299115820028
0.5183370217440709 0.5037041615765036 0.2416423127944836
0.4688156239494808 0.5689259917775703 0.7508150325265289
0.7593987337182191 0.4957428357715176 0.5138209818055977
0.5199328847240774 0.7700120577038031 0.5089138480856866
0.4834579772797799 0.2428065179150756 0.4634391162471295
0.2376645651565199 0.49022297298609 0.4786412362633324
0.5104859522495773 0.2321131929546017 0.2294049178832987
0.5007614156953569 0.7709615238300689 0.231973205699298
0.2314488031942682 0.5523622102473253 0.7765444804876196
0.7771033863015694 0.2230334275757939 0.5550551694673381
0.7565009529205494 0.4997830191732435 0.2335145086685018
0.7667134241012769 0.4784170355178979 0.7516344200421425
0.2098744475838511 0.7901255524161483 0.7904239021058562
0.7943348455745938 0.2056651544254057 0.7943348455745939
0.5205227283780788 0.7870179697567306 0.7851224146793678
0.2057358602948195 0.2057358602948195 0.7937186235728491
0.7987901320812905 0.7987901320812907 0.5172770041000458
0.8015008882188747 0.2011345202260791 0.2000995259663937
0.4212225456499397 0.2561610921365092 0.7951457202216916
0.2010722036446074 0.8016261170364825 0.2000417757887202
0.8009072663981703 0.7995267802169387 0.1996558844895669
0.8029652489786294 0.8029652489786293 0.8029652489786291
0.1954665770892077 0.1954665770892077 0.1948469155781524
0.1992161645535769 0.4848728066649457 0.1983987667686518
0.2543976796168729 0.8088043210606066 0.4279114901176353
0.1834954097637165 0.2542599858022948 0.4519996001707234
0.4896690607451913 0.6408959915768492 0.3714306961114261
0.4574133110145653 0.3988704703380213 0.6593131500138025
0.3730830386533496 0.4215992805065883 0.1598153293044176
0.6365179240138249 0.6435371167985238 0.1775040397070847
0.6318813827069684 0.3674601049906492 0.1701145849118582
0.6265966676016893 0.3603910881693214 0.5227964764125672
0.3813959857458669 0.4912142494331425 0.3615999412537528
0.6368811867136094 0.5241235342368674 0.3802049188942685
0.6119740903732941 0.5036941958301806 0.6497236220219803
0.3666040497287842 0.4330541246705054 0.8335022762014771
0.6395605130472097 0.5960898940313887 0.8263233086178585
0.3649999068801797 0.6991892015892776 0.8285246932322679
0.1697423762629812 0.4329110850170202 0.6446758851535942
0.1556426879100427 0.645868293709195 0.5068668294496117
0.4355162380621937 0.1735465293879949 0.6291931124800411
0.8393301372359906 0.5967536960816571 0.3908512854869668
0.3885504743737989 0.5968812681851532 0.157904737117256
0.8409706905935993 0.4150583992174738 0.371617426266858
0.5654893619294713 0.4298138755440957 0.8179451375757846
0.189710666439033 0.3837177678319348 0.8361194302194903
0.374355013953261 0.1610895851995089 0.3408718200212539
0.5300771474106833 0.3847291230679992 0.3706259222727561
0.4232395533681771 0.8448927909005761 0.3767287241706265
0.4167803708581302 0.8363208391336558 0.6436799910023736
0.6287194827778555 0.1528317061241362 0.4969659588421214
0.3581668969784886 0.5352815472848795 0.6019284838878737
0.6095174916817577 0.8428000554066641 0.3808429015818262
0.8479672601795445 0.6581043886007473 0.6074485656018977
0.6581043886007464 0.8479672601795442 0.607448565601897
$EndNodes
$Elements
27 1721 1 1721
0 1 15 1
1 1 
0 2 15 1
2 2 
0 3 15 1
3 3 
0 4 15 1
4 4 
0 5 15 1
5 5 
0 6 15 1
6 6 
0 7 15 1
7 7 
0 8 15 1
8 8 
1 1 1 6
9 2 9 
10 9 10 
11 10 11 
12 11 12 
13 12 13 
14 13 1 
1 2 1 6
15 1 14 
16 14 15 
17 15 16 
18 16 17 
19 17 18 
20 18 3 
1 3 1 6
21 4 19 
22 19 20 
23 20 21 
24 21 22 
25 22 23 
26 23 3 
1 4 1 6
27 2 24 
28 24 25 
29 25 26 
30 26 27 
31 27 28 
32 28 4 
1 5 1 6
33 6 29 
34 29 30 
35 30 31 
36 31 32 
37 32 33 
38 33 5 
1 6 1 6
39 5 34 
40 34 35 
41 35 36 
42 36 37 
43 37 38 
44 38 7 
1 7 1 6
45 8 39 
46 39 40 
47 40 41 
48 41 42 
49 42 43 
50 43 7 
1 8 1 6
51 6 44 
52 44 45 
53 45 46 
54 46 47 
55 47 48 
56 48 8 
1 9 1 6
57 2 49 
58 49 50 
59 50 51 
60 51 52 
61 52 53 
62 53 6 
1 10 1 6
63 1 54 
64 54 55 
65 55 56 
66 56 57 
67 57 58 
68 58 5 
1 11 1 6
69 4 59 
70 59 60 
71 60 61 
72 61 62 
73 62 63 
74 63 8 
1 12 1 6
75 3 64 
76 64 65 
77 65 66 
78 66 67 
79 67 68 
80 68 7 
2 1 2 90
81 13 1 100 
82 1 14 100 
83 2 9 102 
84 24 2 102 
85 18 3 99 
86 3 23 99 
87 19 4 101 
88 4 28 101 
89 9 10 73 
90 9 73 102 
91 10 11 86 
92 73 10 86 
93 11 12 71 
94 11 71 86 
95 12 13 90 
96 71 12 90 
97 90 13 100 
98 14 15 75 
99 14 75 100 
100 15 16 87 
101 75 15 87 
102 16 17 69 
103 16 69 87 
104 17 18 76 
105 69 17 76 
106 76 18 99 
107 20 19 74 
108 74 19 101 
109 21 20 88 
110 20 74 88 
111 22 21 72 
112 72 21 88 
113 23 22 89 
114 22 72 89 
115 23 89 99 
116 25 24 92 
117 92 24 102 
118 26 25 93 
119 25 92 93 
120 27 26 70 
121 70 26 93 
122 28 27 91 
123 27 70 91 
124 28 91 101 
125 69 76 77 
126 69 77 78 
127 69 78 87 
128 84 70 93 
129 70 84 94 
130 91 70 96 
131 70 94 96 
132 85 71 90 
133 71 85 98 
134 86 71 98 
135 72 77 89 
136 77 72 97 
137 72 88 97 
138 73 86 95 
139 92 73 95 
140 73 92 102 
141 88 74 96 
142 74 91 96 
143 91 74 101 
144 85 75 87 
145 75 85 90 
146 75 90 100 
147 77 76 89 
148 89 76 99 
149 78 77 79 
150 79 77 97 
151 78 79 80 
152 78 80 85 
153 78 85 87 
154 80 79 81 
155 81 79 82 
156 82 79 97 
157 80 81 83 
158 80 83 98 
159 85 80 98 
160 81 82 94 
161 83 81 84 
162 84 81 94 
163 82 88 96 
164 88 82 97 
165 94 82 96 
166 83 84 95 
167 86 83 95 
168 83 86 98 
169 84 93 95 
170 93 92 95 
2 2 2 90
171 33 134 5 
172 5 134 34 
173 6 136 29 
174 44 136 6 
175 38 133 7 
176 7 133 43 
177 39 135 8 
178 8 135 48 
179 29 107 30 
180 29 136 107 
181 30 120 31 
182 107 120 30 
183 31 105 32 
184 31 120 105 
185 32 124 33 
186 105 124 32 
187 124 134 33 
188 34 109 35 
189 34 134 109 
190 35 121 36 
191 109 121 35 
192 36 103 37 
193 36 121 103 
194 37 110 38 
195 103 110 37 
196 110 133 38 
197 40 108 39 
198 108 135 39 
199 41 122 40 
200 40 122 108 
201 42 106 41 
202 106 122 41 
203 43 123 42 
204 42 123 106 
205 43 133 123 
206 45 126 44 
207 126 136 44 
208 46 127 45 
209 45 127 126 
210 47 104 46 
211 104 127 46 
212 48 125 47 
213 47 125 104 
214 48 135 125 
215 103 111 110 
216 103 112 111 
217 103 121 112 
218 118 127 104 
219 104 128 118 
220 125 130 104 
221 104 130 128 
222 119 124 105 
223 105 132 119 
224 120 132 105 
225 106 123 111 
226 111 131 106 
227 106 131 122 
228 107 129 120 
229 126 129 107 
230 107 136 126 
231 122 130 108 
232 108 130 125 
233 125 135 108 
234 119 121 109 
235 109 124 119 
236 109 134 124 
237 111 123 110 
238 123 133 110 
239 112 113 111 
240 113 131 111 
241 112 114 113 
242 112 119 114 
243 112 121 119 
244 114 115 113 
245 115 116 113 
246 116 131 113 
247 114 117 115 
248 114 132 117 
249 119 132 114 
250 115 128 116 
251 117 118 115 
252 118 128 115 
253 116 130 122 
254 122 131 116 
255 128 130 116 
256 117 129 118 
257 120 129 117 
258 117 132 120 
259 118 129 127 
260 127 129 126 
2 3 2 90
261 1 13 169 
262 54 1 169 
263 9 2 170 
264 2 49 170 
265 33 5 167 
266 5 58 167 
267 6 29 168 
268 53 6 168 
269 10 9 141 
270 141 9 170 
271 11 10 155 
272 10 141 155 
273 12 11 138 
274 138 11 155 
275 13 12 158 
276 12 138 158 
277 13 158 169 
278 29 30 143 
279 29 143 168 
280 30 31 153 
281 143 30 153 
282 31 32 137 
283 31 137 153 
284 32 33 157 
285 137 32 157 
286 157 33 167 
287 49 50 160 
288 49 160 170 
289 50 51 162 
290 160 50 162 
291 51 52 139 
292 51 139 162 
293 52 53 159 
294 139 52 159 
295 159 53 168 
296 55 54 142 
297 142 54 169 
298 56 55 154 
299 55 142 154 
300 57 56 140 
301 140 56 154 
302 58 57 144 
303 57 140 144 
304 58 144 167 
305 145 137 157 
306 137 145 165 
307 153 137 165 
308 138 155 166 
309 138 156 158 
310 156 138 166 
311 152 139 161 
312 139 152 162 
313 139 159 164 
314 161 139 164 
315 144 140 145 
316 145 140 146 
317 146 140 154 
318 155 141 163 
319 141 160 163 
320 160 141 170 
321 154 142 156 
322 156 142 158 
323 158 142 169 
324 143 153 164 
325 159 143 164 
326 143 159 168 
327 144 145 157 
328 144 157 167 
329 145 146 147 
330 145 147 165 
331 147 146 148 
332 148 146 156 
333 146 154 156 
334 147 148 149 
335 147 149 150 
336 147 150 165 
337 149 148 151 
338 151 148 166 
339 148 156 166 
340 150 149 161 
341 149 151 152 
342 149 152 161 
343 153 150 164 
344 150 153 165 
345 150 161 164 
346 152 151 163 
347 151 155 163 
348 155 151 166 
349 162 152 163 
350 160 162 163 
2 4 2 90
351 3 203 23 
352 64 203 3 
353 19 204 4 
354 4 204 59 
355 43 201 7 
356 7 201 68 
357 8 202 39 
358 63 202 8 
359 20 175 19 
360 175 204 19 
361 21 189 20 
362 20 189 175 
363 22 172 21 
364 172 189 21 
365 23 192 22 
366 22 192 172 
367 23 203 192 
368 39 177 40 
369 39 202 177 
370 40 187 41 
371 177 187 40 
372 41 171 42 
373 41 187 171 
374 42 191 43 
375 171 191 42 
376 191 201 43 
377 59 194 60 
378 59 204 194 
379 60 196 61 
380 194 196 60 
381 61 173 62 
382 61 196 173 
383 62 193 63 
384 173 193 62 
385 193 202 63 
386 65 176 64 
387 176 203 64 
388 66 188 65 
389 65 188 176 
390 67 174 66 
391 174 188 66 
392 68 178 67 
393 67 178 174 
394 68 201 178 
395 179 191 171 
396 171 199 179 
397 187 199 171 
398 172 200 189 
399 172 192 190 
400 190 200 172 
401 186 195 173 
402 173 196 186 
403 173 198 193 
404 195 198 173 
405 178 179 174 
406 179 180 174 
407 180 188 174 
408 189 197 175 
409 175 197 194 
410 194 204 175 
411 188 190 176 
412 190 192 176 
413 192 203 176 
414 177 198 187 
415 193 198 177 
416 177 202 193 
417 178 191 179 
418 178 201 191 
419 179 181 180 
420 179 199 181 
421 181 182 180 
422 182 190 180 
423 180 190 188 
424 181 183 182 
425 181 184 183 
426 181 199 184 
427 183 185 182 
428 185 200 182 
429 182 200 190 
430 184 195 183 
431 183 186 185 
432 183 195 186 
433 187 198 184 
434 184 199 187 
435 184 198 195 
436 186 197 185 
437 185 197 189 
438 189 200 185 
439 196 197 186 
440 194 197 196 
2 5 2 90
441 2 24 236 
442 49 2 236 
443 28 4 237 
444 4 59 237 
445 44 6 238 
446 6 53 238 
447 8 48 235 
448 63 8 235 
449 24 25 209 
450 24 209 236 
451 25 26 230 
452 209 25 230 
453 26 27 207 
454 26 207 230 
455 27 28 226 
456 207 27 226 
457 226 28 237 
458 45 44 210 
459 210 44 238 
460 46 45 221 
461 45 210 221 
462 47 46 208 
463 208 46 221 
464 48 47 212 
465 47 208 212 
466 48 212 235 
467 50 49 228 
468 228 49 236 
469 51 50 223 
470 223 50 228 
471 52 51 206 
472 206 51 223 
473 53 52 227 
474 52 206 227 
475 53 227 238 
476 59 60 211 
477 59 211 237 
478 60 61 222 
479 211 60 222 
480 61 62 205 
481 61 205 222 
482 62 63 225 
483 205 62 225 
484 225 63 235 
485 213 205 225 
486 205 213 233 
487 222 205 233 
488 206 223 234 
489 206 224 227 
490 224 206 234 
491 220 207 229 
492 207 220 230 
493 207 226 232 
494 229 207 232 
495 212 208 213 
496 213 208 214 
497 214 208 221 
498 220 209 230 
499 209 220 231 
500 228 209 231 
501 209 228 236 
502 221 210 224 
503 224 210 227 
504 227 210 238 
505 211 222 232 
506 226 211 232 
507 211 226 237 
508 212 213 225 
509 212 225 235 
510 213 214 215 
511 213 215 233 
512 215 214 216 
513 216 214 224 
514 214 221 224 
515 215 216 217 
516 215 217 219 
517 215 219 233 
518 217 216 218 
519 218 216 234 
520 216 224 234 
521 217 218 220 
522 219 217 229 
523 217 220 229 
524 220 218 231 
525 218 223 231 
526 223 218 234 
527 222 219 232 
528 219 222 233 
529 219 229 232 
530 223 228 231 
2 6 2 90
531 1 270 14 
532 54 270 1 
533 18 271 3 
534 3 271 64 
535 34 272 5 
536 5 272 58 
537 7 269 38 
538 68 269 7 
539 14 243 15 
540 14 270 243 
541 15 264 16 
542 243 264 15 
543 16 241 17 
544 16 264 241 
545 17 260 18 
546 241 260 17 
547 260 271 18 
548 35 244 34 
549 244 272 34 
550 36 255 35 
551 35 255 244 
552 37 242 36 
553 242 255 36 
554 38 246 37 
555 37 246 242 
556 38 269 246 
557 55 262 54 
558 262 270 54 
559 56 257 55 
560 257 262 55 
561 57 240 56 
562 240 257 56 
563 58 261 57 
564 57 261 240 
565 58 272 261 
566 64 245 65 
567 64 271 245 
568 65 256 66 
569 245 256 65 
570 66 239 67 
571 66 256 239 
572 67 259 68 
573 239 259 67 
574 259 269 68 
575 247 259 239 
576 239 267 247 
577 256 267 239 
578 240 268 257 
579 240 261 258 
580 258 268 240 
581 254 263 241 
582 241 264 254 
583 241 266 260 
584 263 266 241 
585 246 247 242 
586 247 248 242 
587 248 255 242 
588 254 264 243 
589 243 265 254 
590 262 265 243 
591 243 270 262 
592 255 258 244 
593 258 261 244 
594 261 272 244 
595 245 266 256 
596 260 266 245 
597 245 271 260 
598 246 259 247 
599 246 269 259 
600 247 249 248 
601 247 267 249 
602 249 250 248 
603 250 258 248 
604 248 258 255 
605 249 251 250 
606 249 253 251 
607 249 267 253 
608 251 252 250 
609 252 268 250 
610 250 268 258 
611 251 254 252 
612 253 263 251 
613 251 263 254 
614 254 265 252 
615 252 265 257 
616 257 268 252 
617 256 266 253 
618 253 267 256 
619 253 266 263 
620 257 265 262 
3 1 4 1101
621 114 284 291 293 
622 231 304 288 310 
623 153 120 279 291 
624 153 279 120 299 
625 275 302 298 323 
626 275 281 285 315 
627 114 291 119 293 
628 273 286 277 314 
629 166 307 322 328 
630 288 304 276 310 
631 223 288 231 304 
632 242 303 293 318 
633 103 293 303 335 
634 72 278 172 294 
635 94 287 274 321 
636 122 298 302 323 
637 84 276 287 307 
638 277 286 276 314 
639 140 280 240 295 
640 161 279 164 288 
641 84 287 83 307 
642 240 280 140 300 
643 161 279 288 332 
644 96 82 94 321 
645 242 103 293 303 
646 275 284 281 315 
647 166 307 277 322 
648 277 276 287 314 
649 172 278 72 306 
650 138 277 71 297 
651 298 302 275 334 
652 187 302 298 334 
653 268 280 240 300 
654 288 304 162 328 
655 130 302 292 323 
656 280 147 322 332 
657 153 291 279 332 
658 281 315 284 316 
659 84 287 276 305 
660 289 301 232 324 
661 94 274 287 305 
662 164 288 279 299 
663 122 302 130 323 
664 119 293 291 295 
665 71 277 138 307 
666 72 306 278 321 
667 279 291 120 325 
668 218 231 288 310 
669 96 94 274 321 
670 138 277 166 307 
671 164 279 153 299 
672 223 162 288 304 
673 166 322 151 328 
674 103 303 111 335 
675 274 314 308 333 
676 274 308 278 333 
677 96 274 94 305 
678 164 279 161 332 
679 200 278 172 306 
680 147 280 145 332 
681 173 289 302 334 
682 114 132 291 325 
683 190 172 200 278 
684 98 277 71 307 
685 283 285 281 316 
686 187 122 298 302 
687 96 301 274 305 
688 197 301 289 330 
689 94 287 81 305 
690 277 322 307 328 
691 120 279 129 299 
692 166 138 156 277 
693 98 85 71 277 
694 96 274 306 321 
695 77 278 72 294 
696 145 280 140 295 
697 281 303 293 335 
698 146 280 147 322 
699 274 305 301 324 
700 222 232 289 301 
701 292 299 127 325 
702 280 295 293 326 
703 104 292 130 302 
704 277 286 273 309 
705 130 292 104 323 
706 140 280 146 300 
707 222 289 232 324 
708 173 289 205 302 
709 273 308 285 315 
710 291 293 284 313 
711 173 302 198 334 
712 129 279 120 325 
713 114 291 284 325 
714 278 285 283 333 
715 277 286 322 328 
716 139 206 288 299 
717 274 287 314 333 
718 190 278 200 331 
719 208 292 104 302 
720 198 302 187 334 
721 190 172 278 294 
722 281 285 283 296 
723 222 289 196 301 
724 280 291 293 295 
725 278 283 285 331 
726 161 288 286 332 
727 150 164 161 332 
728 221 127 292 299 
729 84 81 83 287 
730 164 139 288 299 
731 95 276 84 307 
732 208 292 302 311 
733 205 302 289 311 
734 293 303 281 318 
735 281 275 298 335 
736 130 104 128 323 
737 283 296 285 331 
738 281 284 275 335 
739 187 177 108 302 
740 96 274 301 306 
741 196 289 197 301 
742 280 293 291 313 
743 96 306 82 321 
744 221 299 292 312 
745 145 147 146 280 
746 293 295 258 326 
747 196 197 289 330 
748 70 301 96 305 
749 288 299 206 312 
750 156 277 138 297 
751 71 277 85 297 
752 188 319 294 331 
753 276 304 288 328 
754 81 287 94 321 
755 120 107 143 299 
756 110 103 246 303 
757 278 274 306 308 
758 114 132 119 291 
759 218 231 223 288 
760 146 300 280 322 
761 273 277 309 333 
762 74 301 175 306 
763 95 84 83 307 
764 129 127 299 325 
765 278 306 285 308 
766 273 286 314 329 
767 129 299 279 325 
768 104 292 128 323 
769 145 146 140 280 
770 212 104 125 302 
771 155 141 73 304 
772 188 245 176 294 
773 244 121 109 295 
774 255 293 121 295 
775 161 149 286 328 
776 275 285 281 298 
777 161 286 288 328 
778 79 290 320 321 
779 280 291 145 332 
780 274 301 289 324 
781 149 161 286 332 
782 187 108 122 302 
783 207 226 91 301 
784 262 154 142 297 
785 285 308 306 330 
786 95 84 276 305 
787 79 77 290 321 
788 207 229 232 324 
789 153 120 143 299 
790 278 290 77 321 
791 95 276 304 305 
792 166 277 156 322 
793 70 96 94 305 
794 196 289 186 330 
795 273 285 308 333 
796 190 294 278 331 
797 166 148 151 322 
798 260 241 76 294 
799 220 304 231 310 
800 161 164 139 288 
801 98 85 277 320 
802 278 308 285 333 
803 129 120 117 325 
804 247 303 242 318 
805 145 291 280 295 
806 77 290 278 294 
807 189 74 175 306 
808 188 256 294 319 
809 275 285 308 315 
810 256 245 294 319 
811 81 287 84 305 
812 72 97 306 321 
813 207 301 70 305 
814 267 283 253 319 
815 171 298 106 303 
816 154 297 262 300 
817 116 298 122 323 
818 73 86 155 304 
819 223 231 228 304 
820 255 258 293 295 
821 256 245 188 294 
822 239 296 174 303 
823 94 81 84 305 
824 207 305 229 324 
825 275 284 323 335 
826 280 300 268 326 
827 86 155 304 307 
828 223 228 162 304 
829 155 304 307 328 
830 292 302 275 323 
831 296 303 247 318 
832 296 319 188 331 
833 196 186 197 330 
834 116 122 130 323 
835 277 287 276 307 
836 205 225 193 302 
837 242 246 103 303 
838 267 253 283 318 
839 255 121 244 295 
840 267 249 253 318 
841 222 232 219 324 
842 106 303 298 335 
843 171 298 303 336 
844 206 159 227 299 
845 239 174 178 303 
846 139 159 206 299 
847 114 117 132 325 
848 173 205 193 302 
849 208 104 212 302 
850 277 307 98 320 
851 289 301 274 330 
852 239 178 259 303 
853 239 247 296 303 
854 210 126 127 299 
855 222 219 289 324 
856 179 303 296 336 
857 144 140 240 295 
858 249 283 253 318 
859 275 323 298 335 
860 121 293 119 295 
861 189 88 74 306 
862 275 302 289 334 
863 240 261 144 295 
864 211 196 194 301 
865 160 162 228 304 
866 211 222 196 301 
867 105 291 137 295 
868 174 296 179 303 
869 207 91 70 301 
870 171 123 191 303 
871 208 302 213 311 
872 221 224 299 312 
873 172 192 89 294 
874 267 296 283 319 
875 281 298 285 336 
876 69 76 241 294 
877 190 188 294 331 
878 286 288 279 332 
879 155 163 304 328 
880 157 124 105 295 
881 95 304 276 307 
882 221 210 127 299 
883 154 262 257 300 
884 267 283 296 318 
885 278 306 200 331 
886 78 79 290 320 
887 220 305 304 310 
888 112 113 114 284 
889 112 113 284 335 
890 209 230 93 305 
891 173 198 195 334 
892 89 72 172 294 
893 96 88 82 306 
894 171 106 123 303 
895 242 247 246 303 
896 174 179 178 303 
897 110 111 103 303 
898 90 158 138 297 
899 105 137 157 295 
900 112 284 114 293 
901 289 302 275 311 
902 234 218 288 312 
903 79 77 78 290 
904 182 200 185 306 
905 273 308 314 333 
906 103 112 293 335 
907 172 72 88 306 
908 286 276 314 329 
909 279 299 292 325 
910 88 72 97 306 
911 257 240 140 300 
912 182 200 306 331 
913 69 241 290 294 
914 304 305 276 310 
915 173 195 289 334 
916 80 83 287 307 
917 208 212 213 302 
918 189 172 88 306 
919 224 206 299 312 
920 274 278 306 321 
921 215 311 282 312 
922 275 302 292 311 
923 262 297 265 300 
924 209 93 304 305 
925 112 284 293 335 
926 164 159 139 299 
927 70 91 96 301 
928 118 127 129 325 
929 144 145 140 295 
930 220 209 231 304 
931 173 193 198 302 
932 138 71 90 297 
933 95 304 93 305 
934 215 282 216 312 
935 221 224 210 299 
936 218 310 288 312 
937 69 77 76 294 
938 277 297 156 322 
939 85 297 277 320 
940 255 244 258 295 
941 140 154 257 300 
942 148 149 151 328 
943 137 291 145 295 
944 205 213 302 311 
945 118 292 127 325 
946 281 303 296 318 
947 83 81 80 287 
948 292 299 279 312 
949 188 176 190 294 
950 97 88 306 321 
951 125 104 130 302 
952 306 308 274 330 
953 198 177 187 302 
954 154 156 297 300 
955 182 306 330 331 
956 182 306 185 330 
957 143 164 153 299 
958 109 121 119 295 
959 278 319 283 331 
960 105 119 291 295 
961 320 321 290 333 
962 156 142 154 297 
963 103 111 112 335 
964 207 232 226 301 
965 278 290 321 333 
966 130 122 108 302 
967 119 112 114 293 
968 279 299 288 312 
969 80 307 287 320 
970 253 249 251 283 
971 69 290 77 294 
972 105 153 137 291 
973 93 92 209 304 
974 148 286 149 328 
975 187 298 184 334 
976 222 211 232 301 
977 285 298 275 334 
978 105 120 153 291 
979 234 288 206 312 
980 209 304 220 305 
981 171 303 179 336 
982 106 111 303 335 
983 291 313 284 325 
984 262 265 257 300 
985 296 303 281 336 
986 188 296 256 319 
987 71 138 155 307 
988 138 166 155 307 
989 163 162 304 328 
990 277 317 309 333 
991 260 266 241 294 
992 277 320 317 333 
993 284 313 293 316 
994 155 86 71 307 
995 239 247 267 296 
996 160 163 162 304 
997 93 95 92 304 
998 251 317 263 319 
999 279 313 291 325 
1000 267 296 247 318 
1001 297 300 156 322 
1002 129 127 126 299 
1003 258 248 293 326 
1004 82 306 88 321 
1005 196 197 194 301 
1006 283 319 296 331 
1007 251 253 283 319 
1008 239 259 247 303 
1009 106 111 123 303 
1010 171 191 179 303 
1011 280 293 313 316 
1012 198 187 184 334 
1013 266 290 241 294 
1014 225 205 213 302 
1015 301 306 274 330 
1016 155 163 141 304 
1017 73 95 86 304 
1018 298 334 285 336 
1019 215 214 311 312 
1020 276 305 287 314 
1021 120 129 107 299 
1022 282 310 288 329 
1023 149 286 148 332 
1024 103 121 255 293 
1025 290 294 266 319 
1026 265 300 297 327 
1027 251 283 317 319 
1028 140 146 154 300 
1029 288 310 276 329 
1030 165 145 291 332 
1031 224 206 227 299 
1032 285 330 306 331 
1033 95 86 304 307 
1034 285 306 278 331 
1035 216 310 218 312 
1036 80 98 307 320 
1037 281 303 298 336 
1038 298 303 281 335 
1039 157 137 145 295 
1040 242 103 255 293 
1041 287 305 274 314 
1042 89 77 72 294 
1043 206 223 139 288 
1044 265 317 300 327 
1045 205 289 233 311 
1046 251 283 249 326 
1047 209 220 230 305 
1048 215 216 214 312 
1049 233 311 289 324 
1050 285 296 281 336 
1051 79 80 81 287 
1052 234 216 218 312 
1053 257 268 240 300 
1054 223 162 139 288 
1055 233 289 219 324 
1056 233 219 215 324 
1057 105 124 119 295 
1058 261 240 258 295 
1059 190 192 172 294 
1060 233 215 311 324 
1061 251 263 253 319 
1062 205 173 222 289 
1063 197 306 301 330 
1064 154 156 300 322 
1065 215 217 216 282 
1066 104 221 127 292 
1067 258 248 255 293 
1068 208 221 104 292 
1069 280 322 286 332 
1070 288 310 282 312 
1071 175 301 197 306 
1072 286 280 309 322 
1073 286 322 148 332 
1074 222 173 196 289 
1075 114 113 115 284 
1076 90 71 85 297 
1077 158 156 138 297 
1078 147 149 148 332 
1079 80 98 83 307 
1080 286 309 280 313 
1081 300 317 277 327 
1082 217 282 215 324 
1083 280 286 313 332 
1084 223 234 218 288 
1085 79 287 81 321 
1086 297 300 277 327 
1087 216 282 310 312 
1088 290 317 320 333 
1089 165 291 153 332 
1090 287 321 320 333 
1091 161 288 152 328 
1092 115 284 113 323 
1093 216 282 217 310 
1094 82 81 94 321 
1095 286 288 276 329 
1096 278 283 319 333 
1097 80 287 79 320 
1098 252 268 300 326 
1099 298 323 116 335 
1100 317 320 277 327 
1101 282 311 215 324 
1102 184 334 298 336 
1103 264 87 69 327 
1104 276 307 304 328 
1105 147 148 322 332 
1106 276 288 286 328 
1107 290 319 283 333 
1108 40 108 187 177 
1109 273 309 286 313 
1110 248 242 293 318 
1111 263 317 290 319 
1112 214 292 208 311 
1113 264 69 241 327 
1114 145 137 165 291 
1115 132 105 119 291 
1116 138 155 11 71 
1117 131 298 116 335 
1118 184 298 199 336 
1119 120 30 143 107 
1120 74 175 20 189 
1121 95 93 84 305 
1122 79 320 287 321 
1123 141 73 10 155 
1124 278 319 290 333 
1125 137 105 31 153 
1126 172 21 88 72 
1127 263 290 266 319 
1128 279 288 286 329 
1129 285 331 296 336 
1130 224 234 206 312 
1131 155 86 11 71 
1132 277 300 297 322 
1133 128 323 292 325 
1134 154 300 146 322 
1135 249 283 318 326 
1136 189 175 197 306 
1137 161 152 149 328 
1138 114 284 115 325 
1139 153 105 31 120 
1140 189 21 88 172 
1141 181 182 183 285 
1142 281 293 284 335 
1143 310 314 276 329 
1144 85 297 320 327 
1145 214 221 292 312 
1146 152 288 162 328 
1147 165 153 150 332 
1148 288 312 282 329 
1149 182 330 285 331 
1150 281 284 293 316 
1151 282 308 289 324 
1152 171 41 106 298 
1153 292 311 214 312 
1154 219 233 222 289 
1155 119 121 112 293 
1156 282 314 310 329 
1157 187 41 171 298 
1158 106 41 122 298 
1159 108 187 122 40 
1160 182 183 285 330 
1161 183 181 285 334 
1162 88 74 20 189 
1163 153 30 143 120 
1164 281 296 283 318 
1165 128 104 118 292 
1166 187 122 41 298 
1167 239 256 174 296 
1168 284 113 323 335 
1169 86 10 73 155 
1170 289 311 282 324 
1171 180 179 296 336 
1172 69 290 241 327 
1173 260 76 99 294 
1174 37 110 103 246 
1175 200 172 189 306 
1176 205 233 213 311 
1177 271 99 203 294 
1178 99 271 260 294 
1179 174 256 188 296 
1180 279 315 312 329 
1181 27 207 226 91 
1182 263 241 266 290 
1183 206 234 223 288 
1184 282 311 292 312 
1185 294 319 278 331 
1186 251 317 283 326 
1187 35 109 244 121 
1188 203 176 245 294 
1189 271 203 245 294 
1190 203 99 89 294 
1191 132 120 105 291 
1192 182 285 181 331 
1193 278 294 290 319 
1194 287 307 277 320 
1195 128 292 118 325 
1196 195 330 289 334 
1197 214 208 213 311 
1198 285 181 331 336 
1199 154 146 156 322 
1200 282 289 308 311 
1201 139 152 161 288 
1202 109 272 244 295 
1203 267 253 256 319 
1204 272 109 134 295 
1205 305 314 310 324 
1206 297 277 320 327 
1207 252 300 317 326 
1208 270 262 142 297 
1209 104 127 118 292 
1210 242 255 248 293 
1211 89 192 203 294 
1212 181 285 334 336 
1213 312 315 282 329 
1214 279 292 312 315 
1215 205 222 233 289 
1216 151 163 155 328 
1217 174 180 179 296 
1218 265 252 300 317 
1219 165 137 153 291 
1220 266 294 245 319 
1221 274 314 305 324 
1222 100 75 270 297 
1223 270 142 169 297 
1224 277 286 309 322 
1225 275 284 315 323 
1226 165 147 145 332 
1227 181 334 184 336 
1228 167 272 134 295 
1229 217 310 282 324 
1230 273 313 286 329 
1231 261 167 144 295 
1232 157 167 134 295 
1233 87 264 15 75 
1234 273 314 308 315 
1235 77 69 78 290 
1236 167 261 272 295 
1237 273 314 315 329 
1238 248 318 293 326 
1239 214 224 221 312 
1240 229 305 310 324 
1241 152 139 162 288 
1242 252 250 268 326 
1243 169 100 270 297 
1244 173 195 186 289 
1245 308 314 282 315 
1246 222 61 173 205 
1247 267 256 296 319 
1248 180 296 331 336 
1249 246 103 37 242 
1250 250 258 268 326 
1251 282 315 314 329 
1252 290 320 317 327 
1253 131 122 116 298 
1254 199 184 187 298 
1255 282 311 308 315 
1256 255 35 244 121 
1257 280 313 291 332 
1258 134 124 157 295 
1259 65 176 188 245 
1260 90 100 169 297 
1261 207 27 70 91 
1262 290 317 283 319 
1263 206 223 51 139 
1264 239 256 66 174 
1265 178 239 259 67 
1266 256 266 245 319 
1267 116 323 113 335 
1268 282 314 308 324 
1269 222 61 196 173 
1270 300 309 277 317 
1271 289 274 308 330 
1272 103 112 121 293 
1273 258 250 248 326 
1274 308 311 275 315 
1275 243 15 264 75 
1276 240 261 57 144 
1277 75 297 85 327 
1278 195 186 289 330 
1279 257 240 56 140 
1280 252 251 250 317 
1281 162 51 223 139 
1282 126 238 136 299 
1283 273 309 316 333 
1284 235 212 125 302 
1285 168 238 159 299 
1286 193 235 202 302 
1287 97 82 88 321 
1288 274 289 308 324 
1289 91 226 237 301 
1290 126 210 238 299 
1291 237 194 204 301 
1292 188 66 256 174 
1293 110 246 133 303 
1294 191 42 123 171 
1295 237 101 91 301 
1296 205 62 193 225 
1297 264 75 87 327 
1298 252 317 250 326 
1299 169 158 90 297 
1300 180 331 181 336 
1301 135 235 125 302 
1302 210 45 127 126 
1303 246 269 133 303 
1304 251 249 250 326 
1305 281 283 316 318 
1306 149 150 161 332 
1307 282 312 292 315 
1308 56 154 257 140 
1309 157 32 105 124 
1310 284 323 115 325 
1311 180 296 188 331 
1312 89 172 22 192 
1313 52 227 206 159 
1314 135 108 202 302 
1315 275 308 289 311 
1316 12 90 158 138 
1317 235 193 225 302 
1318 237 211 194 301 
1319 274 308 314 324 
1320 248 247 242 318 
1321 251 250 317 326 
1322 159 238 227 299 
1323 186 196 173 289 
1324 108 177 202 302 
1325 283 316 309 333 
1326 55 154 142 262 
1327 289 308 275 334 
1328 107 136 168 299 
1329 168 136 238 299 
1330 214 221 208 292 
1331 85 320 87 327 
1332 287 320 277 333 
1333 256 65 188 245 
1334 178 174 239 67 
1335 254 290 263 317 
1336 135 202 235 302 
1337 204 175 101 301 
1338 101 237 204 301 
1339 140 240 57 144 
1340 259 178 201 303 
1341 285 275 308 334 
1342 264 243 75 327 
1343 36 121 255 103 
1344 106 123 42 171 
1345 283 317 290 333 
1346 270 75 243 297 
1347 263 254 241 290 
1348 183 184 181 334 
1349 93 230 70 305 
1350 137 32 105 157 
1351 72 172 22 89 
1352 259 201 269 303 
1353 133 201 191 303 
1354 173 62 193 205 
1355 46 104 208 221 
1356 107 168 143 299 
1357 221 46 104 127 
1358 139 52 206 159 
1359 78 320 290 327 
1360 101 175 74 301 
1361 276 310 305 314 
1362 12 90 138 71 
1363 78 87 320 327 
1364 103 255 36 242 
1365 236 160 228 304 
1366 171 199 298 336 
1367 106 298 131 335 
1368 148 166 156 322 
1369 279 312 288 329 
1370 230 207 70 305 
1371 191 123 133 303 
1372 89 76 77 294 
1373 117 114 115 325 
1374 286 279 313 332 
1375 292 315 279 325 
1376 236 170 160 304 
1377 92 102 236 304 
1378 133 269 201 303 
1379 300 309 280 322 
1380 262 55 154 257 
1381 176 192 190 294 
1382 216 217 218 310 
1383 241 290 254 327 
1384 145 144 157 295 
1385 265 254 317 327 
1386 98 80 85 320 
1387 86 98 71 307 
1388 79 97 77 321 
1389 264 16 69 87 
1390 283 309 317 333 
1391 291 313 279 332 
1392 229 305 220 310 
1393 163 152 162 328 
1394 230 26 93 70 
1395 249 248 250 326 
1396 285 330 183 334 
1397 265 297 243 327 
1398 85 78 87 320 
1399 102 141 170 304 
1400 211 196 60 194 
1401 258 244 261 295 
1402 124 109 119 295 
1403 289 330 308 334 
1404 213 212 225 302 
1405 70 230 26 207 
1406 249 318 248 326 
1407 292 311 282 315 
1408 243 297 75 327 
1409 246 247 259 303 
1410 191 178 179 303 
1411 123 111 110 303 
1412 221 210 45 127 
1413 131 116 113 335 
1414 181 184 199 336 
1415 285 308 330 334 
1416 115 113 116 323 
1417 99 76 89 294 
1418 227 210 224 299 
1419 271 245 260 294 
1420 102 170 236 304 
1421 69 241 16 264 
1422 142 156 158 297 
1423 75 90 85 297 
1424 73 141 102 304 
1425 310 314 282 324 
1426 239 267 256 296 
1427 203 192 176 294 
1428 92 25 93 209 
1429 182 185 183 330 
1430 190 180 188 331 
1431 257 252 268 300 
1432 160 162 50 228 
1433 286 313 279 329 
1434 275 311 292 315 
1435 197 185 306 330 
1436 252 257 265 300 
1437 171 179 199 336 
1438 111 106 131 335 
1439 128 115 323 325 
1440 241 254 264 327 
1441 217 215 219 324 
1442 25 93 209 230 
1443 222 211 196 60 
1444 290 317 254 327 
1445 275 315 292 323 
1446 280 293 316 326 
1447 313 315 279 329 
1448 292 323 315 325 
1449 87 75 85 327 
1450 315 323 284 325 
1451 236 209 92 304 
1452 260 245 266 294 
1453 280 309 300 326 
1454 262 243 265 297 
1455 144 167 157 295 
1456 70 94 84 305 
1457 134 109 124 295 
1458 261 244 272 295 
1459 309 317 300 326 
1460 277 309 300 322 
1461 195 183 330 334 
1462 228 162 50 223 
1463 86 95 83 307 
1464 100 90 75 297 
1465 169 142 158 297 
1466 309 313 273 316 
1467 265 254 252 317 
1468 281 316 293 318 
1469 143 159 164 299 
1470 193 177 198 302 
1471 229 310 217 324 
1472 74 96 91 301 
1473 180 182 181 331 
1474 232 211 226 301 
1475 106 122 131 298 
1476 199 187 171 298 
1477 280 313 309 316 
1478 125 130 108 302 
1479 82 79 81 321 
1480 207 220 229 305 
1481 174 188 180 296 
1482 126 136 107 299 
1483 270 243 262 297 
1484 107 129 126 299 
1485 231 209 228 304 
1486 194 175 204 301 
1487 194 197 175 301 
1488 190 200 182 331 
1489 270 54 142 262 
1490 143 168 159 299 
1491 193 202 177 302 
1492 128 118 115 325 
1493 38 110 246 133 
1494 101 74 91 301 
1495 235 225 212 302 
1496 269 38 246 133 
1497 197 185 189 306 
1498 237 226 211 301 
1499 109 272 34 244 
1500 135 125 108 302 
1501 272 109 34 134 
1502 270 54 169 142 
1503 227 238 210 299 
1504 273 315 313 329 
1505 160 141 163 304 
1506 73 92 95 304 
1507 185 200 189 306 
1508 78 80 79 320 
1509 146 147 148 322 
1510 246 259 269 303 
1511 178 191 201 303 
1512 110 133 123 303 
1513 220 231 218 310 
1514 283 317 309 326 
1515 230 220 207 305 
1516 249 267 247 318 
1517 125 235 48 212 
1518 18 99 260 76 
1519 259 178 68 201 
1520 176 64 203 245 
1521 14 75 270 100 
1522 167 261 144 58 
1523 170 141 160 304 
1524 92 73 102 304 
1525 280 316 309 326 
1526 215 214 213 311 
1527 39 108 202 135 
1528 64 271 203 245 
1529 293 318 316 326 
1530 23 89 203 99 
1531 134 157 33 167 
1532 269 259 68 201 
1533 191 133 43 201 
1534 28 226 237 91 
1535 168 159 238 53 
1536 91 237 28 101 
1537 235 193 202 63 
1538 235 135 125 48 
1539 18 99 271 260 
1540 100 169 13 90 
1541 58 167 261 272 
1542 180 181 179 336 
1543 111 113 112 335 
1544 195 183 186 330 
1545 202 177 108 39 
1546 229 220 217 310 
1547 191 133 123 43 
1548 63 235 193 225 
1549 49 236 160 228 
1550 116 130 128 323 
1551 124 157 33 134 
1552 23 89 192 203 
1553 238 159 227 53 
1554 90 169 13 158 
1555 316 318 283 326 
1556 256 253 266 319 
1557 309 316 283 326 
1558 170 102 9 141 
1559 149 147 150 332 
1560 84 93 70 305 
1561 44 126 210 238 
1562 101 204 19 175 
1563 29 168 107 136 
1564 156 146 148 322 
1565 86 11 10 155 
1566 187 41 122 40 
1567 88 20 21 189 
1568 31 30 153 120 
1569 229 219 232 324 
1570 59 204 237 194 
1571 238 44 126 136 
1572 170 49 236 160 
1573 19 101 175 74 
1574 168 143 29 107 
1575 216 224 214 312 
1576 86 83 98 307 
1577 73 9 102 141 
1578 237 211 59 194 
1579 265 243 254 327 
1580 75 243 14 270 
1581 236 228 209 304 
1582 251 254 263 317 
1583 151 149 152 328 
1584 253 263 266 319 
1585 248 249 247 318 
1586 24 102 236 92 
1587 85 80 78 320 
1588 234 224 216 312 
1589 233 215 213 311 
1590 92 236 24 209 
1591 197 186 185 330 
1592 37 110 246 38 
1593 34 35 109 244 
1594 183 195 184 334 
1595 182 180 190 331 
1596 195 198 184 334 
1597 115 116 128 323 
1598 118 129 117 325 
1599 259 178 67 68 
1600 261 57 144 58 
1601 210 45 126 44 
1602 252 254 251 317 
1603 243 264 254 327 
1604 42 106 171 41 
1605 133 269 7 201 
1606 1 270 169 100 
1607 135 202 8 235 
1608 5 134 167 272 
1609 99 203 3 271 
1610 212 48 125 47 
1611 260 17 18 76 
1612 237 204 4 101 
1613 168 6 238 136 
1614 170 2 102 236 
1615 105 31 32 137 
1616 22 21 172 72 
1617 138 11 12 71 
1618 229 217 219 324 
1619 65 188 66 256 
1620 14 15 243 75 
1621 218 217 220 310 
1622 257 55 154 56 
1623 43 191 42 123 
1624 33 32 157 124 
1625 22 23 89 192 
1626 90 13 12 158 
1627 117 115 118 325 
1628 28 27 226 91 
1629 121 255 35 36 
1630 26 27 70 207 
1631 173 61 62 205 
1632 62 63 193 225 
1633 55 142 54 262 
1634 52 206 51 139 
1635 159 52 227 53 
1636 92 24 25 209 
1637 47 104 208 46 
1638 97 79 82 321 
1639 66 239 174 67 
1640 186 183 185 330 
1641 165 150 147 332 
1642 240 57 56 140 
1643 196 61 222 60 
1644 36 37 103 242 
1645 176 65 64 245 
1646 162 51 50 223 
1647 50 49 160 228 
1648 16 17 241 69 
1649 177 40 108 39 
1650 59 211 60 194 
1651 175 20 19 74 
1652 30 29 143 107 
1653 1 270 54 169 
1654 269 7 38 133 
1655 43 133 7 201 
1656 269 68 7 201 
1657 134 5 34 272 
1658 39 202 8 135 
1659 6 168 238 53 
1660 58 5 167 272 
1661 202 8 235 63 
1662 203 3 23 99 
1663 237 4 28 101 
1664 3 18 99 271 
1665 33 5 134 167 
1666 235 8 135 48 
1667 271 203 3 64 
1668 169 13 1 100 
1669 163 151 152 328 
1670 238 6 44 136 
1671 168 29 6 136 
1672 204 19 4 101 
1673 4 59 204 237 
1674 2 170 49 236 
1675 15 16 264 87 
1676 46 221 45 127 
1677 102 9 2 170 
1678 131 113 111 335 
1679 199 179 181 336 
1680 73 10 9 141 
1681 1 14 270 100 
1682 2 24 102 236 
1683 93 25 26 230 
1684 316 285 315 273 
1685 316 315 285 281 
1686 321 72 77 278 
1687 321 77 72 97 
1688 332 164 153 150 
1689 332 153 164 279 
1690 326 295 268 280 
1691 326 268 295 258 
1692 240 268 295 280 
1693 240 295 268 258 
1694 328 166 155 151 
1695 328 155 166 307 
1696 328 277 276 307 
1697 328 276 277 286 
1698 325 132 120 117 
1699 325 120 132 291 
1700 324 207 301 232 
1701 324 301 207 305 
1702 306 74 96 88 
1703 306 96 74 301 
1704 104 212 47 208 
1705 104 47 212 125 
1706 76 241 17 69 
1707 76 17 241 260 
1708 328 148 322 151 
1709 328 322 148 286 
1710 314 333 277 273 
1711 277 333 314 287 
1712 316 315 313 273 
1713 316 313 315 284 
1714 325 313 315 279 
1715 325 315 313 284 
1716 327 69 78 87 
1717 327 78 69 290 
1718 316 333 285 273 
1719 285 333 316 283 
1720 333 321 274 287 
1721 333 274 321 278 
$EndElements
$Comments
Hello this is my comment on the block model
... and a second comment
$EndComments
