$MeshFormat
4.1 0 8
$EndMeshFormat
$Entities
29 41 13 1
1 -1.4 0 1.05 0 
2 -1.4 2.400307726328812e-16 0.9799999999999999 0 
3 1.05 -2.571758278209442e-16 1.4 0 
4 1.400000000000001 -3.429011037612592e-16 1.049999999999998 0 
5 1.4 -3.429011037612589e-16 -1.05 0 
6 1.05 -2.571758278209441e-16 -1.4 0 
7 0 1.4 1.05 0 
8 0 -1.4 1.05 0 
9 -0.98 2.400307726328812e-16 0.9799999999999999 0 
10 -0.6929646455628115 -0.6929646455628115 0.6929646455628232 0 
11 -0.692964645562821 -0.6929646455628152 -0.6929646455628085 0 
12 -0.6929646455628085 0.6929646455628209 -0.6929646455628152 0 
13 -0.6929646455628123 0.6929646455628115 0.6929646455628223 0 
14 0.9799999999999999 -2.400307726328812e-16 1.399999999999999 0 
15 1.399999999999999 2.400307726328812e-16 0.9799999999999999 0 
16 0.9799999999999999 -2.400307726328812e-16 -1.4 0 
17 -2.400307726328812e-16 1.399999999999999 0.9799999999999999 0 
18 -2.400307726328812e-16 -1.4 0.9799999999999999 0 
19 0.98 0 0.98 0 
20 0.6929646455628165 -0.6929646455628165 0.6929646455628166 0 
21 -2.400307726328812e-16 -0.98 0.9799999999999999 0 
22 -2.400307726328812e-16 0.98 0.9799999999999999 0 
23 0.6929646455628165 0.6929646455628165 0.6929646455628165 0 
24 0.9799999999999999 -0.9799999999999999 1.200153863164406e-16 0 
25 0.6929646455628231 -0.6929646455628115 -0.6929646455628115 0 
26 0.9799999999999999 -2.400307726328812e-16 -0.98 0 
27 0.6929646455628168 0.6929646455628163 -0.6929646455628161 0 
28 1.200153863164406e-16 0.9799999999999999 -0.9799999999999999 0 
29 0.9799999999999999 0.9799999999999999 -1.200153863164406e-16 0 
1 -1.40000010459055 -1.05000010459055 -1.05000010459055 -1.39999989540945 1.05000010459055 1.05000010459055 0 2 1 -1 
2 -1.4000001 -0.9800000999999998 -0.9800000999999998 -1.3999999 0.9800000999999998 0.9800000999999998 0 2 2 -2 
3 -1.0500001 -1.0500001 1.3999999 1.0500001 1.0500001 1.4000001 0 2 3 -3 
4 1.0499999 -1.000000003429011e-07 1.049999899999998 1.400000100000001 9.999999974282417e-08 1.4000001 0 2 4 -3 
5 1.3999999 -1.0500001 -1.0500001 1.4000001 9.999999994736442e-08 1.0500001 0 2 4 -5 
6 1.0499999 -1.000000003429011e-07 -1.4000001 1.4000001 9.999999974282417e-08 -1.0499999 0 2 6 -5 
7 -1.0500001 -1.0500001 -1.4000001 1.0500001 1.0500001 -1.3999999 0 2 6 -6 
8 1.3999999 -1.000000006134982e-07 -1.0500001 1.4000001 1.0500001 1.0500001 0 2 5 -4 
9 -1.050000104581841 1.399999895418159 -1.050000104581841 1.050000104581841 1.400000104581841 1.050000104581841 0 2 7 -7 
10 -1.05000010458682 -1.40000010458682 -1.05000010458682 1.05000010458682 -1.39999989541318 1.05000010458682 0 2 8 -8 
11 -1.4000001 -9.999999975996923e-08 0.9799998999999999 -0.9799999 1.000000002400308e-07 0.9800000999999998 0 2 2 -9 
12 -0.9800000999999998 -0.6929647455628142 0.6929645455628187 -0.6929645455628187 1.000000005579871e-07 0.9800000999999998 0 2 9 -10 
13 -0.9800000999999998 -0.9800000999999998 -0.6929647455628126 -0.692964545562811 -0.692964545562811 0.6929647455628222 0 2 10 -11 
14 -0.9800000999999998 -0.6929647455628172 -0.9800000999999998 -0.692964545562812 0.6929647455628209 -0.692964545562812 0 2 11 -12 
15 -0.9800000999999998 0.6929645455628118 -0.6929647455628176 -0.6929645455628118 0.9800000999999998 0.6929647455628212 0 2 12 -13 
16 -0.9800000999999998 -9.999999944776405e-08 0.6929645455628187 -0.6929645455628187 0.6929647455628143 0.9800000999999998 0 2 13 -9 
17 -0.9800000999999998 -0.9800000999999998 1.399999899999999 0.9800000999999998 0.9800000999999998 1.4000001 0 2 14 -14 
18 1.399999899999999 -0.9800000999999998 -0.9800000999999998 1.4000001 0.9800000999999998 0.9800000999999998 0 2 15 -15 
19 -0.9800000999999998 -0.9800000999999998 -1.4000001 0.9800000999999998 0.9800000999999998 -1.3999999 0 2 16 -16 
20 -0.9800000999999998 1.399999899999999 -0.9800000999999998 0.9800000999999998 1.4000001 0.9800000999999998 0 2 17 -17 
21 -0.9800000999999998 -1.4000001 -0.9800000999999998 0.9800000999999998 -1.3999999 0.9800000999999998 0 2 18 -18 
22 0.6929645455628165 -0.6929647455628166 0.6929645455628165 0.9800000999999998 1.000000000028756e-07 0.9800000999999998 0 2 19 -20 
23 -1.000000005579871e-07 -0.9800000999999998 0.6929645455628167 0.6929647455628163 -0.6929645455628167 0.9800000999999998 0 2 21 -20 
24 -0.6929647455628143 -0.9800000999999998 0.6929645455628187 9.999999944776405e-08 -0.6929645455628187 0.9800000999999998 0 2 10 -21 
25 -0.6929647455628147 0.6929645455628182 0.6929645455628182 9.999999978083096e-08 0.9800000999999998 0.9800000999999998 0 2 13 -22 
26 -1.000000000028756e-07 0.6929645455628165 0.6929645455628165 0.6929647455628166 0.9800000999999998 0.9800000999999998 0 2 22 -23 
27 0.6929645455628164 -9.999999978083096e-08 0.6929645455628164 0.9800000999999998 0.6929647455628166 0.9800000999999998 0 2 23 -19 
28 0.9799998999999999 -1.000000002400308e-07 0.9799999 0.9800000999999998 9.999999975996923e-08 1.4000001 0 2 19 -14 
29 -1.000000002400308e-07 -1.4000001 0.9799998999999999 9.999999975996923e-08 -0.9799999 0.9800000999999998 0 2 18 -21 
30 0.6929645455628164 -0.9800000999999998 -9.999999978083096e-08 0.9800000999999998 -0.6929645455628164 0.6929647455628166 0 2 20 -24 
31 0.6929645455628186 -0.9800000999999998 -0.6929647455628144 0.9800000999999998 -0.6929645455628186 1.000000000028756e-07 0 2 24 -25 
32 -0.6929647455628209 -0.9800000999999998 -0.9800000999999998 0.6929647455628223 -0.692964545562811 -0.692964545562811 0 2 25 -11 
33 0.9799998999999999 -1.000000002400308e-07 -1.4000001 0.9800000999999998 9.999999975996923e-08 -0.9799999 0 2 16 -26 
34 0.6929645455628165 -1.000000000028756e-07 -0.9800000999999998 0.9800000999999998 0.6929647455628165 -0.6929645455628165 0 2 26 -27 
35 -9.999999978083096e-08 0.6929645455628157 -0.9800000999999998 0.6929647455628173 0.9800000999999998 -0.6929645455628157 0 2 27 -28 
36 -0.6929647455628128 0.6929645455628201 -0.9800000999999998 1.000000000028756e-07 0.9800000999999998 -0.6929645455628201 0 2 28 -12 
37 0.6929645455628182 -0.6929647455628147 -0.9800000999999998 0.9800000999999998 9.999999978083096e-08 -0.6929645455628182 0 2 25 -26 
38 0.6929645455628164 0.6929645455628164 -0.6929647455628166 0.9800000999999998 0.9800000999999998 9.999999978083096e-08 0 2 27 -29 
39 0.6929645455628165 0.6929645455628165 -1.000000000028756e-07 0.9800000999999998 0.9800000999999998 0.6929647455628166 0 2 29 -23 
40 -1.000000002400308e-07 0.9799999 0.9799998999999999 9.999999975996923e-08 1.4000001 0.9800000999999998 0 2 22 -17 
41 0.9799999 -9.999999975996923e-08 0.9799998999999999 1.4000001 1.000000002400308e-07 0.9800000999999998 0 2 19 -15 
1 -1.40000010459055 -1.05000010459055 -1.05000010459055 -1.39999989540945 1.05000010459055 1.05000010459055 0 2 1 -2 
2 -1.7500001 -1.7500001 -1.4000001 1.7500001 1.7500001 1.4000001 0 11 -3 -4 -8 -6 7 6 -5 4 -9 1 10 
3 -1.4000001 -0.9800000999999998 -0.9800000999999998 -0.6929644812484471 0.9800000999999998 0.9800000999999998 0 8 11 -16 -15 -14 -13 -12 -11 2 
4 -1.0500001 -1.0500001 1.399999899999999 1.0500001 1.0500001 1.4000001 0 2 3 -17 
5 1.399999899999999 -1.0500001 -1.0500001 1.4000001 1.0500001 1.0500001 0 3 8 5 -18 
6 -1.0500001 -1.0500001 -1.4000001 1.0500001 1.0500001 -1.3999999 0 2 7 -19 
7 -1.050000104581841 1.399999895418158 -1.050000104581841 1.050000104581841 1.400000104581841 1.050000104581841 0 2 9 -20 
8 -1.05000010458682 -1.40000010458682 -1.05000010458682 1.05000010458682 -1.39999989541318 1.05000010458682 0 2 10 -21 
9 -0.9800000999999998 -0.9800000999999998 0.6929644812484467 0.9800000999999998 0.9800000999999998 1.4000001 0 11 -22 28 -17 -28 -27 -26 -25 16 12 24 23 
10 -0.9800000999999998 -1.4000001 -0.9800000999999998 0.9800000999999998 -0.6929644812484471 0.9800000999999998 0 9 29 -24 13 -32 -31 -30 -23 -29 21 
11 -0.9800000999999998 -0.9800000999999998 -1.4000001 0.9800000999999998 0.9800000999999998 -0.6929644812484471 0 9 33 -37 32 14 -36 -35 -34 -33 19 
12 -0.9800000999999998 0.6929644812481731 -0.9800000999999998 0.9800000999999998 1.4000001 0.9800000999999998 0 10 25 40 -20 -40 26 -39 -38 35 36 15 
13 0.6929644812484467 -0.9800000999999998 -0.9800000999999998 1.4000001 0.9800000999999998 0.9800000999999998 0 11 27 41 -18 -41 22 30 31 37 34 38 39 
8 -1.75000010459055 -1.75000010459055 -1.40000010459055 1.75000010459055 1.75000010459055 1.40000010459055 0 13 -1 2 -3 4 5 -6 7 -8 -9 -10 -11 -12 -13 
$EndEntities
$Nodes
84 470 1 470
0 1 0 1
1
-1.4 0 1.05
0 2 0 1
2
-1.4 2.400307726328812e-16 0.9799999999999999
0 3 0 1
3
1.05 -2.571758278209442e-16 1.4
0 4 0 1
4
1.400000000000001 -3.429011037612592e-16 1.049999999999998
0 5 0 1
5
1.4 -3.429011037612589e-16 -1.05
0 6 0 1
6
1.05 -2.571758278209441e-16 -1.4
0 7 0 1
7
0 1.4 1.05
0 8 0 1
8
0 -1.4 1.05
0 9 0 1
9
-0.98 2.400307726328812e-16 0.9799999999999999
0 10 0 1
10
-0.6929646455628115 -0.6929646455628115 0.6929646455628232
0 11 0 1
11
-0.692964645562821 -0.6929646455628152 -0.6929646455628085
0 12 0 1
12
-0.6929646455628085 0.6929646455628209 -0.6929646455628152
0 13 0 1
13
-0.6929646455628123 0.6929646455628115 0.6929646455628223
0 14 0 1
14
0.9799999999999999 -2.400307726328812e-16 1.399999999999999
0 15 0 1
15
1.399999999999999 2.400307726328812e-16 0.9799999999999999
0 16 0 1
16
0.9799999999999999 -2.400307726328812e-16 -1.4
0 17 0 1
17
-2.400307726328812e-16 1.399999999999999 0.9799999999999999
0 18 0 1
18
-2.400307726328812e-16 -1.4 0.9799999999999999
0 19 0 1
19
0.98 0 0.98
0 20 0 1
20
0.6929646455628165 -0.6929646455628165 0.6929646455628166
0 21 0 1
21
-2.400307726328812e-16 -0.98 0.9799999999999999
0 22 0 1
22
-2.400307726328812e-16 0.98 0.9799999999999999
0 23 0 1
23
0.6929646455628165 0.6929646455628165 0.6929646455628165
0 24 0 1
24
0.9799999999999999 -0.9799999999999999 1.200153863164406e-16
0 25 0 1
25
0.6929646455628231 -0.6929646455628115 -0.6929646455628115
0 26 0 1
26
0.9799999999999999 -2.400307726328812e-16 -0.98
0 27 0 1
27
0.6929646455628168 0.6929646455628163 -0.6929646455628161
0 28 0 1
28
1.200153863164406e-16 0.9799999999999999 -0.9799999999999999
0 29 0 1
29
0.9799999999999999 0.9799999999999999 -1.200153863164406e-16
1 1 0 16
30
31
32
33
34
35
36
37
38
39
40
41
42
43
44
45
-1.4 -0.3793037494965103 0.9790958408745738
-1.4 -0.7073804258288846 0.7759593630816926
-1.4 -0.9399214559228151 0.4680252735653661
-1.4 -1.045520885109786 0.09688177743646827
-1.4 -1.009916925331461 -0.2873461395756855
-1.4 -0.8379180886442528 -0.6327663681982176
-1.4 -0.5527537710212259 -0.8927279925160935
-1.4 -0.1929369937074012 -1.032121754668097
-1.4 0.1929369937073954 -1.032121754668097
-1.4 0.5527537710212208 -0.8927279925160966
-1.4 0.8379180886442492 -0.6327663681982223
-1.4 1.009916925331459 -0.2873461395756909
-1.4 1.045520885109786 0.09688177743646477
-1.4 0.9399214559228165 0.468025273565363
-1.4 0.7073804258288857 0.7759593630816916
-1.4 0.3793037494965115 0.9790958408745732
1 2 0 15
46
47
48
49
50
51
52
53
54
55
56
57
58
59
60
-1.4 -0.3750297637177871 0.9054019418610613
-1.4 -0.6929646455628152 0.6929646455628177
-1.4 -0.90540194186106 0.3750297637177902
-1.4 -0.9799999999999999 3.32406338555618e-15
-1.4 -0.9054019418610626 -0.3750297637177838
-1.4 -0.69296464556282 -0.692964645562813
-1.4 -0.3750297637177933 -0.9054019418610587
-1.4 -7.083334196765422e-15 -0.9799999999999999
-1.4 0.3750297637177818 -0.9054019418610635
-1.4 0.6929646455628123 -0.6929646455628206
-1.4 0.9054019418610594 -0.3750297637177917
-1.4 0.9799999999999999 -3.661682484699151e-15
-1.4 0.9054019418610622 0.375029763717785
-1.4 0.6929646455628178 0.6929646455628151
-1.4 0.3750297637177885 0.9054019418610607
1 3 0 16
61
62
63
64
65
66
67
68
69
70
71
72
73
74
75
76
0.9790958408745738 0.3793037494965103 1.4
0.7759593630816926 0.7073804258288846 1.4
0.4680252735653661 0.9399214559228151 1.4
0.09688177743646827 1.045520885109786 1.4
-0.2873461395756855 1.009916925331461 1.4
-0.6327663681982176 0.8379180886442528 1.4
-0.8927279925160935 0.5527537710212259 1.4
-1.032121754668097 0.1929369937074012 1.4
-1.032121754668097 -0.1929369937073954 1.4
-0.8927279925160966 -0.5527537710212208 1.4
-0.6327663681982223 -0.8379180886442492 1.4
-0.2873461395756909 -1.009916925331459 1.4
0.09688177743646477 -1.045520885109786 1.4
0.468025273565363 -0.9399214559228165 1.4
0.7759593630816916 -0.7073804258288857 1.4
0.9790958408745732 -0.3793037494965115 1.4
1 4 0 1
77
1.23743686707646 -3.03084619682423e-16 1.237436867076457
1 5 0 8
78
79
80
81
82
83
84
85
1.4 -0.3591211504919518 0.986677251825204
1.4 -0.6749269901708658 0.8043466652749274
1.4 -0.9093266739736601 0.5250000000000009
1.4 -1.034048140662818 0.1823305865502783
1.4 -1.034048140662819 -0.182330586550275
1.4 -0.9093266739736615 -0.5249999999999986
1.4 -0.6749269901708672 -0.8043466652749263
1.4 -0.3591211504919528 -0.9866772518252036
1 6 0 1
86
1.237436867076458 -3.030846196824226e-16 -1.237436867076458
1 7 0 16
87
88
89
90
91
92
93
94
95
96
97
98
99
100
101
102
0.9790958408745738 0.3793037494965103 -1.4
0.7759593630816926 0.7073804258288846 -1.4
0.4680252735653661 0.9399214559228151 -1.4
0.09688177743646827 1.045520885109786 -1.4
-0.2873461395756855 1.009916925331461 -1.4
-0.6327663681982176 0.8379180886442528 -1.4
-0.8927279925160935 0.5527537710212259 -1.4
-1.032121754668097 0.1929369937074012 -1.4
-1.032121754668097 -0.1929369937073954 -1.4
-0.8927279925160966 -0.5527537710212208 -1.4
-0.6327663681982223 -0.8379180886442492 -1.4
-0.2873461395756909 -1.009916925331459 -1.4
0.09688177743646477 -1.045520885109786 -1.4
0.468025273565363 -0.9399214559228165 -1.4
0.7759593630816916 -0.7073804258288857 -1.4
0.9790958408745732 -0.3793037494965115 -1.4
1 8 0 8
103
104
105
106
107
108
109
110
1.4 0.3591211504919513 -0.9866772518252043
1.4 0.6749269901708655 -0.8043466652749276
1.4 0.9093266739736603 -0.5250000000000005
1.4 1.034048140662818 -0.1823305865502778
1.4 1.034048140662819 0.1823305865502765
1.4 0.9093266739736605 0.525
1.4 0.6749269901708665 0.8043466652749268
1.4 0.359121150491952 0.9866772518252039
1 9 0 16
111
112
113
114
115
116
117
118
119
120
121
122
123
124
125
126
0.3793037494965103 1.4 0.9790958408745738
0.7073804258288846 1.4 0.7759593630816926
0.9399214559228151 1.4 0.4680252735653661
1.045520885109786 1.4 0.09688177743646827
1.009916925331461 1.4 -0.2873461395756855
0.8379180886442528 1.4 -0.6327663681982176
0.5527537710212259 1.4 -0.8927279925160935
0.1929369937074012 1.4 -1.032121754668097
-0.1929369937073954 1.4 -1.032121754668097
-0.5527537710212208 1.4 -0.8927279925160966
-0.8379180886442492 1.4 -0.6327663681982223
-1.009916925331459 1.4 -0.2873461395756909
-1.045520885109786 1.4 0.09688177743646477
-0.9399214559228165 1.4 0.468025273565363
-0.7073804258288857 1.4 0.7759593630816916
-0.3793037494965115 1.4 0.9790958408745732
1 10 0 16
127
128
129
130
131
132
133
134
135
136
137
138
139
140
141
142
0.3793037494965103 -1.4 0.9790958408745738
0.7073804258288846 -1.4 0.7759593630816926
0.9399214559228151 -1.4 0.4680252735653661
1.045520885109786 -1.4 0.09688177743646827
1.009916925331461 -1.4 -0.2873461395756855
0.8379180886442528 -1.4 -0.6327663681982176
0.5527537710212259 -1.4 -0.8927279925160935
0.1929369937074012 -1.4 -1.032121754668097
-0.1929369937073954 -1.4 -1.032121754668097
-0.5527537710212208 -1.4 -0.8927279925160966
-0.8379180886442492 -1.4 -0.6327663681982223
-1.009916925331459 -1.4 -0.2873461395756909
-1.045520885109786 -1.4 0.09688177743646477
-0.9399214559228165 -1.4 0.468025273565363
-0.7073804258288857 -1.4 0.7759593630816916
-0.3793037494965115 -1.4 0.9790958408745732
1 11 0 1
143
-1.19 2.400307726328812e-16 0.9799999999999999
1 12 0 2
144
145
-0.941719460125093 -0.2712276874172379 0.941719460125093
-0.8386852761562003 -0.5069585856446245 0.8386852761562003
1 13 0 4
146
147
148
149
-0.8633903557078635 -0.8633903557078635 0.463634655381421
-0.965940016251547 -0.965940016251547 0.1654082374126536
-0.9659400162515496 -0.9659400162515496 -0.1654082374126392
-0.86339035570787 -0.86339035570787 -0.4636346553814085
1 14 0 4
150
151
152
153
-0.8633903557078676 -0.4636346553814133 -0.8633903557078676
-0.9659400162515489 -0.1654082374126429 -0.9659400162515489
-0.9659400162515477 0.1654082374126499 -0.9659400162515477
-0.8633903557078647 0.4636346553814185 -0.8633903557078647
1 15 0 4
154
155
156
157
-0.8633903557078673 0.8633903557078673 -0.4636346553814137
-0.9659400162515489 0.9659400162515489 -0.1654082374126429
-0.9659400162515477 0.9659400162515477 0.1654082374126503
-0.8633903557078644 0.8633903557078644 0.4636346553814188
1 16 0 2
158
159
-0.8386852761561996 0.5069585856446254 0.8386852761561996
-0.9417194601250929 0.2712276874172389 0.9417194601250929
1 17 0 15
160
161
162
163
164
165
166
167
168
169
170
171
172
173
174
0.9054019418610613 0.3750297637177871 1.399999999999999
0.6929646455628177 0.6929646455628152 1.399999999999999
0.3750297637177902 0.90540194186106 1.399999999999999
3.32406338555618e-15 0.9799999999999999 1.399999999999999
-0.3750297637177838 0.9054019418610626 1.399999999999999
-0.692964645562813 0.69296464556282 1.399999999999999
-0.9054019418610587 0.3750297637177933 1.399999999999999
-0.9799999999999999 7.083334196765422e-15 1.399999999999999
-0.9054019418610635 -0.3750297637177818 1.399999999999999
-0.6929646455628206 -0.6929646455628123 1.399999999999999
-0.3750297637177917 -0.9054019418610594 1.399999999999999
-3.661682484699151e-15 -0.9799999999999999 1.399999999999999
0.375029763717785 -0.9054019418610622 1.399999999999999
0.6929646455628151 -0.6929646455628178 1.399999999999999
0.9054019418610607 -0.3750297637177885 1.399999999999999
1 18 0 15
175
176
177
178
179
180
181
182
183
184
185
186
187
188
189
1.399999999999999 -0.3750297637177871 0.9054019418610613
1.399999999999999 -0.6929646455628152 0.6929646455628177
1.399999999999999 -0.90540194186106 0.3750297637177902
1.399999999999999 -0.9799999999999999 3.32406338555618e-15
1.399999999999999 -0.9054019418610626 -0.3750297637177838
1.399999999999999 -0.69296464556282 -0.692964645562813
1.399999999999999 -0.3750297637177933 -0.9054019418610587
1.399999999999999 -7.083334196765422e-15 -0.9799999999999999
1.399999999999999 0.3750297637177818 -0.9054019418610635
1.399999999999999 0.6929646455628123 -0.6929646455628206
1.399999999999999 0.9054019418610594 -0.3750297637177917
1.399999999999999 0.9799999999999999 -3.661682484699151e-15
1.399999999999999 0.9054019418610622 0.375029763717785
1.399999999999999 0.6929646455628178 0.6929646455628151
1.399999999999999 0.3750297637177885 0.9054019418610607
1 19 0 15
190
191
192
193
194
195
196
197
198
199
200
201
202
203
204
0.9054019418610613 0.3750297637177871 -1.4
0.6929646455628177 0.6929646455628152 -1.4
0.3750297637177902 0.90540194186106 -1.4
3.32406338555618e-15 0.9799999999999999 -1.4
-0.3750297637177838 0.9054019418610626 -1.4
-0.692964645562813 0.69296464556282 -1.4
-0.9054019418610587 0.3750297637177933 -1.4
-0.9799999999999999 7.083334196765422e-15 -1.4
-0.9054019418610635 -0.3750297637177818 -1.4
-0.6929646455628206 -0.6929646455628123 -1.4
-0.3750297637177917 -0.9054019418610594 -1.4
-3.661682484699151e-15 -0.9799999999999999 -1.4
0.375029763717785 -0.9054019418610622 -1.4
0.6929646455628151 -0.6929646455628178 -1.4
0.9054019418610607 -0.3750297637177885 -1.4
1 20 0 15
205
206
207
208
209
210
211
212
213
214
215
216
217
218
219
0.3750297637177871 1.399999999999999 0.9054019418610613
0.6929646455628152 1.399999999999999 0.6929646455628177
0.90540194186106 1.399999999999999 0.3750297637177902
0.9799999999999999 1.399999999999999 3.32406338555618e-15
0.9054019418610626 1.399999999999999 -0.3750297637177838
0.69296464556282 1.399999999999999 -0.692964645562813
0.3750297637177933 1.399999999999999 -0.9054019418610587
7.083334196765422e-15 1.399999999999999 -0.9799999999999999
-0.3750297637177818 1.399999999999999 -0.9054019418610635
-0.6929646455628123 1.399999999999999 -0.6929646455628206
-0.9054019418610594 1.399999999999999 -0.3750297637177917
-0.9799999999999999 1.399999999999999 -3.661682484699151e-15
-0.9054019418610622 1.399999999999999 0.375029763717785
-0.6929646455628178 1.399999999999999 0.6929646455628151
-0.3750297637177885 1.399999999999999 0.9054019418610607
1 21 0 15
220
221
222
223
224
225
226
227
228
229
230
231
232
233
234
0.3750297637177871 -1.4 0.9054019418610613
0.6929646455628152 -1.4 0.6929646455628177
0.90540194186106 -1.4 0.3750297637177902
0.9799999999999999 -1.4 3.32406338555618e-15
0.9054019418610626 -1.4 -0.3750297637177838
0.69296464556282 -1.4 -0.692964645562813
0.3750297637177933 -1.4 -0.9054019418610587
7.083334196765422e-15 -1.4 -0.9799999999999999
-0.3750297637177818 -1.4 -0.9054019418610635
-0.6929646455628123 -1.4 -0.6929646455628206
-0.9054019418610594 -1.4 -0.3750297637177917
-0.9799999999999999 -1.4 -3.661682484699151e-15
-0.9054019418610622 -1.4 0.375029763717785
-0.6929646455628178 -1.4 0.6929646455628151
-0.3750297637177885 -1.4 0.9054019418610607
1 22 0 2
235
236
0.9417194601250928 -0.2712276874172395 0.9417194601250928
0.8386852761561988 -0.5069585856446267 0.8386852761561988
1 23 0 2
237
238
0.2712276874172387 -0.9417194601250929 0.9417194601250929
0.5069585856446264 -0.8386852761561991 0.8386852761561991
1 24 0 2
239
240
-0.5069585856446254 -0.8386852761561996 0.8386852761561996
-0.2712276874172389 -0.9417194601250929 0.9417194601250929
1 25 0 2
241
242
-0.5069585856446258 0.8386852761561993 0.8386852761561993
-0.2712276874172386 0.9417194601250929 0.9417194601250929
1 26 0 2
243
244
0.2712276874172395 0.9417194601250928 0.9417194601250928
0.5069585856446267 0.8386852761561988 0.8386852761561988
1 27 0 2
245
246
0.8386852761561984 0.5069585856446274 0.8386852761561984
0.9417194601250928 0.2712276874172395 0.9417194601250928
1 28 0 1
247
0.9799999999999999 -2.400307726328812e-16 1.19
1 29 0 1
248
-2.400307726328812e-16 -1.19 0.9799999999999999
1 30 0 2
249
250
0.8386852761561984 -0.8386852761561984 0.5069585856446274
0.9417194601250928 -0.9417194601250928 0.2712276874172395
1 31 0 2
251
252
0.941719460125093 -0.941719460125093 -0.2712276874172386
0.8386852761561999 -0.8386852761561999 -0.5069585856446249
1 32 0 4
253
254
255
256
0.4636346553814187 -0.8633903557078646 -0.8633903557078646
0.165408237412648 -0.9659400162515479 -0.9659400162515479
-0.1654082374126478 -0.9659400162515479 -0.9659400162515479
-0.4636346553814181 -0.8633903557078649 -0.8633903557078649
1 33 0 1
257
0.9799999999999999 -2.400307726328812e-16 -1.19
1 34 0 2
258
259
0.9417194601250928 0.2712276874172396 -0.9417194601250928
0.8386852761561988 0.5069585856446268 -0.8386852761561988
1 35 0 2
260
261
0.5069585856446274 0.8386852761561984 -0.8386852761561984
0.2712276874172402 0.9417194601250924 -0.9417194601250924
1 36 0 2
262
263
-0.2712276874172377 0.9417194601250932 -0.9417194601250932
-0.5069585856446238 0.8386852761562006 -0.8386852761562006
1 37 0 2
264
265
0.8386852761561993 -0.5069585856446258 -0.8386852761561993
0.9417194601250929 -0.2712276874172386 -0.9417194601250929
1 38 0 2
266
267
0.8386852761561984 0.8386852761561984 -0.5069585856446274
0.9417194601250928 0.9417194601250928 -0.2712276874172395
1 39 0 2
268
269
0.9417194601250928 0.9417194601250928 0.2712276874172395
0.8386852761561988 0.8386852761561988 0.5069585856446267
1 40 0 1
270
-2.400307726328812e-16 1.19 0.9799999999999999
1 41 0 1
271
1.19 2.400307726328812e-16 0.9799999999999999
2 1 0 0
2 2 0 87
272
273
274
275
276
277
278
279
280
281
282
283
284
285
286
287
288
289
290
291
292
293
294
295
296
297
298
299
300
301
302
303
304
305
306
307
308
309
310
311
312
313
314
315
316
317
318
319
320
321
322
323
324
325
326
327
328
329
330
331
332
333
334
335
336
337
338
339
340
341
342
343
344
345
346
347
348
349
350
351
352
353
354
355
356
357
358
-0.9517332536231219 0.8676194994924752 -1.184879832746078
-1.233218778913296 -0.7875783761647602 -0.9598915275869863
0.8800745567650574 1.196908781103997 -0.9248665548342269
0.8787594695776929 -1.198647402969361 -0.9238648158590832
1.213473275823529 -0.9751328815263836 0.7994363465768659
1.213473278264847 0.9751328828788258 0.7994363412214853
-0.9500490399169756 0.8829134745274889 1.174891747460433
-0.9490828367103401 -0.8812693422430414 1.17690531287966
-1.2242729288973 -1.039982772209249 0.6943281854261664
-1.226074874473757 1.03871763480812 0.6930411801060498
0.8020510063290416 0.9341685938749699 1.243600909240675
0.7998624456573856 -0.9389820429423179 1.24138341823099
1.21393553150056 -0.7092472038921569 1.042031155547477
1.214957561880182 0.7043196462328126 1.044180041353334
1.094952851066164 -0.6779661023190678 -1.184879832746077
1.080790199359989 0.6304318789427696 -1.223498341224901
-0.8261789793503984 -1.211372291904838 -0.9552515189649026
-0.6198094309468035 -1.187205255216784 1.126445716088907
-0.6199019663239452 1.187395087242655 1.126194680745614
-1.189148343907098 1.161627930650862 -0.5468516863965983
-1.182439373625852 -1.19066897289215 -0.4966331892768094
1.213812853290022 -0.9109240210335848 -0.8714217033629247
1.227065655796722 0.9464429148127752 -0.8130533102846687
-0.9447471237960101 1.166210579271721 -0.899947641184687
-0.6602473865200861 1.12480609743395 -1.166783883917156
-0.5362906218265994 -1.189675678963003 -1.166003493916187
-1.170026299365261 0.4532706031744098 -1.21987057472977
-1.184879832746077 -0.4652253826619026 -1.20088514241734
1.171422084407605 1.200326331827594 -0.4994867338413067
1.17157767179111 -1.196481971549364 -0.5082682861618161
1.196302814597884 -1.18590034874043 0.4743415843487772
1.196302808514093 1.185900356159876 0.4743415811429262
-1.16194631119846 0.5307444009998727 1.196115024025523
-1.160603785142616 -0.5288206702591797 1.198268564479293
-1.214340951777285 0.8635663317870329 -0.9176760013428088
-0.9575992739966106 -0.9020878467842079 -1.154010895583484
0.44808238348271 1.226256828340395 -1.165339593664015
0.5056586586533176 -1.218513330812313 -1.149797627220378
-1.209134387678833 -1.216811711939173 0.3462127817111788
-1.216811733851169 1.209134363842578 0.3462127879456747
0.7484137844962261 0.991060017310592 -1.232954520355218
0.748413784496195 -0.9910600173105565 -1.232954520355265
-0.9320718661740196 1.163452918875794 0.9165802429936377
-0.931731067376011 -1.163408263681955 0.9169833314095175
0.9795376163572685 -1.229020682052248 0.7697494535424817
0.9795376157084242 1.229020683471238 0.7697494521025302
0.3361373269351136 1.220741161103258 1.208016024326328
0.3361373269340355 -1.220741161103493 1.20801602432639
-1.234752519318663 1.234752519318664 -0.1152060418225831
-1.234878921339323 -1.23551750543383 -0.1052166498154893
-1.236877408697546 -0.0007479437022870362 -1.237995846694917
1.138638344332515 0.205909219322871 1.31286104147147
1.284147804756964 -0.2052353845413136 -1.171043488718523
1.151757141143804 -0.2048724895870277 -1.301530925808014
1.292801702720898 0.2067863484314441 -1.161207631538967
1.17148720300554 0.2127634642701825 -1.282516838667629
1.291878851020373 0.2096473575166164 1.161721575840175
1.193014658470215 0.4243117296458173 1.20796340207813
1.29261870077383 -0.2104575359221328 1.160751704708358
1.161710952514655 -0.212759172485535 1.291379571361868
1.197015636190025 -0.4313534842848822 1.201493960996842
-0.2270633767183853 -1.239149062104276 1.214681779248926
-0.2270633767183771 1.23914906210432 1.214681779248883
1.02017162412081 0.9120554179665802 -1.090827562860655
0.9955926713940164 -0.9447349604809704 -1.085712248761864
1.224042133314113 1.243740934518416 -0.1316409650340379
1.224270199940427 -1.243377087215488 -0.1329507296909503
0.6882333319592722 1.201196362284605 1.070496230733425
0.6877867625486612 -1.201702830348834 1.070214780683967
-1.273394017616424 0.1988364845513158 1.183820817653575
-1.258355792433141 -0.1569596479903257 1.205986885729987
-0.3715307133732999 1.231915417606667 -1.186106796575805
-0.1236701595157824 -1.224118937420626 -1.244483233592778
1.22140125738371 -0.4151792942376469 -1.182499523085663
-0.01768781111152428 1.267209155067779 -1.206800770073705
-1.201438559741995 0.8128026037444436 0.9789776884645198
-1.198544507371029 -0.8044048522197855 0.9894058305750999
1.217615647013574 0.4169081730828845 -1.185790753617352
1.255191050860277 0.6677737459414893 -1.02033016718685
1.015912475619021 -0.9777260590780441 1.036568181684808
1.018886033883862 0.971716943545487 1.039296604239151
-1.028960143563336 -1.242602204483822 0.6779976285873475
-1.033806977721944 1.236412503100125 0.6819290688855429
1.028117757138457 -0.6952425331709776 1.233738909788693
1.023153287422503 0.6608394225703134 1.256562218122708
1.290152390919709 -0.6098503445631928 -1.012960692939422
-1.10077893478018 -1.086556571885191 -0.8186455599570027
2 3 0 17
359
360
361
362
363
364
365
366
367
368
369
370
371
372
373
374
375
-1.00924275310547 0.6963289507842478 0.6895839269441453
-1.009876463407286 -0.6942131874088537 0.6917138501054027
-1.01893816830388 -0.6926602094726502 -0.6932689479655815
-1.018938168303873 0.6932689479656072 -0.6926602094726244
-1.112727866505894 -0.4624879754407725 0.8640051345754232
-1.112563536316823 0.4629024628448456 0.8637831382309892
-1.127935700980986 -0.8480999107721223 0.4910463739284896
-1.127822201873787 0.8484513838014331 0.4904388334190441
-1.129762748431844 0.4913077266722683 -0.8479485348251552
-1.129762748431848 -0.8479485348251764 -0.4913077266722318
-1.129763487318605 0.84803793992281 -0.4911533899419573
-1.129763487318606 -0.4911533899419915 -0.8480379399227902
-1.171206585933567 0.1887931874132215 0.9616429339346054
-1.171230817071423 -0.1887182383734947 0.9616576451654739
-1.170326293649262 1.185606890642743e-15 -0.9799999999999999
-1.170326293649266 -0.9799999999999999 1.050498590883169e-14
-1.170326293649275 0.9799999999999999 1.560806623137584e-15
2 4 0 0
2 5 0 0
2 6 0 0
2 7 0 0
2 8 0 0
2 9 0 20
376
377
378
379
380
381
382
383
384
385
386
387
388
389
390
391
392
393
394
395
-0.4695775962141514 0.8601725879925139 1.119212031209158
-0.6925665008348325 0.6933625616669793 1.00040956790835
-0.8601725879925636 -0.4695775962140604 1.119212031209153
-0.6933625616669579 -0.692566500834854 1.000409567908394
0.864081922061954 0.4623444949014954 1.113187283827834
0.6943112419523834 0.6916154273138641 0.9994061214308401
0.4695775962138969 -0.8601725879926528 1.119212031209141
0.692566500834766 -0.6933625616670459 1.000409567908406
0.8641018411740439 -0.4623072658737123 1.111094076925006
0.4696436221959425 0.8601365403996477 1.118409901628498
-0.4683881955070835 -0.8608208282271159 1.120762700490785
-0.8608208282271185 0.4683881955070789 1.120762700490773
-0.9664106730529674 -0.1626358232656955 1.17157152324714
-0.1626358232657056 0.9664106730529656 1.171571523247158
0.1626358232656404 -0.9664106730529766 1.171571523247139
0.1636263951715121 0.9662434490350638 1.168425528576244
-0.1633905774020551 -0.9662833534818981 1.168815031409641
-0.9662833534818983 0.1633905774020538 1.168815031409639
0.9616627769790901 0.1886920861426486 1.171306666813302
0.9678139956762296 -0.1540651478213378 1.084637804188001
2 10 0 18
396
397
398
399
400
401
402
403
404
405
406
407
408
409
410
411
412
413
0.6917138501054516 -1.009876463407241 -0.6942131874088049
-0.6963289507841726 -1.009242753105585 0.6895839269442213
-0.6932689479656429 -1.018938168303884 -0.6926602094725888
0.8601441803204813 -1.119044528117997 -0.4696296296666205
0.4623444949015044 -1.113187283827822 0.8640819220619492
0.6916154273138596 -0.9994061214308183 0.6943112419523877
0.8601365403996455 -1.11840990162849 0.4696436221959462
-0.4629024628448287 -1.112563536316842 0.8637831382309982
0.9664090116034584 -1.171543788806868 -0.1626456955828414
0.9662437268178554 -1.168420946031972 0.1636247548054429
0.4910463739285218 -1.127935700980978 -0.8480999107721036
-0.848451383801394 -1.127822201873888 0.490438833419112
-0.4913077266722773 -1.129762748431847 -0.84794853482515
-0.8480379399228122 -1.129763487318529 -0.4911533899419535
0.188692086142652 -1.171306666813285 0.9616627769790893
-0.1887931874132181 -1.171206585933569 0.9616429339346061
-0.9799999999999999 -1.170326293649265 5.042466028362075e-15
2.296052514581747e-15 -1.17032629364926 -0.9799999999999999
2 11 0 18
414
415
416
417
418
419
420
421
422
423
424
425
426
427
428
429
430
431
-0.6942131874088187 0.6917138501054378 -1.009876463407182
0.6895839269442152 -0.6963289507841787 -1.009242753105586
-0.6926602094725536 -0.693268947965678 -1.018938168304009
-0.4696296296666205 0.8601441803204813 -1.119044528117993
0.8640819220619509 0.4623444949015013 -1.113187283827802
0.6943112419523884 0.6916154273138591 -0.9994061214307741
0.4696436221959468 0.8601365403996453 -1.118409901628487
0.8637831382309854 -0.4629024628448525 -1.11256353631684
-0.1626456955828414 0.9664090116034584 -1.171543788806868
0.1636247548054427 0.9662437268178555 -1.168420946031972
-0.8480999107721183 0.4910463739284965 -1.127935700980888
0.4904388334191082 -0.8484513838013962 -1.127822201873888
-0.84794853482516 -0.49130772667226 -1.129762748431951
-0.491153389941946 -0.8480379399228165 -1.129763487318552
0.961662776979089 0.1886920861426536 -1.171306666813283
0.9616429339346021 -0.1887931874132386 -1.171206585933568
-0.9799999999999999 6.212919345459299e-15 -1.170326293649268
-1.920852782086906e-15 -0.9799999999999999 -1.170326293649263
2 12 0 19
432
433
434
435
436
437
438
439
440
441
442
443
444
445
446
447
448
449
450
-0.6942131874088177 1.009876463407232 -0.6917138501054388
-0.6963289507842565 1.009242753105398 0.6895839269441366
0.8601725879925131 1.119212031209158 -0.4695775962141529
0.6933625616669796 1.000409567908346 -0.6925665008348322
-0.4696296296665211 1.119044528117986 -0.8601441803205356
0.4623444949015093 1.113187283827837 0.8640819220619467
0.6916154273138665 0.9994061214308569 0.6943112419523809
0.8601365403996479 1.118409901628499 0.4696436221959421
-0.4629024628448671 1.112563536316819 0.8637831382309776
0.4683881955070804 1.120762700490771 -0.8608208282271176
-0.1626456955828339 1.171543788806857 -0.9664090116034597
0.9664106730529656 1.171571523247158 -0.1626358232657058
0.9662434490350638 1.168425528576245 0.1636263951715121
0.163388936961387 1.168810448815698 -0.9662836308655071
-0.8480999107721234 1.127935700980933 -0.4910463739284876
-0.8484513838014345 1.127822201873713 0.4904388334190419
-0.1540651478213309 1.084637804187957 0.9678139956762307
0.1886920861426551 1.17130666681329 0.9616627769790888
-0.9799999999999999 1.170326293649296 1.560806623137584e-15
2 13 0 20
451
452
453
454
455
456
457
458
459
460
461
462
463
464
465
466
467
468
469
470
1.119212031209152 0.4695775962140563 -0.8601725879925659
1.00040956790839 0.6925665008348322 -0.6933625616669796
1.119212031209162 -0.8601725879925123 -0.4695775962141545
1.00040956790839 -0.6933625616669751 -0.6925665008348367
1.119212031209139 0.860172587992645 0.4695775962139114
1.000409567908362 0.693362561667089 0.6925665008347227
1.113187283827837 -0.4623444949015109 0.8640819220619458
0.9994061214308414 -0.6916154273138608 0.6943112419523865
1.111094076924989 0.4623072658737837 0.8641018411740057
1.118409901628494 -0.8601365403996456 0.469643622195946
1.120762700490784 0.8608208282271047 -0.4683881955071042
1.120762700490776 -0.4683881955070781 -0.8608208282271188
1.171571523247135 0.1626358232656937 -0.9664106730529676
1.171571523247137 -0.966410673052966 -0.1626358232657028
1.171571523247133 0.9664106730529735 0.1626358232656585
1.168425528576254 -0.9662434490350632 0.1636263951715155
1.168815031409648 0.9662833534818948 -0.1633905774020749
1.168815031409646 -0.1633905774020551 -0.9662833534818981
1.171306666813289 -0.1886920861426554 0.9616627769790886
1.170963968156761 0.1886830760051056 0.9616645448540001
3 8 0 0
$EndNodes
$Elements
84 2439 1 2439
0 1 15 1
1 1 
0 2 15 1
2 2 
0 3 15 1
3 3 
0 4 15 1
4 4 
0 5 15 1
5 5 
0 6 15 1
6 6 
0 7 15 1
7 7 
0 8 15 1
8 8 
0 9 15 1
9 9 
0 10 15 1
10 10 
0 11 15 1
11 11 
0 12 15 1
12 12 
0 13 15 1
13 13 
0 14 15 1
14 14 
0 15 15 1
15 15 
0 16 15 1
16 16 
0 17 15 1
17 17 
0 18 15 1
18 18 
0 19 15 1
19 19 
0 20 15 1
20 20 
0 21 15 1
21 21 
0 22 15 1
22 22 
0 23 15 1
23 23 
0 24 15 1
24 24 
0 25 15 1
25 25 
0 26 15 1
26 26 
0 27 15 1
27 27 
0 28 15 1
28 28 
0 29 15 1
29 29 
1 1 1 17
30 1 30 
31 30 31 
32 31 32 
33 32 33 
34 33 34 
35 34 35 
36 35 36 
37 36 37 
38 37 38 
39 38 39 
40 39 40 
41 40 41 
42 41 42 
43 42 43 
44 43 44 
45 44 45 
46 45 1 
1 2 1 16
47 2 46 
48 46 47 
49 47 48 
50 48 49 
51 49 50 
52 50 51 
53 51 52 
54 52 53 
55 53 54 
56 54 55 
57 55 56 
58 56 57 
59 57 58 
60 58 59 
61 59 60 
62 60 2 
1 3 1 17
63 3 61 
64 61 62 
65 62 63 
66 63 64 
67 64 65 
68 65 66 
69 66 67 
70 67 68 
71 68 69 
72 69 70 
73 70 71 
74 71 72 
75 72 73 
76 73 74 
77 74 75 
78 75 76 
79 76 3 
1 4 1 2
80 4 77 
81 77 3 
1 5 1 9
82 4 78 
83 78 79 
84 79 80 
85 80 81 
86 81 82 
87 82 83 
88 83 84 
89 84 85 
90 85 5 
1 6 1 2
91 6 86 
92 86 5 
1 7 1 17
93 6 87 
94 87 88 
95 88 89 
96 89 90 
97 90 91 
98 91 92 
99 92 93 
100 93 94 
101 94 95 
102 95 96 
103 96 97 
104 97 98 
105 98 99 
106 99 100 
107 100 101 
108 101 102 
109 102 6 
1 8 1 9
110 5 103 
111 103 104 
112 104 105 
113 105 106 
114 106 107 
115 107 108 
116 108 109 
117 109 110 
118 110 4 
1 9 1 17
119 7 111 
120 111 112 
121 112 113 
122 113 114 
123 114 115 
124 115 116 
125 116 117 
126 117 118 
127 118 119 
128 119 120 
129 120 121 
130 121 122 
131 122 123 
132 123 124 
133 124 125 
134 125 126 
135 126 7 
1 10 1 17
136 8 127 
137 127 128 
138 128 129 
139 129 130 
140 130 131 
141 131 132 
142 132 133 
143 133 134 
144 134 135 
145 135 136 
146 136 137 
147 137 138 
148 138 139 
149 139 140 
150 140 141 
151 141 142 
152 142 8 
1 11 1 2
153 2 143 
154 143 9 
1 12 1 3
155 9 144 
156 144 145 
157 145 10 
1 13 1 5
158 10 146 
159 146 147 
160 147 148 
161 148 149 
162 149 11 
1 14 1 5
163 11 150 
164 150 151 
165 151 152 
166 152 153 
167 153 12 
1 15 1 5
168 12 154 
169 154 155 
170 155 156 
171 156 157 
172 157 13 
1 16 1 3
173 13 158 
174 158 159 
175 159 9 
1 17 1 16
176 14 160 
177 160 161 
178 161 162 
179 162 163 
180 163 164 
181 164 165 
182 165 166 
183 166 167 
184 167 168 
185 168 169 
186 169 170 
187 170 171 
188 171 172 
189 172 173 
190 173 174 
191 174 14 
1 18 1 16
192 15 175 
193 175 176 
194 176 177 
195 177 178 
196 178 179 
197 179 180 
198 180 181 
199 181 182 
200 182 183 
201 183 184 
202 184 185 
203 185 186 
204 186 187 
205 187 188 
206 188 189 
207 189 15 
1 19 1 16
208 16 190 
209 190 191 
210 191 192 
211 192 193 
212 193 194 
213 194 195 
214 195 196 
215 196 197 
216 197 198 
217 198 199 
218 199 200 
219 200 201 
220 201 202 
221 202 203 
222 203 204 
223 204 16 
1 20 1 16
224 17 205 
225 205 206 
226 206 207 
227 207 208 
228 208 209 
229 209 210 
230 210 211 
231 211 212 
232 212 213 
233 213 214 
234 214 215 
235 215 216 
236 216 217 
237 217 218 
238 218 219 
239 219 17 
1 21 1 16
240 18 220 
241 220 221 
242 221 222 
243 222 223 
244 223 224 
245 224 225 
246 225 226 
247 226 227 
248 227 228 
249 228 229 
250 229 230 
251 230 231 
252 231 232 
253 232 233 
254 233 234 
255 234 18 
1 22 1 3
256 19 235 
257 235 236 
258 236 20 
1 23 1 3
259 21 237 
260 237 238 
261 238 20 
1 24 1 3
262 10 239 
263 239 240 
264 240 21 
1 25 1 3
265 13 241 
266 241 242 
267 242 22 
1 26 1 3
268 22 243 
269 243 244 
270 244 23 
1 27 1 3
271 23 245 
272 245 246 
273 246 19 
1 28 1 2
274 19 247 
275 247 14 
1 29 1 2
276 18 248 
277 248 21 
1 30 1 3
278 20 249 
279 249 250 
280 250 24 
1 31 1 3
281 24 251 
282 251 252 
283 252 25 
1 32 1 5
284 25 253 
285 253 254 
286 254 255 
287 255 256 
288 256 11 
1 33 1 2
289 16 257 
290 257 26 
1 34 1 3
291 26 258 
292 258 259 
293 259 27 
1 35 1 3
294 27 260 
295 260 261 
296 261 28 
1 36 1 3
297 28 262 
298 262 263 
299 263 12 
1 37 1 3
300 25 264 
301 264 265 
302 265 26 
1 38 1 3
303 27 266 
304 266 267 
305 267 29 
1 39 1 3
306 29 268 
307 268 269 
308 269 23 
1 40 1 2
309 22 270 
310 270 17 
1 41 1 2
311 19 271 
312 271 15 
2 1 2 33
313 1 2 30 
314 2 1 45 
315 2 46 30 
316 60 2 45 
317 30 46 31 
318 32 31 47 
319 31 46 47 
320 48 33 32 
321 48 32 47 
322 33 49 34 
323 48 49 33 
324 50 35 34 
325 49 50 34 
326 51 36 35 
327 50 51 35 
328 52 37 36 
329 51 52 36 
330 53 38 37 
331 52 53 37 
332 54 39 38 
333 53 54 38 
334 55 40 39 
335 54 55 39 
336 56 41 40 
337 55 56 40 
338 57 42 41 
339 56 57 41 
340 58 43 42 
341 57 58 42 
342 59 44 43 
343 58 59 43 
344 60 45 44 
345 59 60 44 
2 2 2 289
346 30 342 1 
347 1 341 45 
348 1 342 341 
349 3 323 61 
350 76 331 3 
351 77 323 3 
352 3 331 77 
353 4 328 77 
354 77 330 4 
355 4 330 78 
356 110 328 4 
357 85 324 5 
358 5 324 86 
359 86 326 5 
360 5 326 103 
361 86 325 6 
362 6 327 86 
363 87 327 6 
364 6 325 102 
365 64 318 7 
366 7 334 64 
367 7 318 111 
368 126 334 7 
369 8 319 73 
370 73 333 8 
371 127 319 8 
372 8 333 142 
373 31 348 30 
374 305 342 30 
375 30 348 305 
376 32 280 31 
377 280 348 31 
378 33 310 32 
379 32 310 280 
380 34 321 33 
381 33 321 310 
382 35 292 34 
383 292 321 34 
384 36 273 35 
385 273 358 35 
386 35 358 292 
387 37 299 36 
388 36 299 273 
389 38 322 37 
390 37 322 299 
391 39 298 38 
392 298 322 38 
393 40 306 39 
394 39 306 298 
395 41 291 40 
396 291 306 40 
397 42 320 41 
398 41 320 291 
399 43 311 42 
400 311 320 42 
401 44 281 43 
402 281 311 43 
403 45 347 44 
404 44 347 281 
405 45 341 304 
406 304 347 45 
407 61 356 62 
408 323 329 61 
409 329 356 61 
410 62 282 63 
411 62 356 282 
412 63 318 64 
413 282 339 63 
414 63 339 318 
415 64 334 65 
416 65 290 66 
417 65 334 290 
418 66 278 67 
419 66 290 278 
420 67 304 68 
421 278 304 67 
422 68 342 69 
423 304 341 68 
424 341 342 68 
425 69 305 70 
426 69 342 305 
427 70 279 71 
428 70 305 279 
429 71 289 72 
430 279 289 71 
431 72 333 73 
432 289 333 72 
433 73 319 74 
434 74 283 75 
435 74 340 283 
436 319 340 74 
437 75 355 76 
438 283 355 75 
439 76 332 331 
440 76 355 332 
441 77 328 323 
442 77 331 330 
443 78 284 79 
444 78 332 284 
445 330 332 78 
446 79 276 80 
447 79 284 276 
448 80 302 81 
449 276 302 80 
450 81 338 82 
451 81 302 130 
452 130 338 81 
453 82 301 83 
454 82 338 301 
455 83 293 84 
456 83 301 293 
457 84 357 85 
458 293 357 84 
459 85 345 324 
460 85 357 345 
461 324 325 86 
462 86 327 326 
463 88 287 87 
464 287 349 87 
465 87 349 327 
466 89 312 88 
467 88 335 287 
468 312 335 88 
469 90 308 89 
470 308 312 89 
471 91 346 90 
472 90 346 308 
473 92 296 91 
474 296 343 91 
475 343 346 91 
476 93 272 92 
477 272 296 92 
478 94 298 93 
479 93 298 272 
480 95 322 94 
481 94 322 298 
482 96 299 95 
483 299 322 95 
484 97 307 96 
485 96 307 299 
486 98 297 97 
487 297 307 97 
488 99 344 98 
489 98 344 297 
490 100 309 99 
491 99 309 134 
492 134 344 99 
493 101 313 100 
494 100 313 309 
495 102 286 101 
496 286 336 101 
497 101 336 313 
498 102 345 286 
499 325 345 102 
500 103 350 104 
501 326 349 103 
502 349 350 103 
503 104 294 105 
504 104 350 294 
505 105 300 106 
506 294 300 105 
507 106 337 107 
508 300 337 106 
509 107 303 108 
510 114 303 107 
511 107 337 114 
512 108 277 109 
513 108 303 277 
514 109 285 110 
515 277 285 109 
516 285 329 110 
517 110 329 328 
518 111 339 112 
519 318 339 111 
520 112 317 113 
521 112 339 317 
522 113 303 114 
523 113 317 303 
524 114 337 115 
525 115 300 116 
526 115 337 300 
527 116 274 117 
528 116 300 274 
529 117 308 118 
530 274 308 117 
531 118 346 119 
532 308 346 118 
533 119 343 120 
534 119 346 343 
535 120 295 121 
536 120 296 295 
537 120 343 296 
538 121 291 122 
539 121 295 291 
540 122 320 123 
541 291 320 122 
542 123 311 124 
543 123 320 311 
544 124 354 125 
545 311 354 124 
546 125 290 126 
547 125 314 290 
548 125 354 314 
549 290 334 126 
550 128 340 127 
551 127 340 319 
552 129 316 128 
553 316 340 128 
554 130 302 129 
555 302 316 129 
556 131 338 130 
557 132 301 131 
558 301 338 131 
559 133 275 132 
560 275 301 132 
561 134 309 133 
562 133 309 275 
563 135 344 134 
564 136 297 135 
565 297 344 135 
566 137 288 136 
567 288 297 136 
568 138 292 137 
569 137 358 288 
570 292 358 137 
571 139 321 138 
572 138 321 292 
573 140 310 139 
574 310 321 139 
575 141 353 140 
576 140 353 310 
577 142 289 141 
578 289 315 141 
579 315 353 141 
580 142 333 289 
581 295 296 272 
582 272 306 295 
583 298 306 272 
584 299 307 273 
585 307 358 273 
586 274 300 294 
587 294 335 274 
588 274 312 308 
589 274 335 312 
590 293 301 275 
591 275 336 293 
592 309 313 275 
593 313 336 275 
594 284 351 276 
595 276 316 302 
596 276 351 316 
597 277 352 285 
598 303 317 277 
599 317 352 277 
600 290 314 278 
601 278 347 304 
602 314 347 278 
603 279 315 289 
604 305 348 279 
605 279 348 315 
606 310 353 280 
607 315 348 280 
608 280 353 315 
609 281 354 311 
610 281 347 314 
611 314 354 281 
612 282 352 339 
613 282 356 352 
614 340 351 283 
615 351 355 283 
616 332 355 284 
617 284 355 351 
618 285 356 329 
619 352 356 285 
620 293 336 286 
621 286 357 293 
622 345 357 286 
623 335 350 287 
624 287 350 349 
625 288 307 297 
626 288 358 307 
627 295 306 291 
628 294 350 335 
629 316 351 340 
630 339 352 317 
631 328 329 323 
632 324 345 325 
633 327 349 326 
634 331 332 330 
2 3 2 73
635 46 2 372 
636 2 60 371 
637 143 2 371 
638 2 143 372 
639 9 143 371 
640 143 9 372 
641 9 144 372 
642 159 9 371 
643 145 10 360 
644 10 146 360 
645 149 11 361 
646 11 150 361 
647 153 12 362 
648 12 154 362 
649 157 13 359 
650 13 158 359 
651 47 46 363 
652 363 46 372 
653 48 47 365 
654 360 47 363 
655 47 360 365 
656 49 48 374 
657 147 48 365 
658 48 147 374 
659 50 49 374 
660 51 50 368 
661 50 148 368 
662 148 50 374 
663 52 51 370 
664 361 51 368 
665 51 361 370 
666 53 52 373 
667 151 52 370 
668 52 151 373 
669 54 53 373 
670 55 54 367 
671 54 152 367 
672 152 54 373 
673 56 55 369 
674 362 55 367 
675 55 362 369 
676 57 56 375 
677 155 56 369 
678 56 155 375 
679 58 57 375 
680 59 58 366 
681 58 156 366 
682 156 58 375 
683 60 59 364 
684 59 359 364 
685 359 59 366 
686 60 364 371 
687 144 145 363 
688 144 363 372 
689 145 360 363 
690 146 147 365 
691 360 146 365 
692 147 148 374 
693 148 149 368 
694 149 361 368 
695 150 151 370 
696 361 150 370 
697 151 152 373 
698 152 153 367 
699 153 362 367 
700 154 155 369 
701 362 154 369 
702 155 156 375 
703 156 157 366 
704 157 359 366 
705 158 159 364 
706 359 158 364 
707 364 159 371 
2 4 2 33
708 14 3 61 
709 76 3 14 
710 61 160 14 
711 174 76 14 
712 61 62 160 
713 62 63 161 
714 160 62 161 
715 162 63 64 
716 161 63 162 
717 163 64 65 
718 162 64 163 
719 164 65 66 
720 163 65 164 
721 165 66 67 
722 164 66 165 
723 68 166 67 
724 67 166 165 
725 167 68 69 
726 167 166 68 
727 69 70 168 
728 167 69 168 
729 169 70 71 
730 168 70 169 
731 71 72 170 
732 169 71 170 
733 171 72 73 
734 170 72 171 
735 172 73 74 
736 171 73 172 
737 173 74 75 
738 172 74 173 
739 174 75 76 
740 173 75 174 
2 5 2 34
741 15 4 78 
742 110 4 15 
743 85 5 182 
744 182 5 103 
745 78 175 15 
746 110 15 189 
747 79 175 78 
748 79 80 176 
749 176 175 79 
750 177 80 81 
751 176 80 177 
752 178 81 82 
753 177 81 178 
754 179 82 83 
755 178 82 179 
756 180 83 84 
757 180 179 83 
758 84 85 181 
759 180 84 181 
760 181 85 182 
761 103 104 183 
762 182 103 183 
763 184 104 105 
764 183 104 184 
765 185 105 106 
766 184 105 185 
767 186 106 107 
768 185 106 186 
769 187 107 108 
770 186 107 187 
771 188 108 109 
772 187 108 188 
773 189 109 110 
774 188 109 189 
2 6 2 33
775 6 16 87 
776 16 6 102 
777 16 190 87 
778 204 16 102 
779 190 88 87 
780 191 89 88 
781 190 191 88 
782 192 90 89 
783 191 192 89 
784 193 91 90 
785 192 193 90 
786 194 92 91 
787 193 194 91 
788 195 93 92 
789 194 195 92 
790 93 196 94 
791 195 196 93 
792 197 95 94 
793 196 197 94 
794 198 96 95 
795 197 198 95 
796 199 97 96 
797 198 199 96 
798 200 98 97 
799 199 200 97 
800 201 99 98 
801 200 201 98 
802 202 100 99 
803 201 202 99 
804 100 203 101 
805 202 203 100 
806 204 102 101 
807 203 204 101 
2 7 2 33
808 17 7 111 
809 126 7 17 
810 205 17 111 
811 17 219 126 
812 111 112 205 
813 206 112 113 
814 205 112 206 
815 114 207 113 
816 207 206 113 
817 114 115 208 
818 208 207 114 
819 209 115 116 
820 208 115 209 
821 210 116 117 
822 210 209 116 
823 211 117 118 
824 210 117 211 
825 212 118 119 
826 212 211 118 
827 213 119 120 
828 213 212 119 
829 214 120 121 
830 214 213 120 
831 121 122 215 
832 215 214 121 
833 216 122 123 
834 215 122 216 
835 217 123 124 
836 217 216 123 
837 218 124 125 
838 218 217 124 
839 219 125 126 
840 219 218 125 
2 8 2 33
841 8 18 127 
842 142 18 8 
843 127 18 220 
844 142 234 18 
845 128 127 220 
846 129 128 221 
847 221 128 220 
848 130 129 222 
849 222 129 221 
850 130 223 131 
851 223 130 222 
852 224 132 131 
853 223 224 131 
854 225 133 132 
855 132 224 225 
856 134 133 226 
857 226 133 225 
858 135 134 227 
859 227 134 226 
860 136 135 228 
861 228 135 227 
862 229 137 136 
863 229 136 228 
864 138 137 230 
865 230 137 229 
866 139 138 231 
867 231 138 230 
868 140 139 232 
869 232 139 231 
870 141 140 233 
871 233 140 232 
872 142 141 234 
873 234 141 233 
2 9 2 82
874 144 9 388 
875 9 159 393 
876 388 9 393 
877 10 145 379 
878 239 10 379 
879 158 13 377 
880 13 241 377 
881 14 160 394 
882 174 14 395 
883 247 14 394 
884 14 247 395 
885 19 235 395 
886 246 19 394 
887 19 247 394 
888 247 19 395 
889 236 20 383 
890 20 238 383 
891 237 21 390 
892 21 240 392 
893 390 21 392 
894 242 22 389 
895 22 243 391 
896 389 22 391 
897 244 23 381 
898 23 245 381 
899 145 144 378 
900 378 144 388 
901 145 378 379 
902 159 158 387 
903 158 377 387 
904 159 387 393 
905 160 161 380 
906 160 380 394 
907 161 162 385 
908 380 161 381 
909 381 161 385 
910 162 163 391 
911 385 162 391 
912 163 164 389 
913 163 389 391 
914 164 165 376 
915 164 376 389 
916 165 166 387 
917 376 165 377 
918 377 165 387 
919 166 167 393 
920 387 166 393 
921 167 168 388 
922 167 388 393 
923 168 169 378 
924 168 378 388 
925 169 170 386 
926 378 169 379 
927 379 169 386 
928 170 171 392 
929 386 170 392 
930 171 172 390 
931 171 390 392 
932 172 173 382 
933 172 382 390 
934 173 174 384 
935 382 173 383 
936 383 173 384 
937 384 174 395 
938 235 236 384 
939 235 384 395 
940 236 383 384 
941 238 237 382 
942 382 237 390 
943 238 382 383 
944 240 239 386 
945 239 379 386 
946 240 386 392 
947 241 242 376 
948 241 376 377 
949 376 242 389 
950 243 244 385 
951 243 385 391 
952 244 381 385 
953 245 246 380 
954 245 380 381 
955 380 246 394 
2 10 2 76
956 146 10 397 
957 10 239 397 
958 11 149 398 
959 256 11 398 
960 220 18 410 
961 18 234 411 
962 18 248 410 
963 248 18 411 
964 238 20 401 
965 20 249 401 
966 21 237 410 
967 240 21 411 
968 248 21 410 
969 21 248 411 
970 250 24 405 
971 24 251 404 
972 24 404 405 
973 252 25 396 
974 25 253 396 
975 147 146 407 
976 146 397 407 
977 148 147 412 
978 232 147 407 
979 147 232 412 
980 149 148 409 
981 148 230 409 
982 230 148 412 
983 398 149 409 
984 221 220 400 
985 400 220 410 
986 222 221 402 
987 221 400 401 
988 221 401 402 
989 223 222 405 
990 222 402 405 
991 224 223 404 
992 404 223 405 
993 225 224 399 
994 399 224 404 
995 226 225 406 
996 396 225 399 
997 225 396 406 
998 227 226 413 
999 254 226 406 
1000 226 254 413 
1001 228 227 413 
1002 229 228 408 
1003 228 255 408 
1004 255 228 413 
1005 230 229 409 
1006 398 229 408 
1007 229 398 409 
1008 231 230 412 
1009 232 231 412 
1010 233 232 407 
1011 234 233 403 
1012 233 397 403 
1013 397 233 407 
1014 234 403 411 
1015 237 238 400 
1016 237 400 410 
1017 400 238 401 
1018 239 240 403 
1019 397 239 403 
1020 403 240 411 
1021 249 250 402 
1022 401 249 402 
1023 402 250 405 
1024 251 252 399 
1025 251 399 404 
1026 252 396 399 
1027 253 254 406 
1028 396 253 406 
1029 254 255 413 
1030 255 256 408 
1031 256 398 408 
2 11 2 76
1032 150 11 416 
1033 11 256 416 
1034 12 153 414 
1035 263 12 414 
1036 190 16 428 
1037 16 204 429 
1038 16 257 428 
1039 257 16 429 
1040 253 25 415 
1041 25 264 415 
1042 257 26 428 
1043 26 257 429 
1044 26 258 428 
1045 265 26 429 
1046 259 27 419 
1047 27 260 419 
1048 261 28 423 
1049 28 262 422 
1050 28 422 423 
1051 151 150 426 
1052 150 416 426 
1053 152 151 430 
1054 198 151 426 
1055 151 198 430 
1056 153 152 424 
1057 152 196 424 
1058 196 152 430 
1059 414 153 424 
1060 191 190 418 
1061 418 190 428 
1062 192 191 420 
1063 191 418 419 
1064 191 419 420 
1065 193 192 423 
1066 192 420 423 
1067 194 193 422 
1068 422 193 423 
1069 195 194 417 
1070 417 194 422 
1071 196 195 424 
1072 414 195 417 
1073 195 414 424 
1074 197 196 430 
1075 198 197 430 
1076 199 198 426 
1077 200 199 427 
1078 416 199 426 
1079 199 416 427 
1080 201 200 431 
1081 255 200 427 
1082 200 255 431 
1083 202 201 431 
1084 203 202 425 
1085 202 254 425 
1086 254 202 431 
1087 204 203 421 
1088 203 415 421 
1089 415 203 425 
1090 204 421 429 
1091 254 253 425 
1092 253 415 425 
1093 255 254 431 
1094 256 255 427 
1095 416 256 427 
1096 258 259 418 
1097 258 418 428 
1098 418 259 419 
1099 260 261 420 
1100 419 260 420 
1101 420 261 423 
1102 262 263 417 
1103 262 417 422 
1104 263 414 417 
1105 264 265 421 
1106 415 264 421 
1107 421 265 429 
2 12 2 79
1108 154 12 432 
1109 12 263 432 
1110 13 157 433 
1111 241 13 433 
1112 17 205 449 
1113 219 17 448 
1114 17 270 448 
1115 270 17 449 
1116 22 242 448 
1117 243 22 449 
1118 270 22 448 
1119 22 270 449 
1120 23 244 438 
1121 269 23 438 
1122 260 27 435 
1123 27 266 435 
1124 28 261 445 
1125 262 28 442 
1126 442 28 445 
1127 267 29 443 
1128 29 268 444 
1129 443 29 444 
1130 155 154 446 
1131 154 432 446 
1132 156 155 450 
1133 215 155 446 
1134 155 215 450 
1135 157 156 447 
1136 156 217 447 
1137 217 156 450 
1138 433 157 447 
1139 205 206 437 
1140 205 437 449 
1141 206 207 439 
1142 437 206 438 
1143 438 206 439 
1144 207 208 444 
1145 439 207 444 
1146 208 209 443 
1147 208 443 444 
1148 209 210 434 
1149 209 434 443 
1150 210 211 441 
1151 434 210 435 
1152 435 210 441 
1153 211 212 445 
1154 441 211 445 
1155 212 213 442 
1156 212 442 445 
1157 213 214 436 
1158 213 436 442 
1159 214 215 446 
1160 214 432 436 
1161 432 214 446 
1162 215 216 450 
1163 216 217 450 
1164 217 218 447 
1165 218 219 440 
1166 433 218 440 
1167 218 433 447 
1168 440 219 448 
1169 242 241 440 
1170 241 433 440 
1171 242 440 448 
1172 244 243 437 
1173 437 243 449 
1174 244 437 438 
1175 261 260 441 
1176 260 435 441 
1177 261 441 445 
1178 263 262 436 
1179 436 262 442 
1180 432 263 436 
1181 266 267 434 
1182 266 434 435 
1183 434 267 443 
1184 268 269 439 
1185 268 439 444 
1186 269 438 439 
2 13 2 82
1187 15 175 469 
1188 189 15 470 
1189 271 15 469 
1190 15 271 470 
1191 235 19 469 
1192 19 246 470 
1193 19 271 469 
1194 271 19 470 
1195 20 236 458 
1196 249 20 458 
1197 245 23 456 
1198 23 269 456 
1199 24 250 466 
1200 251 24 464 
1201 464 24 466 
1202 25 252 454 
1203 264 25 454 
1204 258 26 463 
1205 26 265 468 
1206 463 26 468 
1207 27 259 452 
1208 266 27 452 
1209 29 267 467 
1210 268 29 465 
1211 465 29 467 
1212 175 176 457 
1213 175 457 469 
1214 176 177 460 
1215 457 176 458 
1216 458 176 460 
1217 177 178 466 
1218 460 177 466 
1219 178 179 464 
1220 178 464 466 
1221 179 180 453 
1222 179 453 464 
1223 180 181 462 
1224 453 180 454 
1225 454 180 462 
1226 181 182 468 
1227 462 181 468 
1228 182 183 463 
1229 182 463 468 
1230 183 184 451 
1231 183 451 463 
1232 184 185 461 
1233 451 184 452 
1234 452 184 461 
1235 185 186 467 
1236 461 185 467 
1237 186 187 465 
1238 186 465 467 
1239 187 188 455 
1240 187 455 465 
1241 188 189 459 
1242 455 188 456 
1243 456 188 459 
1244 459 189 470 
1245 236 235 457 
1246 457 235 469 
1247 236 457 458 
1248 246 245 459 
1249 245 456 459 
1250 246 459 470 
1251 250 249 460 
1252 249 458 460 
1253 250 460 466 
1254 252 251 453 
1255 453 251 464 
1256 252 453 454 
1257 259 258 451 
1258 451 258 463 
1259 259 451 452 
1260 265 264 462 
1261 264 454 462 
1262 265 462 468 
1263 267 266 461 
1264 266 452 461 
1265 267 461 467 
1266 269 268 455 
1267 455 268 465 
1268 269 455 456 
3 8 4 1171
1269 77 470 271 247 
1270 416 398 11 361 
1271 252 399 396 293 
1272 350 451 259 287 
1273 399 252 453 293 
1274 396 454 252 293 
1275 288 256 427 416 
1276 288 398 256 416 
1277 432 414 12 362 
1278 441 312 435 260 
1279 434 266 435 294 
1280 312 435 260 419 
1281 350 259 335 287 
1282 453 252 454 293 
1283 256 408 288 427 
1284 236 383 284 355 
1285 438 269 277 456 
1286 432 295 414 362 
1287 289 239 397 379 
1288 458 401 249 276 
1289 396 406 253 313 
1290 154 369 295 362 
1291 370 150 273 426 
1292 285 245 381 456 
1293 253 415 396 313 
1294 266 452 435 294 
1295 295 446 369 154 
1296 288 398 408 256 
1297 284 458 383 236 
1298 434 461 266 294 
1299 391 318 449 270 
1300 359 433 157 281 
1301 410 319 390 248 
1302 280 146 360 397 
1303 273 361 150 370 
1304 277 317 269 438 
1305 432 154 295 362 
1306 401 249 276 316 
1307 10 360 397 379 
1308 415 454 25 396 
1309 407 146 280 397 
1310 433 359 13 377 
1311 470 77 394 247 
1312 359 433 314 377 
1313 295 446 154 432 
1314 414 263 296 432 
1315 397 360 315 379 
1316 367 153 272 362 
1317 307 398 416 361 
1318 143 9 393 388 
1319 390 392 21 248 
1320 271 470 19 247 
1321 22 389 391 270 
1322 260 441 312 420 
1323 470 328 77 271 
1324 455 277 317 269 
1325 285 245 380 381 
1326 249 460 276 316 
1327 435 452 27 419 
1328 425 253 406 313 
1329 77 330 469 271 
1330 367 153 424 272 
1331 272 153 414 362 
1332 438 381 23 456 
1333 20 383 401 458 
1334 257 86 26 468 
1335 253 425 415 313 
1336 317 439 455 269 
1337 86 26 463 257 
1338 460 249 402 316 
1339 272 414 295 362 
1340 86 325 429 257 
1341 418 259 451 287 
1342 366 359 157 281 
1343 353 407 280 397 
1344 365 280 146 360 
1345 77 323 394 247 
1346 355 236 383 384 
1347 452 266 461 294 
1348 414 424 153 272 
1349 77 323 328 394 
1350 278 359 314 377 
1351 284 236 355 384 
1352 278 377 387 158 
1353 211 118 445 212 
1354 264 454 415 336 
1355 239 289 386 379 
1356 381 244 339 438 
1357 290 241 376 377 
1358 383 340 238 401 
1359 361 416 307 150 
1360 240 403 411 333 
1361 213 442 119 212 
1362 415 286 264 336 
1363 454 264 286 336 
1364 269 455 277 456 
1365 460 458 249 276 
1366 348 145 378 379 
1367 276 458 401 351 
1368 312 260 420 419 
1369 286 462 264 454 
1370 257 429 86 468 
1371 438 277 352 456 
1372 351 284 383 355 
1373 307 358 398 361 
1374 150 416 307 426 
1375 470 77 328 394 
1376 371 393 159 304 
1377 361 307 273 150 
1378 325 324 86 429 
1379 360 145 348 379 
1380 372 144 388 305 
1381 396 415 454 336 
1382 331 395 14 247 
1383 390 73 392 248 
1384 359 433 281 314 
1385 403 239 397 289 
1386 458 383 401 351 
1387 307 273 150 426 
1388 64 391 389 270 
1389 333 411 240 392 
1390 210 117 441 211 
1391 452 435 335 419 
1392 438 352 381 456 
1393 360 315 280 397 
1394 69 388 167 168 
1395 383 458 284 351 
1396 352 285 381 456 
1397 317 439 269 438 
1398 249 401 402 316 
1399 157 366 281 447 
1400 73 390 319 248 
1401 271 395 77 247 
1402 391 64 318 270 
1403 354 281 433 314 
1404 275 396 399 293 
1405 378 168 70 169 
1406 146 280 365 407 
1407 419 335 452 259 
1408 351 401 276 316 
1409 467 106 186 185 
1410 165 166 67 387 
1411 317 277 352 438 
1412 386 333 240 392 
1413 242 389 334 376 
1414 244 385 381 339 
1415 340 382 383 238 
1416 158 387 347 364 
1417 295 414 296 432 
1418 263 436 296 432 
1419 397 315 289 379 
1420 246 470 329 394 
1421 353 280 315 397 
1422 82 464 178 179 
1423 381 356 285 352 
1424 194 92 195 417 
1425 387 347 278 158 
1426 356 285 380 381 
1427 427 307 288 416 
1428 398 288 307 416 
1429 358 149 398 361 
1430 80 460 176 177 
1431 396 454 293 336 
1432 184 461 185 105 
1433 187 108 455 188 
1434 383 340 351 283 
1435 363 145 378 348 
1436 285 459 245 456 
1437 381 339 282 352 
1438 242 334 440 376 
1439 68 167 393 166 
1440 421 286 264 415 
1441 240 403 333 386 
1442 383 340 401 351 
1443 342 143 393 388 
1444 352 381 339 438 
1445 245 459 285 380 
1446 458 284 457 236 
1447 428 258 463 349 
1448 263 417 414 296 
1449 224 132 225 399 
1450 286 357 462 454 
1451 275 396 415 313 
1452 236 284 457 384 
1453 399 453 301 293 
1454 295 446 291 369 
1455 83 179 180 453 
1456 265 345 429 468 
1457 210 209 434 116 
1458 341 143 393 342 
1459 86 463 26 468 
1460 120 436 213 214 
1461 263 414 12 432 
1462 394 19 470 247 
1463 429 324 86 468 
1464 275 406 396 313 
1465 274 434 435 294 
1466 333 392 73 248 
1467 95 430 198 197 
1468 52 37 53 373 
1469 94 196 430 197 
1470 64 389 334 270 
1471 435 452 274 294 
1472 452 435 274 335 
1473 11 416 361 150 
1474 256 398 11 416 
1475 398 149 11 361 
1476 306 295 369 362 
1477 312 274 435 419 
1478 358 288 307 398 
1479 38 54 53 373 
1480 463 327 326 86 
1481 24 466 405 338 
1482 312 435 274 441 
1483 444 465 29 337 
1484 359 314 347 278 
1485 303 107 465 444 
1486 405 81 466 302 
1487 77 469 395 271 
1488 158 347 359 364 
1489 376 164 66 165 
1490 358 149 409 398 
1491 329 328 323 394 
1492 386 71 170 169 
1493 290 278 314 377 
1494 295 306 272 362 
1495 36 52 51 370 
1496 228 136 229 408 
1497 443 208 115 209 
1498 223 131 224 404 
1499 315 279 289 379 
1500 149 358 368 361 
1501 304 371 393 341 
1502 348 363 145 360 
1503 25 264 454 415 
1504 239 10 397 379 
1505 377 359 13 158 
1506 306 367 272 362 
1507 408 297 288 427 
1508 360 10 145 379 
1509 396 454 25 252 
1510 433 13 241 377 
1511 196 93 424 195 
1512 406 226 133 225 
1513 328 329 470 394 
1514 227 135 228 413 
1515 414 153 12 362 
1516 81 466 177 178 
1517 27 452 435 266 
1518 12 154 432 362 
1519 260 435 27 419 
1520 280 348 315 360 
1521 452 274 294 335 
1522 438 23 269 456 
1523 458 401 20 249 
1524 327 349 463 326 
1525 272 414 296 295 
1526 107 186 187 465 
1527 339 385 381 282 
1528 340 383 382 283 
1529 395 331 77 247 
1530 458 20 383 236 
1531 381 245 23 456 
1532 415 396 275 336 
1533 238 20 383 401 
1534 419 452 27 259 
1535 144 372 363 305 
1536 314 281 359 347 
1537 313 415 275 336 
1538 244 381 23 438 
1539 454 286 357 293 
1540 298 367 424 272 
1541 364 371 159 304 
1542 258 428 418 349 
1543 429 325 324 345 
1544 55 54 39 367 
1545 429 421 345 265 
1546 421 286 462 264 
1547 235 395 332 469 
1548 449 318 7 270 
1549 410 8 319 248 
1550 319 8 73 248 
1551 318 64 7 270 
1552 440 290 241 376 
1553 340 400 238 401 
1554 275 399 301 293 
1555 149 368 358 409 
1556 289 403 239 386 
1557 235 332 457 469 
1558 393 387 159 304 
1559 330 395 331 77 
1560 244 437 339 438 
1561 378 388 144 305 
1562 329 459 470 246 
1563 334 440 448 242 
1564 389 334 448 242 
1565 338 24 466 464 
1566 293 275 396 336 
1567 378 279 348 379 
1568 337 465 29 467 
1569 335 435 274 419 
1570 395 76 332 331 
1571 274 312 335 419 
1572 426 199 96 198 
1573 73 8 333 248 
1574 64 334 7 270 
1575 299 370 273 426 
1576 324 429 345 468 
1577 40 56 55 369 
1578 380 246 329 394 
1579 386 289 279 379 
1580 376 278 290 377 
1581 451 463 258 349 
1582 464 404 251 301 
1583 360 146 10 397 
1584 253 415 25 396 
1585 349 463 428 327 
1586 404 24 405 338 
1587 330 469 395 77 
1588 382 340 400 238 
1589 443 444 29 337 
1590 265 462 345 468 
1591 459 109 189 188 
1592 371 143 393 341 
1593 385 244 437 339 
1594 79 175 176 457 
1595 104 184 451 183 
1596 13 359 433 157 
1597 465 268 303 444 
1598 356 381 282 352 
1599 466 250 405 302 
1600 181 462 84 180 
1601 434 300 461 294 
1602 194 91 422 193 
1603 291 306 295 369 
1604 422 417 262 343 
1605 297 307 288 427 
1606 417 263 436 296 
1607 138 231 230 412 
1608 49 34 50 374 
1609 56 41 57 375 
1610 98 201 200 431 
1611 170 72 392 171 
1612 443 467 267 300 
1613 283 351 383 355 
1614 410 390 21 248 
1615 26 428 463 257 
1616 372 9 143 388 
1617 307 273 358 361 
1618 257 26 429 468 
1619 392 411 21 248 
1620 143 393 9 371 
1621 427 200 97 199 
1622 389 163 65 164 
1623 22 391 449 270 
1624 317 352 339 438 
1625 50 35 51 368 
1626 450 215 122 216 
1627 288 358 409 398 
1628 364 387 347 304 
1629 442 422 262 343 
1630 351 340 401 316 
1631 84 462 357 454 
1632 215 446 121 214 
1633 411 403 142 333 
1634 300 434 274 294 
1635 134 227 226 413 
1636 280 407 353 310 
1637 419 88 335 287 
1638 409 230 137 229 
1639 407 280 365 310 
1640 451 258 418 349 
1641 462 345 421 265 
1642 436 262 417 343 
1643 303 277 317 455 
1644 276 460 302 316 
1645 417 92 414 272 
1646 155 446 291 122 
1647 454 286 293 336 
1648 243 391 318 449 
1649 332 284 355 384 
1650 385 243 391 318 
1651 410 390 319 237 
1652 5 463 86 468 
1653 390 382 319 237 
1654 109 285 277 456 
1655 388 342 372 305 
1656 325 429 102 345 
1657 317 439 303 455 
1658 449 318 243 437 
1659 400 410 319 237 
1660 460 402 302 316 
1661 346 308 445 423 
1662 288 409 137 398 
1663 88 419 418 287 
1664 305 363 378 348 
1665 368 358 35 361 
1666 285 352 277 456 
1667 276 284 458 351 
1668 107 303 114 444 
1669 405 130 81 302 
1670 276 458 284 79 
1671 369 291 41 155 
1672 400 319 382 237 
1673 395 332 384 235 
1674 318 385 243 437 
1675 392 333 411 248 
1676 298 367 272 306 
1677 436 442 262 343 
1678 332 457 384 235 
1679 387 278 347 304 
1680 273 307 299 426 
1681 329 285 380 356 
1682 34 292 368 148 
1683 290 440 334 376 
1684 329 459 246 380 
1685 423 308 445 261 
1686 289 333 403 386 
1687 383 75 283 355 
1688 295 296 436 432 
1689 335 294 452 350 
1690 358 273 35 361 
1691 376 290 278 66 
1692 71 289 279 386 
1693 148 138 292 409 
1694 428 87 349 327 
1695 358 288 409 137 
1696 62 356 381 282 
1697 425 406 309 313 
1698 139 232 231 412 
1699 58 57 42 375 
1700 33 49 48 374 
1701 216 123 450 217 
1702 433 125 314 440 
1703 453 464 251 301 
1704 77 4 330 271 
1705 98 427 297 255 
1706 250 405 302 402 
1707 97 307 297 427 
1708 439 303 268 444 
1709 104 451 452 350 
1710 328 4 77 271 
1711 101 286 415 336 
1712 284 332 457 384 
1713 151 150 370 426 
1714 427 256 408 255 
1715 149 148 368 409 
1716 459 329 285 380 
1717 334 389 65 376 
1718 153 152 367 424 
1719 446 369 154 155 
1720 423 193 90 192 
1721 441 308 312 420 
1722 333 386 72 392 
1723 279 305 378 348 
1724 389 22 448 270 
1725 408 135 297 255 
1726 88 335 312 419 
1727 439 113 207 206 
1728 129 222 221 402 
1729 192 89 420 191 
1730 313 101 415 336 
1731 19 395 271 247 
1732 357 84 454 293 
1733 253 254 425 406 
1734 365 146 407 147 
1735 370 37 151 299 
1736 268 303 455 465 
1737 366 157 156 447 
1738 466 250 302 460 
1739 308 312 274 441 
1740 278 376 66 377 
1741 279 71 386 379 
1742 104 452 294 350 
1743 92 417 296 272 
1744 415 421 286 101 
1745 461 267 467 300 
1746 320 155 291 122 
1747 328 329 110 470 
1748 355 383 75 384 
1749 426 299 151 95 
1750 367 38 298 152 
1751 404 399 251 301 
1752 296 417 414 272 
1753 261 423 308 420 
1754 155 291 41 320 
1755 368 292 358 409 
1756 234 403 141 142 
1757 112 317 339 438 
1758 300 434 116 274 
1759 297 344 98 255 
1760 316 340 401 128 
1761 29 443 337 467 
1762 19 470 246 394 
1763 285 109 459 456 
1764 363 378 144 305 
1765 421 102 429 345 
1766 436 120 296 295 
1767 132 399 301 275 
1768 338 404 24 464 
1769 159 387 364 304 
1770 332 78 469 330 
1771 280 31 348 360 
1772 367 298 39 306 
1773 409 148 138 230 
1774 41 56 369 155 
1775 98 200 427 255 
1776 219 125 440 126 
1777 287 451 418 349 
1778 368 50 34 148 
1779 329 323 61 394 
1780 322 37 151 373 
1781 428 87 418 349 
1782 151 430 95 322 
1783 77 331 3 247 
1784 79 458 284 457 
1785 349 103 463 326 
1786 323 77 3 247 
1787 446 291 369 155 
1788 373 322 38 152 
1789 384 76 332 395 
1790 86 327 6 257 
1791 310 365 407 147 
1792 292 368 148 409 
1793 292 34 321 148 
1794 346 28 422 423 
1795 350 451 287 349 
1796 381 380 356 62 
1797 215 446 155 122 
1798 230 148 138 412 
1799 41 56 155 375 
1800 148 50 34 374 
1801 255 98 200 431 
1802 304 393 68 341 
1803 346 308 423 90 
1804 198 426 151 95 
1805 300 267 443 434 
1806 52 37 151 370 
1807 5 463 326 86 
1808 138 292 321 148 
1809 135 344 297 255 
1810 5 86 324 468 
1811 281 44 359 347 
1812 346 308 118 445 
1813 156 311 366 447 
1814 37 151 299 322 
1815 122 155 215 450 
1816 54 38 367 152 
1817 309 254 99 134 
1818 96 299 307 426 
1819 163 162 391 64 
1820 126 219 17 448 
1821 95 299 151 322 
1822 463 451 103 349 
1823 325 86 6 257 
1824 63 385 339 282 
1825 382 74 340 283 
1826 4 328 470 271 
1827 290 314 125 440 
1828 4 469 330 271 
1829 171 73 390 172 
1830 427 97 307 416 
1831 65 290 334 376 
1832 409 292 358 137 
1833 448 334 389 270 
1834 117 308 274 441 
1835 289 333 386 72 
1836 275 309 406 313 
1837 125 354 433 314 
1838 292 358 35 368 
1839 222 405 130 223 
1840 208 114 207 444 
1841 40 306 291 369 
1842 464 338 404 301 
1843 339 437 112 438 
1844 421 286 345 462 
1845 401 340 400 128 
1846 99 431 344 413 
1847 462 85 345 468 
1848 315 141 353 397 
1849 85 324 345 468 
1850 459 110 329 470 
1851 387 67 278 304 
1852 378 70 305 279 
1853 459 109 188 456 
1854 79 176 458 457 
1855 340 74 382 319 
1856 63 385 318 339 
1857 445 28 346 423 
1858 60 59 44 364 
1859 37 52 151 373 
1860 430 198 151 95 
1861 196 430 152 94 
1862 46 31 47 363 
1863 221 400 220 128 
1864 112 437 205 206 
1865 161 160 380 62 
1866 46 30 31 363 
1867 462 84 180 454 
1868 448 126 440 334 
1869 461 266 267 434 
1870 408 228 135 255 
1871 452 184 451 104 
1872 446 121 295 291 
1873 427 408 297 255 
1874 301 453 83 293 
1875 410 21 390 237 
1876 26 428 258 463 
1877 9 372 144 388 
1878 298 38 322 152 
1879 260 261 441 420 
1880 332 78 457 469 
1881 44 45 60 364 
1882 174 75 173 384 
1883 110 329 285 459 
1884 265 429 26 468 
1885 159 9 393 371 
1886 21 240 411 392 
1887 38 54 373 152 
1888 439 455 269 268 
1889 45 44 347 364 
1890 391 243 22 449 
1891 298 424 93 272 
1892 249 402 250 460 
1893 30 31 363 348 
1894 284 332 78 457 
1895 308 441 445 261 
1896 399 252 251 453 
1897 417 263 262 436 
1898 357 345 286 462 
1899 382 340 319 400 
1900 437 318 385 339 
1901 304 45 371 341 
1902 134 99 344 413 
1903 443 337 467 300 
1904 143 342 372 388 
1905 327 428 6 257 
1906 342 388 69 305 
1907 403 142 333 289 
1908 439 303 455 268 
1909 290 440 126 334 
1910 402 302 250 460 
1911 406 254 425 309 
1912 63 161 162 385 
1913 383 173 75 384 
1914 400 221 401 128 
1915 381 161 380 62 
1916 438 437 112 206 
1917 61 380 329 394 
1918 182 85 181 468 
1919 173 382 74 172 
1920 59 359 44 364 
1921 399 132 396 275 
1922 394 323 3 247 
1923 363 31 47 360 
1924 414 195 92 417 
1925 76 14 3 331 
1926 299 151 370 426 
1927 463 103 183 182 
1928 142 403 141 289 
1929 125 290 440 126 
1930 331 14 3 247 
1931 102 421 286 345 
1932 76 332 355 384 
1933 189 15 110 470 
1934 364 347 45 304 
1935 295 121 446 432 
1936 429 325 6 257 
1937 141 233 403 234 
1938 116 434 435 274 
1939 255 228 135 413 
1940 346 422 28 442 
1941 175 78 15 469 
1942 422 91 417 343 
1943 305 30 363 348 
1944 99 201 431 202 
1945 451 350 103 349 
1946 392 171 73 390 
1947 298 367 152 424 
1948 218 125 440 219 
1949 418 259 258 451 
1950 238 400 382 237 
1951 308 441 261 420 
1952 363 372 30 305 
1953 442 28 346 445 
1954 435 210 434 116 
1955 385 244 243 437 
1956 449 7 318 111 
1957 410 319 8 127 
1958 102 429 16 204 
1959 142 18 234 411 
1960 87 16 428 190 
1961 220 410 18 127 
1962 205 17 449 111 
1963 320 450 123 311 
1964 32 365 280 310 
1965 264 462 421 265 
1966 240 239 403 386 
1967 387 158 159 364 
1968 396 225 132 399 
1969 145 378 144 363 
1970 296 436 417 343 
1971 45 371 364 304 
1972 389 163 391 64 
1973 241 242 440 376 
1974 124 217 218 447 
1975 58 43 59 366 
1976 203 425 202 100 
1977 140 232 407 233 
1978 310 321 33 374 
1979 369 55 40 362 
1980 47 32 48 365 
1981 31 363 348 360 
1982 453 251 399 301 
1983 433 218 125 440 
1984 141 233 397 403 
1985 404 251 24 464 
1986 422 262 28 442 
1987 190 88 191 418 
1988 29 443 467 267 
1989 80 460 302 276 
1990 108 277 303 455 
1991 347 44 359 364 
1992 406 254 309 134 
1993 29 268 465 444 
1994 287 418 87 349 
1995 203 204 421 101 
1996 423 445 28 261 
1997 300 461 267 434 
1998 24 466 250 405 
1999 124 354 311 447 
2000 442 346 422 343 
2001 344 98 255 431 
2002 372 342 30 305 
2003 71 386 379 169 
2004 91 422 346 343 
2005 338 464 82 301 
2006 34 321 148 374 
2007 377 376 66 165 
2008 148 321 138 412 
2009 88 419 191 418 
2010 366 311 43 281 
2011 40 306 369 362 
2012 407 140 353 310 
2013 127 410 319 400 
2014 318 449 111 437 
2015 214 446 121 432 
2016 99 431 254 202 
2017 254 406 226 134 
2018 245 246 459 380 
2019 457 236 384 235 
2020 415 203 421 101 
2021 337 106 467 300 
2022 416 427 97 199 
2023 375 155 41 320 
2024 1 143 341 342 
2025 368 35 51 361 
2026 370 273 36 299 
2027 404 131 399 301 
2028 122 320 155 450 
2029 399 224 131 404 
2030 209 115 443 434 
2031 420 308 312 89 
2032 229 137 409 398 
2033 296 120 436 343 
2034 440 219 126 448 
2035 134 226 254 413 
2036 384 174 76 395 
2037 300 105 461 294 
2038 135 344 255 413 
2039 85 345 357 462 
2040 131 404 338 301 
2041 406 133 309 275 
2042 30 2 1 372 
2043 300 443 115 434 
2044 356 380 329 61 
2045 182 463 5 468 
2046 437 111 318 339 
2047 319 340 127 400 
2048 30 46 2 372 
2049 371 2 45 60 
2050 317 439 113 303 
2051 402 129 302 316 
2052 103 451 463 183 
2053 337 443 115 300 
2054 181 85 462 468 
2055 309 100 425 313 
2056 411 142 8 333 
2057 142 8 18 411 
2058 410 8 18 127 
2059 17 7 449 111 
2060 373 430 322 152 
2061 136 297 288 408 
2062 15 4 470 271 
2063 151 430 322 373 
2064 4 15 469 271 
2065 417 194 91 422 
2066 19 395 469 271 
2067 19 395 235 469 
2068 342 30 1 372 
2069 376 389 65 164 
2070 72 386 170 392 
2071 6 16 429 257 
2072 143 1 2 372 
2073 16 6 428 257 
2074 394 3 14 247 
2075 333 8 411 248 
2076 204 102 429 421 
2077 142 234 403 411 
2078 428 87 190 418 
2079 127 220 410 400 
2080 449 205 111 437 
2081 61 160 380 394 
2082 1 143 342 372 
2083 442 119 346 343 
2084 389 448 22 242 
2085 459 189 110 470 
2086 78 175 457 469 
2087 30 46 372 363 
2088 60 45 371 364 
2089 411 8 18 248 
2090 410 18 8 248 
2091 449 7 17 270 
2092 431 255 344 413 
2093 412 148 321 374 
2094 320 375 155 450 
2095 450 375 155 156 
2096 431 254 255 413 
2097 373 151 430 152 
2098 148 412 147 374 
2099 96 95 426 198 
2100 426 95 96 299 
2101 424 93 414 195 
2102 424 414 93 272 
2103 92 414 93 195 
2104 92 93 414 272 
2105 37 36 370 52 
2106 370 36 37 299 
2107 133 132 396 225 
2108 396 132 133 275 
2109 396 406 133 225 
2110 133 406 396 275 
2111 117 441 435 210 
2112 435 441 117 274 
2113 435 116 117 210 
2114 117 116 435 274 
2115 133 134 406 309 
2116 406 134 133 226 
2117 135 136 408 297 
2118 408 136 135 228 
2119 70 378 379 279 
2120 379 378 70 169 
2121 379 71 70 279 
2122 70 71 379 169 
2123 67 387 377 165 
2124 377 387 67 278 
2125 377 66 67 165 
2126 67 66 377 278 
2127 39 38 367 54 
2128 39 367 38 298 
2129 120 436 432 295 
2130 432 436 120 214 
2131 432 121 120 295 
2132 120 121 432 214 
2133 139 138 412 231 
2134 139 412 138 321 
2135 34 33 374 49 
2136 34 374 33 321 
2137 96 426 416 199 
2138 416 426 96 307 
2139 416 97 96 199 
2140 96 97 416 307 
2141 42 41 375 57 
2142 42 375 41 320 
2143 132 131 399 224 
2144 132 399 131 301 
2145 116 115 434 300 
2146 116 434 115 209 
2147 123 122 450 320 
2148 123 450 122 216 
2149 106 467 465 337 
2150 465 467 106 186 
2151 465 107 106 337 
2152 106 107 465 186 
2153 114 115 443 208 
2154 443 115 114 337 
2155 443 444 114 208 
2156 114 444 443 337 
2157 82 81 464 338 
2158 82 464 81 178 
2159 466 464 81 338 
2160 466 81 464 178 
2161 99 98 431 201 
2162 99 431 98 344 
2163 131 130 404 223 
2164 131 404 130 338 
2165 405 404 130 223 
2166 405 130 404 338 
2167 41 40 369 56 
2168 41 369 40 291 
2169 138 137 409 230 
2170 409 137 138 292 
2171 35 34 368 50 
2172 368 34 35 292 
2173 466 81 460 302 
2174 466 460 81 177 
2175 80 460 81 302 
2176 80 81 460 177 
2177 465 107 455 187 
2178 465 455 107 303 
2179 108 455 107 187 
2180 108 107 455 303 
2181 122 121 446 291 
2182 122 446 121 215 
2183 106 467 461 185 
2184 461 467 106 300 
2185 461 105 106 185 
2186 106 105 461 300 
2187 97 98 427 297 
2188 427 98 97 200 
2189 72 71 386 289 
2190 72 386 71 170 
2191 65 66 376 164 
2192 376 66 65 290 
2193 82 83 453 179 
2194 453 83 82 301 
2195 453 464 82 179 
2196 82 464 453 301 
2197 80 79 458 276 
2198 458 79 80 176 
2199 458 460 80 276 
2200 80 460 458 176 
2201 109 108 456 277 
2202 109 456 108 188 
2203 455 456 108 277 
2204 455 108 456 188 
2205 105 104 452 294 
2206 452 104 105 184 
2207 452 461 105 294 
2208 105 461 452 184 
2209 72 73 392 171 
2210 392 73 72 333 
2211 64 65 389 163 
2212 64 389 65 334 
2213 423 90 422 346 
2214 423 422 90 193 
2215 91 422 90 346 
2216 91 90 422 193 
2217 259 350 452 451 
2218 452 350 259 335 
2219 447 281 433 354 
2220 447 433 281 157 
2221 327 257 463 428 
2222 463 257 327 86 
2223 453 83 454 180 
2224 453 454 83 293 
2225 84 454 83 180 
2226 84 83 454 293 
2227 84 85 462 181 
2228 84 462 85 357 
2229 278 158 359 377 
2230 359 158 278 347 
2231 140 147 407 232 
2232 407 147 140 310 
2233 139 412 147 232 
2234 140 139 147 232 
2235 147 139 140 310 
2236 43 156 366 58 
2237 366 156 43 311 
2238 42 375 156 58 
2239 43 42 156 58 
2240 156 42 43 311 
2241 147 32 365 48 
2242 147 365 32 310 
2243 374 33 147 48 
2244 374 147 33 310 
2245 33 32 147 48 
2246 33 147 32 310 
2247 156 123 450 311 
2248 156 450 123 217 
2249 447 124 156 311 
2250 447 156 124 217 
2251 124 123 156 311 
2252 124 156 123 217 
2253 419 287 259 418 
2254 259 287 419 335 
2255 393 342 68 341 
2256 348 379 315 360 
2257 315 379 348 279 
2258 63 64 391 162 
2259 391 64 63 318 
2260 391 385 63 162 
2261 63 385 391 318 
2262 73 74 390 172 
2263 73 390 74 319 
2264 382 390 74 172 
2265 382 74 390 319 
2266 444 107 337 114 
2267 444 337 107 465 
2268 81 405 338 130 
2269 338 405 81 466 
2270 89 90 423 308 
2271 423 90 89 192 
2272 423 420 89 308 
2273 89 420 423 192 
2274 281 447 311 354 
2275 311 447 281 366 
2276 114 113 444 303 
2277 114 444 113 207 
2278 439 444 113 303 
2279 439 113 444 207 
2280 402 129 405 302 
2281 402 405 129 222 
2282 130 405 129 302 
2283 130 129 405 222 
2284 76 14 395 174 
2285 76 395 14 331 
2286 140 141 407 353 
2287 140 407 141 233 
2288 397 407 141 353 
2289 397 141 407 233 
2290 359 44 366 59 
2291 359 366 44 281 
2292 43 366 44 59 
2293 43 44 366 281 
2294 104 103 451 350 
2295 451 103 104 183 
2296 32 31 365 47 
2297 32 365 31 280 
2298 360 365 31 47 
2299 360 31 365 280 
2300 394 14 61 160 
2301 112 438 439 317 
2302 439 438 112 206 
2303 439 113 112 317 
2304 112 113 439 206 
2305 433 125 447 354 
2306 433 447 125 218 
2307 124 447 125 354 
2308 124 125 447 218 
2309 128 401 402 221 
2310 402 401 128 316 
2311 402 129 128 221 
2312 128 129 402 316 
2313 419 88 420 312 
2314 419 420 88 191 
2315 89 420 88 312 
2316 89 88 420 191 
2317 62 63 385 161 
2318 385 63 62 282 
2319 385 381 62 161 
2320 62 381 385 282 
2321 74 75 382 173 
2322 74 382 75 283 
2323 383 382 75 173 
2324 383 75 382 283 
2325 101 100 425 203 
2326 425 100 101 313 
2327 425 415 101 203 
2328 101 415 425 313 
2329 421 102 101 204 
2330 101 102 421 286 
2331 440 314 241 290 
2332 440 241 314 433 
2333 377 241 314 290 
2334 377 314 241 433 
2335 289 397 141 315 
2336 289 141 397 403 
2337 100 99 254 202 
2338 254 99 100 309 
2339 254 425 100 202 
2340 100 425 254 309 
2341 417 91 296 343 
2342 270 7 448 334 
2343 270 448 7 17 
2344 126 448 7 334 
2345 126 7 448 17 
2346 102 6 429 325 
2347 102 429 6 16 
2348 330 395 332 331 
2349 330 332 395 469 
2350 94 152 322 430 
2351 94 322 152 298 
2352 109 110 459 189 
2353 109 459 110 285 
2354 78 79 457 175 
2355 457 79 78 284 
2356 99 413 254 431 
2357 254 413 99 134 
2358 76 75 384 355 
2359 384 75 76 174 
2360 87 6 428 16 
2361 87 428 6 327 
2362 5 85 468 324 
2363 5 468 85 182 
2364 103 5 463 326 
2365 103 463 5 182 
2366 111 112 437 205 
2367 437 112 111 339 
2368 128 127 400 220 
2369 128 400 127 340 
2370 62 61 380 356 
2371 62 380 61 160 
2372 88 87 418 190 
2373 88 418 87 287 
2374 4 110 470 328 
2375 470 110 4 15 
2376 4 78 469 15 
2377 469 78 4 330 
2378 143 1 371 2 
2379 143 371 1 341 
2380 45 371 1 2 
2381 45 1 371 341 
2382 3 394 61 323 
2383 61 394 3 14 
2384 36 35 361 51 
2385 361 35 36 273 
2386 361 370 36 51 
2387 36 370 361 273 
2388 68 393 387 166 
2389 387 393 68 304 
2390 387 67 68 166 
2391 68 67 387 304 
2392 136 408 398 229 
2393 398 408 136 288 
2394 398 137 136 229 
2395 136 137 398 288 
2396 38 37 373 53 
2397 38 373 37 322 
2398 40 39 362 55 
2399 40 362 39 306 
2400 367 362 39 55 
2401 367 39 362 306 
2402 94 152 424 298 
2403 424 152 94 196 
2404 424 93 94 298 
2405 94 93 424 196 
2406 94 95 430 322 
2407 430 95 94 197 
2408 119 120 436 213 
2409 436 120 119 343 
2410 436 442 119 213 
2411 119 442 436 343 
2412 69 70 378 168 
2413 378 70 69 305 
2414 378 388 69 168 
2415 69 388 378 305 
2416 118 445 441 211 
2417 441 445 118 308 
2418 441 117 118 211 
2419 118 117 441 308 
2420 118 445 442 346 
2421 442 445 118 212 
2422 442 119 118 346 
2423 118 119 442 212 
2424 134 135 413 344 
2425 134 413 135 227 
2426 68 69 388 167 
2427 388 69 68 342 
2428 388 393 68 167 
2429 68 393 388 342 
2430 92 91 417 194 
2431 92 417 91 296 
2432 139 321 374 412 
2433 374 321 139 310 
2434 374 147 139 412 
2435 139 147 374 310 
2436 42 320 450 375 
2437 450 320 42 311 
2438 450 156 42 375 
2439 42 156 450 311 
$EndElements
