$MeshFormat
4.1 0 8
$EndMeshFormat
$Entities
16 24 13 2
1 0 0 0 0 
2 0 0 1 0 
3 0 1 1 0 
4 0 1 0 0 
5 1 0 0 0 
6 1 0 1 0 
7 1 1 1 0 
8 1 1 0 0 
9 0.25 0.25 0 0 
10 0.75 0.25 0 0 
11 0.75 0.75 0 0 
12 0.25 0.75 0 0 
13 0 0 -1 0 
14 0 1 -1 0 
15 1 0 -1 0 
16 1 1 -1 0 
1 -1e-07 -1e-07 -9.999999994736442e-08 1e-07 1e-07 1.0000001 0 2 1 -2 
2 -1e-07 -9.999999994736442e-08 0.9999999000000001 1e-07 1.0000001 1.0000001 0 2 2 -3 
3 -1e-07 0.9999999000000001 -9.999999994736442e-08 1e-07 1.0000001 1.0000001 0 2 4 -3 
4 -1e-07 -9.999999994736442e-08 -1e-07 1e-07 1.0000001 1e-07 0 2 1 -4 
5 0.9999999000000001 -1e-07 -9.999999994736442e-08 1.0000001 1e-07 1.0000001 0 2 5 -6 
6 0.9999999000000001 -9.999999994736442e-08 0.9999999000000001 1.0000001 1.0000001 1.0000001 0 2 6 -7 
7 0.9999999000000001 0.9999999000000001 -9.999999994736442e-08 1.0000001 1.0000001 1.0000001 0 2 8 -7 
8 0.9999999000000001 -9.999999994736442e-08 -1e-07 1.0000001 1.0000001 1e-07 0 2 5 -8 
9 -9.999999994736442e-08 -1e-07 -1e-07 1.0000001 1e-07 1e-07 0 2 1 -5 
10 -9.999999994736442e-08 -1e-07 0.9999999000000001 1.0000001 1e-07 1.0000001 0 2 2 -6 
11 -9.999999994736442e-08 0.9999999000000001 -1e-07 1.0000001 1.0000001 1e-07 0 2 4 -8 
12 -9.999999994736442e-08 0.9999999000000001 0.9999999000000001 1.0000001 1.0000001 1.0000001 0 2 3 -7 
13 0.2499999 0.2499999 -1e-07 0.7500000999999999 0.2500001 1e-07 0 2 9 -10 
14 0.7499999000000001 0.2499999 -1e-07 0.7500000999999999 0.7500000999999999 1e-07 0 2 10 -11 
15 0.2499999 0.7499999000000001 -1e-07 0.7500000999999999 0.7500000999999999 1e-07 0 2 11 -12 
16 0.2499999 0.2499999 -1e-07 0.2500001 0.7500000999999999 1e-07 0 2 12 -9 
17 -1e-07 -1e-07 -1.0000001 1e-07 1e-07 9.999999994736442e-08 0 2 13 -1 
18 -1e-07 0.9999999000000001 -1.0000001 1e-07 1.0000001 9.999999994736442e-08 0 2 14 -4 
19 -1e-07 -9.999999994736442e-08 -1.0000001 1e-07 1.0000001 -0.9999999000000001 0 2 13 -14 
20 0.9999999000000001 -1e-07 -1.0000001 1.0000001 1e-07 9.999999994736442e-08 0 2 15 -5 
21 0.9999999000000001 0.9999999000000001 -1.0000001 1.0000001 1.0000001 9.999999994736442e-08 0 2 16 -8 
22 0.9999999000000001 -9.999999994736442e-08 -1.0000001 1.0000001 1.0000001 -0.9999999000000001 0 2 15 -16 
23 -9.999999994736442e-08 -1e-07 -1.0000001 1.0000001 1e-07 -0.9999999000000001 0 2 13 -15 
24 -9.999999994736442e-08 0.9999999000000001 -1.0000001 1.0000001 1.0000001 -0.9999999000000001 0 2 14 -16 
13 0.2499999 0.2499999 -1e-07 0.7500000999999999 0.7500000999999999 1e-07 1 1 4 13 14 15 16 
14 -1e-07 -9.999999994736442e-08 -9.999999994736442e-08 1e-07 1.0000001 1.0000001 0 4 -1 4 3 -2 
15 0.9999999000000001 -9.999999994736442e-08 -9.999999994736442e-08 1.0000001 1.0000001 1.0000001 0 4 -5 8 7 -6 
16 -9.999999994736442e-08 -1e-07 -9.999999994736442e-08 1.0000001 1e-07 1.0000001 0 4 -9 1 10 -5 
17 -9.999999994736442e-08 0.9999999000000001 -9.999999994736442e-08 1.0000001 1.0000001 1.0000001 0 4 -11 3 12 -7 
18 -9.999999994736442e-08 -9.999999994736442e-08 -1e-07 1.0000001 1.0000001 1e-07 0 8 -4 9 8 -11 -13 -16 -15 -14 
19 -9.999999994736442e-08 -9.999999994736442e-08 0.9999999000000001 1.0000001 1.0000001 1.0000001 0 4 -2 10 6 -12 
20 -1e-07 -9.999999994736442e-08 -1.0000001 1e-07 1.0000001 9.999999994736442e-08 0 4 -17 19 18 -4 
21 0.9999999000000001 -9.999999994736442e-08 -1.0000001 1.0000001 1.0000001 9.999999994736442e-08 0 4 -20 22 21 -8 
22 -9.999999994736442e-08 -1e-07 -1.0000001 1.0000001 1e-07 9.999999994736442e-08 0 4 -23 17 9 -20 
23 -9.999999994736442e-08 0.9999999000000001 -1.0000001 1.0000001 1.0000001 9.999999994736442e-08 0 4 -24 18 11 -21 
24 -9.999999994736442e-08 -9.999999994736442e-08 -1.0000001 1.0000001 1.0000001 -0.9999999000000001 0 4 -19 23 22 -24 
25 0.25 0.25 0 0.75 0.75 0 1 1 0 
1 -9.999999994736442e-08 -9.999999994736442e-08 -9.999999994736442e-08 1.0000001 1.0000001 1.0000001 0 7 -14 15 -16 17 -18 -13 19 
2 -9.999999994736442e-08 -9.999999994736442e-08 -1.0000001 1.0000001 1.0000001 9.999999994736442e-08 0 7 -20 21 -22 23 -24 18 13 
$EndEntities
$Nodes
55 448 1 526
0 1 0 1
21
0 0 0
0 2 0 1
22
0 0 1
0 3 0 1
23
0 1 1
0 4 0 1
24
0 1 0
0 5 0 1
25
1 0 0
0 6 0 1
26
1 0 1
0 7 0 1
27
1 1 1
0 8 0 1
28
1 1 0
0 9 0 1
1
0.25 0.25 0
0 10 0 1
2
0.75 0.25 0
0 11 0 1
3
0.75 0.75 0
0 12 0 1
4
0.25 0.75 0
0 13 0 1
29
0 0 -1
0 14 0 1
30
0 1 -1
0 15 0 1
31
1 0 -1
0 16 0 1
32
1 1 -1
1 1 0 4
33
34
35
36
0 0 0.2000000000000005
0 0 0.4000000000000012
0 0 0.6000000000000011
0 0 0.8000000000000004
1 2 0 4
37
38
39
40
0 0.2000000000000005 1
0 0.4000000000000012 1
0 0.6000000000000011 1
0 0.8000000000000004 1
1 3 0 4
41
42
43
44
0 1 0.2000000000000005
0 1 0.4000000000000012
0 1 0.6000000000000011
0 1 0.8000000000000004
1 4 0 4
45
46
47
48
0 0.2000000000000005 0
0 0.4000000000000012 0
0 0.6000000000000011 0
0 0.8000000000000004 0
1 5 0 4
49
50
51
52
1 0 0.2000000000000005
1 0 0.4000000000000012
1 0 0.6000000000000011
1 0 0.8000000000000004
1 6 0 4
53
54
55
56
1 0.2000000000000005 1
1 0.4000000000000012 1
1 0.6000000000000011 1
1 0.8000000000000004 1
1 7 0 4
57
58
59
60
1 1 0.2000000000000005
1 1 0.4000000000000012
1 1 0.6000000000000011
1 1 0.8000000000000004
1 8 0 4
61
62
63
64
1 0.2000000000000005 0
1 0.4000000000000012 0
1 0.6000000000000011 0
1 0.8000000000000004 0
1 9 0 4
65
66
67
68
0.2000000000000005 0 0
0.4000000000000012 0 0
0.6000000000000011 0 0
0.8000000000000004 0 0
1 10 0 4
69
70
71
72
0.2000000000000005 0 1
0.4000000000000012 0 1
0.6000000000000011 0 1
0.8000000000000004 0 1
1 11 0 4
73
74
75
76
0.2000000000000005 1 0
0.4000000000000012 1 0
0.6000000000000011 1 0
0.8000000000000004 1 0
1 12 0 4
77
78
79
80
0.2000000000000005 1 1
0.4000000000000012 1 1
0.6000000000000011 1 1
0.8000000000000004 1 1
1 13 0 2
5
6
0.4166666666666672 0.25 0
0.5833333333333337 0.25 0
1 14 0 2
7
8
0.75 0.4166666666666672 0
0.75 0.5833333333333337 0
1 15 0 2
9
10
0.5833333333333328 0.75 0
0.4166666666666662 0.75 0
1 16 0 2
11
12
0.25 0.5833333333333328 0
0.25 0.4166666666666662 0
1 17 0 4
81
82
83
84
0 0 -0.7999999999999995
0 0 -0.5999999999999988
0 0 -0.3999999999999989
0 0 -0.1999999999999996
1 18 0 4
85
86
87
88
0 1 -0.7999999999999995
0 1 -0.5999999999999988
0 1 -0.3999999999999989
0 1 -0.1999999999999996
1 19 0 4
89
90
91
92
0 0.2000000000000005 -1
0 0.4000000000000012 -1
0 0.6000000000000011 -1
0 0.8000000000000004 -1
1 20 0 4
93
94
95
96
1 0 -0.7999999999999995
1 0 -0.5999999999999988
1 0 -0.3999999999999989
1 0 -0.1999999999999996
1 21 0 4
97
98
99
100
1 1 -0.7999999999999995
1 1 -0.5999999999999988
1 1 -0.3999999999999989
1 1 -0.1999999999999996
1 22 0 4
101
102
103
104
1 0.2000000000000005 -1
1 0.4000000000000012 -1
1 0.6000000000000011 -1
1 0.8000000000000004 -1
1 23 0 4
105
106
107
108
0.2000000000000005 0 -1
0.4000000000000012 0 -1
0.6000000000000011 0 -1
0.8000000000000004 0 -1
1 24 0 4
109
110
111
112
0.2000000000000005 1 -1
0.4000000000000012 1 -1
0.6000000000000011 1 -1
0.8000000000000004 1 -1
2 13 0 8
13
14
15
16
17
18
19
20
0.5000000000000003 0.3975958531482584 0
0.4999999999999997 0.6025253123575893 0
0.3737199591419476 0.5000201942509743 0
0.6262800408580524 0.5000201942509749 0
0.6288401225741571 0.3711598774258431 0
0.3711598774258428 0.6288401225741569 0
0.3711598774258427 0.3711598774258424 0
0.6288401225741573 0.6288401225741576 0
2 14 0 25
113
114
115
116
117
118
119
120
121
122
123
124
125
126
127
128
129
130
131
132
133
134
135
136
137
0 0.841919189377303 0.5118616330494624
0 0.1732050807568876 0.5000000000000009
0 0.5096679054948587 0.1627551561799213
0 0.5096679054948587 0.837244843820079
0 0.1693544090111665 0.3008474738561761
0 0.3294192907182881 0.3964399829492922
0 0.3272292575433273 0.603107926518287
0 0.5196152422706625 0.5000000000000014
0 0.808398670118904 0.3180797153162083
0 0.1696224431583173 0.6995294979934676
0 0.8517369372914836 0.69992182039465
0 0.3161392851942852 0.1881003643263492
0 0.3141341159705221 0.817765603722526
0 0.6938098008002903 0.1619694349435562
0 0.7056570145200738 0.808740390914543
0 0.6104699881772514 0.3204336302725384
0 0.5995233931640572 0.6642088467555496
0 0.6732050807568877 0.4695476994102639
0 0.8535898384862239 0.1464101615137765
0 0.8535898384862248 0.8535898384862248
0 0.1464101615137758 0.1464101615137758
0 0.1464101615137754 0.8535898384862249
0 0.4581232296219056 0.3102497757852792
0 0.4581232296219058 0.6897502242147215
0 0.7272421105029145 0.6092319435393559
2 15 0 24
138
139
140
141
142
143
144
145
146
147
148
149
150
151
152
153
154
155
156
157
158
159
160
161
1 0.4919480156549873 0.8664914703891411
1 0.498365396477446 0.1722613419731219
1 0.1627551561799213 0.5096679054948587
1 0.8353496491679775 0.5097003107361789
1 0.300748190357479 0.1692970876564672
1 0.3961510017790837 0.3292524473618772
1 0.6002001112663662 0.3244789240128376
1 0.5000000000000018 0.5196152422706624
1 0.8146994615203914 0.3108503988504246
1 0.8305769126984418 0.6998155066104454
1 0.3152349128312833 0.8119089959777378
1 0.1880448979450771 0.3161072616641266
1 0.6944758012917381 0.1590001377250267
1 0.6841077734650955 0.8254759084129466
1 0.161630767981065 0.6942276967358656
1 0.6682131676626107 0.6143356522006981
1 0.3199030520313025 0.6111246918096528
1 0.4765812585689351 0.6823037842710271
1 0.8535898384862239 0.1464101615137765
1 0.1464101615137761 0.1464101615137761
1 0.146410161513776 0.8535898384862243
1 0.8535898384862248 0.8535898384862248
1 0.6896969712338843 0.4582018644170685
1 0.3102497757852794 0.4581232296219057
2 16 0 24
162
163
164
165
166
167
168
169
170
171
172
173
174
175
176
177
178
179
180
181
182
183
184
185
0.8664914703891411 0 0.4919480156549873
0.1722613419731219 0 0.498365396477446
0.5096679054948587 0 0.1627551561799213
0.5097003107361789 0 0.8353496491679775
0.1692970876564672 0 0.300748190357479
0.3292524473618772 0 0.3961510017790837
0.3244789240128376 0 0.6002001112663662
0.5196152422706624 0 0.5000000000000018
0.3108503988504246 0 0.8146994615203914
0.6998155066104454 0 0.8305769126984418
0.8119089959777378 0 0.3152349128312833
0.3161072616641266 0 0.1880448979450771
0.1590001377250267 0 0.6944758012917381
0.8254759084129466 0 0.6841077734650955
0.6942276967358656 0 0.161630767981065
0.6143356522006981 0 0.6682131676626107
0.6111246918096528 0 0.3199030520313025
0.6823037842710271 0 0.4765812585689351
0.1464101615137765 0 0.8535898384862239
0.1464101615137761 0 0.1464101615137761
0.8535898384862243 0 0.146410161513776
0.8535898384862248 0 0.8535898384862248
0.4582018644170685 0 0.6896969712338843
0.4581232296219057 0 0.3102497757852794
2 17 0 24
186
187
188
189
190
191
192
193
194
195
196
197
198
199
200
201
202
203
204
205
206
207
208
209
0.8664914703891411 1 0.4919480156549873
0.1722613419731219 1 0.498365396477446
0.5096679054948587 1 0.1627551561799213
0.5097003107361789 1 0.8353496491679775
0.1692970876564672 1 0.300748190357479
0.3292524473618772 1 0.3961510017790837
0.3244789240128376 1 0.6002001112663662
0.5196152422706622 1 0.5000000000000018
0.3108503988504245 1 0.8146994615203914
0.6998155066104454 1 0.8305769126984418
0.8119089959777378 1 0.3152349128312833
0.3161072616641266 1 0.1880448979450771
0.1590001377250267 1 0.6944758012917381
0.8254759084129466 1 0.6841077734650955
0.6942276967358656 1 0.161630767981065
0.6143356522006981 1 0.6682131676626107
0.6111246918096528 1 0.3199030520313025
0.6823037842710271 1 0.4765812585689351
0.1464101615137765 1 0.8535898384862239
0.1464101615137761 1 0.1464101615137761
0.8535898384862243 1 0.146410161513776
0.8535898384862248 1 0.8535898384862248
0.4582018644170684 1 0.6896969712338843
0.4581232296219057 1 0.3102497757852794
2 18 0 16
210
211
212
213
214
215
216
217
218
219
220
221
222
223
224
225
0.8733333333333333 0.5000000000000006 0
0.5000000000000004 0.1266666666666666 0
0.1266666666666666 0.5000000000000001 0
0.5 0.8733333333333332 0
0.1280555555555555 0.3180555555555558 0
0.3180555555555558 0.8719444444444444 0
0.318055555555556 0.1280555555555555 0
0.8719444444444444 0.318055555555556 0
0.6819444444444449 0.1280555555555556 0
0.8719444444444444 0.6819444444444447 0
0.1280555555555556 0.6819444444444446 0
0.6819444444444446 0.8719444444444444 0
0.8563328165733413 0.8563328165733413 0
0.8563328165733415 0.1436671834266588 0
0.149351851851852 0.8506481481481482 0
0.1436671834266586 0.1436671834266586 0
2 19 0 24
226
227
228
229
230
231
232
233
234
235
236
237
238
239
240
241
242
243
244
245
246
247
248
249
0.4919480156549873 0.8664914703891411 1
0.498365396477446 0.1722613419731219 1
0.1627551561799213 0.5096679054948587 1
0.8353496491679775 0.5097003107361789 1
0.300748190357479 0.1692970876564672 1
0.3961510017790837 0.3292524473618772 1
0.6002001112663662 0.3244789240128376 1
0.5000000000000018 0.5196152422706622 1
0.8146994615203914 0.3108503988504245 1
0.8305769126984418 0.6998155066104454 1
0.3152349128312833 0.8119089959777378 1
0.1880448979450771 0.3161072616641266 1
0.6944758012917381 0.1590001377250267 1
0.6841077734650955 0.8254759084129466 1
0.161630767981065 0.6942276967358656 1
0.6682131676626107 0.6143356522006981 1
0.3199030520313025 0.6111246918096528 1
0.4765812585689351 0.6823037842710271 1
0.8535898384862239 0.1464101615137765 1
0.1464101615137761 0.1464101615137761 1
0.146410161513776 0.8535898384862243 1
0.8535898384862248 0.8535898384862248 1
0.6896969712338843 0.4582018644170684 1
0.3102497757852794 0.4581232296219057 1
2 20 0 24
250
251
252
253
254
255
256
257
258
259
260
261
262
263
264
265
266
267
268
269
270
271
272
273
0 0.8664914703891413 -0.4919480156549855
0 0.1722613419731219 -0.4983653964774439
0 0.5097003107361788 -0.8353496491679773
0 0.5096679054948587 -0.162755156179921
0 0.1692970876564671 -0.3007481903574771
0 0.3292524473618773 -0.396151001779082
0 0.3244789240128376 -0.600200111266365
0 0.5196152422706622 -0.4999999999999992
0 0.3108503988504245 -0.8146994615203911
0 0.8119089959777379 -0.315234912831282
0 0.6998155066104454 -0.8305769126984417
0 0.1590001377250267 -0.694475801291737
0 0.8254759084129462 -0.6841077734650942
0 0.3161072616641266 -0.1880448979450764
0 0.6942276967358656 -0.1616307679810646
0 0.614335652200698 -0.6682131676626097
0 0.6111246918096529 -0.3199030520313014
0 0.6823037842710272 -0.4765812585689334
0 0.8535898384862248 -0.1464101615137752
0 0.1464101615137761 -0.8535898384862239
0 0.853589838486225 -0.8535898384862248
0 0.1464101615137754 -0.1464101615137751
0 0.4582018644170682 -0.6896969712338834
0 0.4581232296219057 -0.3102497757852786
2 21 0 25
274
275
276
277
278
279
280
281
282
283
284
285
286
287
288
289
290
291
292
293
294
295
296
297
298
1 0.4983653964774458 -0.1722613419731219
1 0.5118616330494623 -0.8419191893773028
1 0.1627551561799211 -0.5096679054948572
1 0.8363011050363138 -0.5080333019723018
1 0.3007481903574786 -0.1692970876564674
1 0.3961510017790834 -0.329252447361877
1 0.6002089867631725 -0.3244658182136433
1 0.500000000000002 -0.5196152422706626
1 0.3180797153162082 -0.8083986701189034
1 0.69992182039465 -0.8517369372914831
1 0.8148028884944714 -0.3106709346301955
1 0.1619694349435562 -0.6938098008002891
1 0.808605571088291 -0.7054234997311362
1 0.1880448979450768 -0.3161072616641257
1 0.6944945183702194 -0.1589680427217893
1 0.3204336302725381 -0.6104699881772507
1 0.6641620538129389 -0.5994423454100165
1 0.469547699410263 -0.6732050807568875
1 0.146410161513776 -0.1464101615137757
1 0.1464101615137761 -0.8535898384862238
1 0.8535898384862248 -0.1464101615137752
1 0.853589838486225 -0.8535898384862248
1 0.3102497757852787 -0.4581232296219041
1 0.6880178165217447 -0.4566452774346543
1 0.6092224884805859 -0.7272257338607342
2 22 0 24
299
300
301
302
303
304
305
306
307
308
309
310
311
312
313
314
315
316
317
318
319
320
321
322
0.8676239569296597 0 -0.5060815484130829
0.1722613419731219 0 -0.4983653964774438
0.5097003107361787 0 -0.835349649167977
0.5113349142587341 0 -0.1637066120482571
0.1692970876564669 0 -0.3007481903574771
0.3292655531610711 0 -0.3961598772758882
0.324481108312703 0 -0.6002015905158324
0.5196152422706624 0 -0.4999999999999986
0.6998864233952293 0 -0.1693821434767732
0.3108506217381657 0 -0.8146996124642143
0.6998155066104454 0 -0.8305769126984415
0.1590005389229611 0 -0.6944760729906189
0.3163585115724453 0 -0.1881896957087877
0.8134620546833169 0 -0.6842095895644171
0.8275153573879347 0 -0.3140773139059763
0.6123333432457597 0 -0.6783734774550227
0.6106855812483951 0 -0.3312774089966579
0.6824028564763969 0 -0.5231005821122153
0.8535898384862248 0 -0.1464101615137752
0.1464101615137758 0 -0.8535898384862242
0.8535898384862249 0 -0.8535898384862246
0.1464101615137752 0 -0.146410161513775
0.4582018644170681 0 -0.6896969712338836
0.4582018644170686 0 -0.3103030287661158
2 23 0 24
323
324
325
326
327
328
329
330
331
332
333
334
335
336
337
338
339
340
341
342
343
344
345
346
0.8676239569296597 1 -0.5060815484130829
0.1722613419731219 1 -0.4983653964774438
0.5097003107361787 1 -0.835349649167977
0.5113349142587341 1 -0.1637066120482571
0.1692970876564669 1 -0.3007481903574771
0.3292655531610711 1 -0.3961598772758882
0.324481108312703 1 -0.6002015905158324
0.5196152422706624 1 -0.4999999999999986
0.6998864233952293 1 -0.1693821434767732
0.3108506217381657 1 -0.8146996124642143
0.6998155066104454 1 -0.8305769126984415
0.1590005389229611 1 -0.6944760729906189
0.3163585115724453 1 -0.1881896957087877
0.8134620546833169 1 -0.6842095895644171
0.8275153573879347 1 -0.3140773139059763
0.6123333432457597 1 -0.6783734774550227
0.6106855812483951 1 -0.3312774089966579
0.6824028564763969 1 -0.5231005821122153
0.8535898384862248 1 -0.1464101615137752
0.1464101615137758 1 -0.8535898384862242
0.8535898384862249 1 -0.8535898384862246
0.1464101615137752 1 -0.146410161513775
0.4582018644170681 1 -0.6896969712338836
0.4582018644170686 1 -0.3103030287661158
2 24 0 24
347
348
349
350
351
352
353
354
355
356
357
358
359
360
361
362
363
364
365
366
367
368
369
370
0.4919480156549873 0.8664914703891411 -1
0.498365396477446 0.1722613419731219 -1
0.1627551561799213 0.5096679054948587 -1
0.8353496491679775 0.5097003107361789 -1
0.300748190357479 0.1692970876564672 -1
0.3961510017790837 0.3292524473618772 -1
0.6002001112663662 0.3244789240128376 -1
0.5000000000000018 0.5196152422706622 -1
0.8146994615203914 0.3108503988504245 -1
0.8305769126984418 0.6998155066104454 -1
0.3152349128312833 0.8119089959777378 -1
0.1880448979450771 0.3161072616641266 -1
0.6944758012917381 0.1590001377250267 -1
0.6841077734650955 0.8254759084129466 -1
0.161630767981065 0.6942276967358656 -1
0.6682131676626107 0.6143356522006981 -1
0.3199030520313025 0.6111246918096528 -1
0.4765812585689351 0.6823037842710271 -1
0.8535898384862239 0.1464101615137765 -1
0.1464101615137761 0.1464101615137761 -1
0.146410161513776 0.8535898384862243 -1
0.8535898384862248 0.8535898384862248 -1
0.6896969712338843 0.4582018644170684 -1
0.3102497757852794 0.4581232296219057 -1
2 25 0 8
519
520
521
522
523
524
525
526
0.5000000000000003 0.3975958531482584 0
0.4999999999999997 0.6025253123575893 0
0.3737199591419476 0.5000201942509743 0
0.6262800408580524 0.5000201942509749 0
0.6288401225741571 0.3711598774258431 0
0.3711598774258428 0.6288401225741569 0
0.3711598774258427 0.3711598774258424 0
0.6288401225741573 0.6288401225741576 0
3 1 0 35
371
372
373
374
375
376
377
378
379
380
381
382
383
384
385
386
387
388
389
390
391
392
393
394
395
396
397
398
399
400
401
402
403
404
405
0.5215696380060123 0.500060582752924 0.4695121554932573
0.3115539051235752 0.6903940276977322 0.3101884842135976
0.2878265440925096 0.3333333333333331 0.292161256905648
0.6666666666666664 0.712173455907491 0.2811659659535961
0.6666666666666669 0.2878265440925099 0.2811659659535971
0.3170715753854088 0.6819146314802537 0.6797724362756274
0.3056594988701873 0.3619985707101791 0.6943405011298127
0.6831014334684296 0.3176702815823488 0.6853301044516438
0.6832014079892237 0.6832014079892237 0.6832014079892237
0.7162051931174083 0.5000000000000004 0.2106218787663097
0.4696115398935092 0.5109248326141845 0.2278378005131838
0.4371470082581729 0.2509152009709654 0.4939211406046561
0.2582739934918524 0.5053998502579646 0.4837141780220408
0.7654191697284776 0.4445823881251195 0.45024360954929
0.4999826776650804 0.7510883862972075 0.4660842759461453
0.5146095570710629 0.5008364760541597 0.745144941692508
0.463602787765672 0.2137272974510932 0.2174182583746969
0.2164864864864864 0.4999999999999995 0.1885222270193178
0.7775089670077389 0.7629762764372015 0.4826699664935194
0.7761400815501005 0.2133539180261009 0.4723154015749929
0.4999999999999996 0.7835135135135134 0.1846843049138857
0.4828794196427682 0.2255369740659544 0.7703681891248728
0.4988130844443623 0.774124219620532 0.7884325804610215
0.2176942305699833 0.7770302569656579 0.4985078917394401
0.7892752483283947 0.5009345258275085 0.7748813630544493
0.2052300219499376 0.2806432976920678 0.5020856648233838
0.1990821320691861 0.1945003169764747 0.7777024213653025
0.2098451439407221 0.5302728528078513 0.7901548560592778
0.1806031281098761 0.7767825052338569 0.1858462648408667
0.188313651842201 0.8121004773927495 0.7768503600872435
0.2075890004396756 0.1860781829869829 0.1841374388878172
0.8227191582074541 0.7762368054880409 0.1805594553544318
0.821224741074301 0.2202068389127446 0.1805949855465461
0.7769286564071525 0.1893031726601241 0.8147549861169039
0.811491539904859 0.811491539904859 0.7812808595305202
3 2 0 35
406
407
408
409
410
411
412
413
414
415
416
417
418
419
420
421
422
423
424
425
426
427
428
429
430
431
432
433
434
435
436
437
438
439
440
0.5215696380060123 0.500060582752924 -0.4695121554932573
0.3116428091380531 0.6904829317122101 -0.3101171039646916
0.2878265440925096 0.3333333333333331 -0.2920869774447108
0.7121734559074908 0.3333333333333337 -0.2837064123007447
0.7121734559074905 0.666666666666667 -0.283794944908115
0.6874659520389131 0.6844908550217155 -0.6838847031717766
0.3144374205018002 0.367849658261674 -0.6855404071432876
0.3627167532082344 0.6895471136942315 -0.6877193202923341
0.6832033593861235 0.3176440551774498 -0.6853063162367932
0.5000000000000004 0.2331208555186017 -0.226149443501406
0.4784303619939877 0.5000605827529238 -0.2250616823456595
0.4472945923234971 0.2501019233316784 -0.4812322902946592
0.4999999999999995 0.7762652532153504 -0.2118157085707953
0.2547875315444128 0.5059589208799199 -0.4783183051287375
0.5500348834607941 0.7517110726571955 -0.4590820217086893
0.5229687409792562 0.503201403920767 -0.7484191640517682
0.2164864864864864 0.4999999999999995 -0.1884958804405685
0.7790238125165966 0.2375659653222849 -0.4869387612132212
0.7650434305036701 0.4999548091178223 -0.4538984675394424
0.7835135135135135 0.5000000000000004 -0.1855596232232699
0.482920583612311 0.2255650033229714 -0.7703416980342626
0.7810279446021664 0.7612941250552829 -0.4848362688720823
0.2151724840107233 0.2626414080707999 -0.5023430479654795
0.7815315018784881 0.5003155894051003 -0.7790153269233395
0.1971005214550579 0.60216046741471 -0.8033021013733401
0.2187455135153869 0.7673490980317335 -0.5151291227608008
0.2011068233293929 0.2011070720661113 -0.777862874612695
0.5279312963914256 0.7834628178278157 -0.7991443560332542
0.1806732210393044 0.7769486398856151 -0.1858484052019684
0.2151411549154408 0.8128616341143803 -0.7789733852640117
0.2076127603340913 0.1860544230925673 -0.1841136789934023
0.8157223309407909 0.7772443590478609 -0.8121478025112567
0.7802475839845767 0.1794218721405882 -0.1813775795140672
0.7769269340488768 0.1892814052338682 -0.8147753601222532
0.7802516627413861 0.8205604553119182 -0.1814048701001368
$EndNodes
$Elements
55 2447 1 8234
0 1 15 1
27 21 
0 2 15 1
28 22 
0 3 15 1
29 23 
0 4 15 1
30 24 
0 5 15 1
31 25 
0 6 15 1
32 26 
0 7 15 1
33 27 
0 8 15 1
34 28 
0 9 15 1
35 1 
0 10 15 1
36 2 
0 11 15 1
37 3 
0 12 15 1
38 4 
0 13 15 1
39 29 
0 14 15 1
40 30 
0 15 15 1
41 31 
0 16 15 1
42 32 
1 1 1 5
43 21 33 
44 33 34 
45 34 35 
46 35 36 
47 36 22 
1 2 1 5
48 22 37 
49 37 38 
50 38 39 
51 39 40 
52 40 23 
1 3 1 5
53 24 41 
54 41 42 
55 42 43 
56 43 44 
57 44 23 
1 4 1 5
58 21 45 
59 45 46 
60 46 47 
61 47 48 
62 48 24 
1 5 1 5
63 25 49 
64 49 50 
65 50 51 
66 51 52 
67 52 26 
1 6 1 5
68 26 53 
69 53 54 
70 54 55 
71 55 56 
72 56 27 
1 7 1 5
73 28 57 
74 57 58 
75 58 59 
76 59 60 
77 60 27 
1 8 1 5
78 25 61 
79 61 62 
80 62 63 
81 63 64 
82 64 28 
1 9 1 5
83 21 65 
84 65 66 
85 66 67 
86 67 68 
87 68 25 
1 10 1 5
88 22 69 
89 69 70 
90 70 71 
91 71 72 
92 72 26 
1 11 1 5
93 24 73 
94 73 74 
95 74 75 
96 75 76 
97 76 28 
1 12 1 5
98 23 77 
99 77 78 
100 78 79 
101 79 80 
102 80 27 
1 13 1 3
103 1 5 
104 5 6 
105 6 2 
1 14 1 3
106 2 7 
107 7 8 
108 8 3 
1 15 1 3
109 3 9 
110 9 10 
111 10 4 
1 16 1 3
112 4 11 
113 11 12 
114 12 1 
1 17 1 5
115 29 81 
116 81 82 
117 82 83 
118 83 84 
119 84 21 
1 18 1 5
120 30 85 
121 85 86 
122 86 87 
123 87 88 
124 88 24 
1 19 1 5
125 29 89 
126 89 90 
127 90 91 
128 91 92 
129 92 30 
1 20 1 5
130 31 93 
131 93 94 
132 94 95 
133 95 96 
134 96 25 
1 21 1 5
135 32 97 
136 97 98 
137 98 99 
138 99 100 
139 100 28 
1 22 1 5
140 31 101 
141 101 102 
142 102 103 
143 103 104 
144 104 32 
1 23 1 5
145 29 105 
146 105 106 
147 106 107 
148 107 108 
149 108 31 
1 24 1 5
150 30 109 
151 109 110 
152 110 111 
153 111 112 
154 112 32 
2 13 2 26
1 5 19 1 
2 1 19 12 
3 2 17 6 
4 7 17 2 
5 3 20 8 
6 9 20 3 
7 4 18 10 
8 11 18 4 
9 6 13 5 
10 13 19 5 
11 6 17 13 
12 8 16 7 
13 16 17 7 
14 8 20 16 
15 10 14 9 
16 14 20 9 
17 10 18 14 
18 12 15 11 
19 15 18 11 
20 12 19 15 
21 14 15 13 
22 13 16 14 
23 15 19 13 
24 13 17 16 
25 14 18 15 
26 16 20 14 
2 14 2 68
155 21 33 133 
156 45 21 133 
157 36 22 134 
158 22 37 134 
159 40 23 132 
160 23 44 132 
161 41 24 131 
162 24 48 131 
163 33 34 117 
164 33 117 133 
165 34 35 114 
166 34 114 117 
167 35 36 122 
168 114 35 122 
169 122 36 134 
170 37 38 125 
171 37 125 134 
172 38 39 116 
173 38 116 125 
174 39 40 127 
175 116 39 127 
176 127 40 132 
177 42 41 121 
178 121 41 131 
179 43 42 113 
180 113 42 121 
181 44 43 123 
182 43 113 123 
183 44 123 132 
184 46 45 124 
185 124 45 133 
186 47 46 115 
187 115 46 124 
188 48 47 126 
189 47 115 126 
190 48 126 131 
191 113 121 130 
192 123 113 137 
193 113 130 137 
194 117 114 118 
195 118 114 119 
196 119 114 122 
197 115 124 135 
198 126 115 128 
199 128 115 135 
200 125 116 136 
201 116 127 129 
202 116 129 136 
203 117 118 124 
204 117 124 133 
205 118 119 120 
206 118 120 135 
207 124 118 135 
208 120 119 136 
209 119 122 125 
210 119 125 136 
211 128 120 130 
212 120 128 135 
213 120 129 130 
214 129 120 136 
215 121 126 128 
216 126 121 131 
217 121 128 130 
218 125 122 134 
219 123 127 132 
220 127 123 137 
221 129 127 137 
222 130 129 137 
2 15 2 66
223 25 157 49 
224 61 157 25 
225 52 158 26 
226 26 158 53 
227 56 159 27 
228 27 159 60 
229 57 156 28 
230 28 156 64 
231 49 149 50 
232 49 157 149 
233 50 140 51 
234 50 149 140 
235 51 152 52 
236 140 152 51 
237 152 158 52 
238 53 148 54 
239 53 158 148 
240 54 138 55 
241 54 148 138 
242 55 151 56 
243 138 151 55 
244 151 159 56 
245 58 146 57 
246 146 156 57 
247 59 141 58 
248 141 146 58 
249 60 147 59 
250 59 147 141 
251 60 159 147 
252 62 142 61 
253 142 157 61 
254 63 139 62 
255 139 142 62 
256 64 150 63 
257 63 150 139 
258 64 156 150 
259 148 155 138 
260 138 155 151 
261 139 143 142 
262 139 144 143 
263 139 150 144 
264 149 161 140 
265 140 154 152 
266 140 161 154 
267 141 160 146 
268 147 153 141 
269 153 160 141 
270 143 149 142 
271 149 157 142 
272 144 145 143 
273 145 161 143 
274 143 161 149 
275 144 160 145 
276 144 150 146 
277 146 160 144 
278 153 155 145 
279 145 160 153 
280 145 155 154 
281 154 161 145 
282 150 156 146 
283 151 153 147 
284 147 159 151 
285 152 154 148 
286 148 158 152 
287 154 155 148 
288 151 155 153 
2 16 2 66
289 33 21 181 
290 21 65 181 
291 22 36 180 
292 69 22 180 
293 25 49 182 
294 68 25 182 
295 52 26 183 
296 26 72 183 
297 34 33 166 
298 166 33 181 
299 35 34 163 
300 163 34 166 
301 36 35 174 
302 35 163 174 
303 36 174 180 
304 49 50 172 
305 49 172 182 
306 50 51 162 
307 50 162 172 
308 51 52 175 
309 162 51 175 
310 175 52 183 
311 65 66 173 
312 65 173 181 
313 66 67 164 
314 66 164 173 
315 67 68 176 
316 164 67 176 
317 176 68 182 
318 70 69 170 
319 170 69 180 
320 71 70 165 
321 165 70 170 
322 72 71 171 
323 71 165 171 
324 72 171 183 
325 172 162 179 
326 162 175 179 
327 163 166 167 
328 163 167 168 
329 163 168 174 
330 173 164 185 
331 164 176 178 
332 164 178 185 
333 165 170 184 
334 171 165 177 
335 177 165 184 
336 167 166 173 
337 173 166 181 
338 168 167 169 
339 169 167 185 
340 167 173 185 
341 168 169 184 
342 168 170 174 
343 170 168 184 
344 177 169 179 
345 169 177 184 
346 169 178 179 
347 178 169 185 
348 174 170 180 
349 175 171 177 
350 171 175 183 
351 176 172 178 
352 172 176 182 
353 178 172 179 
354 175 177 179 
2 17 2 66
355 23 204 44 
356 77 204 23 
357 41 205 24 
358 24 205 73 
359 60 207 27 
360 27 207 80 
361 28 206 57 
362 76 206 28 
363 42 190 41 
364 190 205 41 
365 43 187 42 
366 187 190 42 
367 44 198 43 
368 43 198 187 
369 44 204 198 
370 57 196 58 
371 57 206 196 
372 58 186 59 
373 58 196 186 
374 59 199 60 
375 186 199 59 
376 199 207 60 
377 73 197 74 
378 73 205 197 
379 74 188 75 
380 74 197 188 
381 75 200 76 
382 188 200 75 
383 200 206 76 
384 78 194 77 
385 194 204 77 
386 79 189 78 
387 189 194 78 
388 80 195 79 
389 79 195 189 
390 80 207 195 
391 196 203 186 
392 186 203 199 
393 187 191 190 
394 187 192 191 
395 187 198 192 
396 197 209 188 
397 188 202 200 
398 188 209 202 
399 189 208 194 
400 195 201 189 
401 201 208 189 
402 191 197 190 
403 197 205 190 
404 192 193 191 
405 193 209 191 
406 191 209 197 
407 192 208 193 
408 192 198 194 
409 194 208 192 
410 201 203 193 
411 193 208 201 
412 193 203 202 
413 202 209 193 
414 198 204 194 
415 199 201 195 
416 195 207 199 
417 200 202 196 
418 196 206 200 
419 202 203 196 
420 199 203 201 
2 18 2 64
421 21 45 225 
422 65 21 225 
423 48 24 224 
424 24 73 224 
425 61 25 223 
426 25 68 223 
427 28 64 222 
428 76 28 222 
429 1 5 216 
430 12 1 214 
431 214 1 225 
432 1 216 225 
433 6 2 218 
434 2 7 217 
435 2 217 223 
436 218 2 223 
437 8 3 219 
438 3 9 221 
439 219 3 222 
440 3 221 222 
441 10 4 215 
442 4 11 220 
443 215 4 224 
444 4 220 224 
445 45 46 214 
446 45 214 225 
447 46 47 212 
448 46 212 214 
449 47 48 220 
450 212 47 220 
451 220 48 224 
452 62 61 217 
453 217 61 223 
454 63 62 210 
455 210 62 217 
456 64 63 219 
457 63 210 219 
458 64 219 222 
459 66 65 216 
460 216 65 225 
461 67 66 211 
462 211 66 216 
463 68 67 218 
464 67 211 218 
465 68 218 223 
466 73 74 215 
467 73 215 224 
468 74 75 213 
469 74 213 215 
470 75 76 221 
471 213 75 221 
472 221 76 222 
473 5 6 211 
474 5 211 216 
475 211 6 218 
476 7 8 210 
477 7 210 217 
478 210 8 219 
479 9 10 213 
480 9 213 221 
481 213 10 215 
482 11 12 212 
483 11 212 220 
484 212 12 214 
2 19 2 66
485 22 245 37 
486 69 245 22 
487 40 246 23 
488 23 246 77 
489 53 244 26 
490 26 244 72 
491 27 247 56 
492 80 247 27 
493 37 237 38 
494 37 245 237 
495 38 228 39 
496 38 237 228 
497 39 240 40 
498 228 240 39 
499 240 246 40 
500 54 234 53 
501 234 244 53 
502 55 229 54 
503 229 234 54 
504 56 235 55 
505 55 235 229 
506 56 247 235 
507 70 230 69 
508 230 245 69 
509 71 227 70 
510 227 230 70 
511 72 238 71 
512 71 238 227 
513 72 244 238 
514 77 236 78 
515 77 246 236 
516 78 226 79 
517 78 236 226 
518 79 239 80 
519 226 239 79 
520 239 247 80 
521 236 243 226 
522 226 243 239 
523 227 231 230 
524 227 232 231 
525 227 238 232 
526 237 249 228 
527 228 242 240 
528 228 249 242 
529 229 248 234 
530 235 241 229 
531 241 248 229 
532 231 237 230 
533 237 245 230 
534 232 233 231 
535 233 249 231 
536 231 249 237 
537 232 248 233 
538 232 238 234 
539 234 248 232 
540 241 243 233 
541 233 248 241 
542 233 243 242 
543 242 249 233 
544 238 244 234 
545 239 241 235 
546 235 247 239 
547 240 242 236 
548 236 246 240 
549 242 243 236 
550 239 243 241 
2 20 2 66
551 21 45 271 
552 84 21 271 
553 48 24 268 
554 24 88 268 
555 29 81 269 
556 89 29 269 
557 85 30 270 
558 30 92 270 
559 45 46 263 
560 45 263 271 
561 46 47 253 
562 46 253 263 
563 47 48 264 
564 253 47 264 
565 264 48 268 
566 81 82 261 
567 81 261 269 
568 82 83 251 
569 82 251 261 
570 83 84 254 
571 251 83 254 
572 254 84 271 
573 86 85 262 
574 262 85 270 
575 87 86 250 
576 250 86 262 
577 88 87 259 
578 87 250 259 
579 88 259 268 
580 90 89 258 
581 258 89 269 
582 91 90 252 
583 252 90 258 
584 92 91 260 
585 91 252 260 
586 92 260 270 
587 259 250 267 
588 250 262 267 
589 251 254 255 
590 251 255 256 
591 251 256 261 
592 252 258 272 
593 260 252 265 
594 265 252 272 
595 263 253 273 
596 253 264 266 
597 253 266 273 
598 255 254 263 
599 263 254 271 
600 256 255 257 
601 257 255 273 
602 255 263 273 
603 256 257 272 
604 256 258 261 
605 258 256 272 
606 265 257 267 
607 257 265 272 
608 257 266 267 
609 266 257 273 
610 261 258 269 
611 264 259 266 
612 259 264 268 
613 266 259 267 
614 262 260 265 
615 260 262 270 
616 262 265 267 
2 21 2 68
617 25 292 61 
618 96 292 25 
619 64 294 28 
620 28 294 100 
621 31 293 93 
622 101 293 31 
623 97 295 32 
624 32 295 104 
625 61 278 62 
626 61 292 278 
627 62 274 63 
628 62 278 274 
629 63 288 64 
630 274 288 63 
631 288 294 64 
632 93 285 94 
633 93 293 285 
634 94 276 95 
635 94 285 276 
636 95 287 96 
637 276 287 95 
638 287 292 96 
639 98 286 97 
640 286 295 97 
641 99 277 98 
642 277 286 98 
643 100 284 99 
644 99 284 277 
645 100 294 284 
646 102 282 101 
647 282 293 101 
648 103 275 102 
649 275 282 102 
650 104 283 103 
651 103 283 275 
652 104 295 283 
653 278 279 274 
654 279 280 274 
655 280 288 274 
656 275 291 282 
657 283 298 275 
658 275 298 291 
659 285 289 276 
660 276 296 287 
661 289 296 276 
662 284 297 277 
663 277 290 286 
664 277 297 290 
665 278 287 279 
666 278 292 287 
667 279 281 280 
668 279 296 281 
669 287 296 279 
670 281 297 280 
671 284 288 280 
672 280 297 284 
673 289 291 281 
674 281 296 289 
675 281 291 290 
676 290 297 281 
677 282 289 285 
678 285 293 282 
679 282 291 289 
680 283 295 286 
681 286 298 283 
682 284 294 288 
683 290 298 286 
684 291 298 290 
2 22 2 66
685 65 21 320 
686 21 84 320 
687 25 68 317 
688 96 25 317 
689 81 29 318 
690 29 105 318 
691 31 93 319 
692 108 31 319 
693 66 65 311 
694 311 65 320 
695 67 66 302 
696 302 66 311 
697 68 67 307 
698 67 302 307 
699 68 307 317 
700 82 81 310 
701 310 81 318 
702 83 82 300 
703 300 82 310 
704 84 83 303 
705 83 300 303 
706 84 303 320 
707 93 94 312 
708 93 312 319 
709 94 95 299 
710 94 299 312 
711 95 96 313 
712 299 95 313 
713 313 96 317 
714 105 106 308 
715 105 308 318 
716 106 107 301 
717 106 301 308 
718 107 108 309 
719 301 107 309 
720 309 108 319 
721 312 299 316 
722 299 313 316 
723 303 300 304 
724 304 300 305 
725 305 300 310 
726 308 301 321 
727 301 309 314 
728 301 314 321 
729 307 302 315 
730 302 311 322 
731 315 302 322 
732 303 304 311 
733 303 311 320 
734 304 305 306 
735 304 306 322 
736 311 304 322 
737 306 305 321 
738 308 305 310 
739 305 308 321 
740 306 314 316 
741 314 306 321 
742 315 306 316 
743 306 315 322 
744 313 307 315 
745 307 313 317 
746 308 310 318 
747 309 312 314 
748 312 309 319 
749 314 312 316 
750 313 315 316 
2 23 2 66
751 73 344 24 
752 24 344 88 
753 28 341 76 
754 100 341 28 
755 85 342 30 
756 30 342 109 
757 32 343 97 
758 112 343 32 
759 74 335 73 
760 335 344 73 
761 75 326 74 
762 326 335 74 
763 76 331 75 
764 75 331 326 
765 76 341 331 
766 86 334 85 
767 334 342 85 
768 87 324 86 
769 324 334 86 
770 88 327 87 
771 87 327 324 
772 88 344 327 
773 97 336 98 
774 97 343 336 
775 98 323 99 
776 98 336 323 
777 99 337 100 
778 323 337 99 
779 337 341 100 
780 109 332 110 
781 109 342 332 
782 110 325 111 
783 110 332 325 
784 111 333 112 
785 325 333 111 
786 333 343 112 
787 336 340 323 
788 323 340 337 
789 327 328 324 
790 328 329 324 
791 329 334 324 
792 332 345 325 
793 325 338 333 
794 325 345 338 
795 331 339 326 
796 326 346 335 
797 339 346 326 
798 327 335 328 
799 327 344 335 
800 328 330 329 
801 328 346 330 
802 335 346 328 
803 330 345 329 
804 332 334 329 
805 329 345 332 
806 330 340 338 
807 338 345 330 
808 339 340 330 
809 330 346 339 
810 337 339 331 
811 331 341 337 
812 332 342 334 
813 333 338 336 
814 336 343 333 
815 338 340 336 
816 337 340 339 
2 24 2 66
817 29 89 366 
818 105 29 366 
819 92 30 367 
820 30 109 367 
821 101 31 365 
822 31 108 365 
823 32 104 368 
824 112 32 368 
825 89 90 358 
826 89 358 366 
827 90 91 349 
828 90 349 358 
829 91 92 361 
830 349 91 361 
831 361 92 367 
832 102 101 355 
833 355 101 365 
834 103 102 350 
835 350 102 355 
836 104 103 356 
837 103 350 356 
838 104 356 368 
839 106 105 351 
840 351 105 366 
841 107 106 348 
842 348 106 351 
843 108 107 359 
844 107 348 359 
845 108 359 365 
846 109 110 357 
847 109 357 367 
848 110 111 347 
849 110 347 357 
850 111 112 360 
851 347 111 360 
852 360 112 368 
853 357 347 364 
854 347 360 364 
855 348 351 352 
856 348 352 353 
857 348 353 359 
858 358 349 370 
859 349 361 363 
860 349 363 370 
861 350 355 369 
862 356 350 362 
863 362 350 369 
864 352 351 358 
865 358 351 366 
866 353 352 354 
867 354 352 370 
868 352 358 370 
869 353 354 369 
870 353 355 359 
871 355 353 369 
872 362 354 364 
873 354 362 369 
874 354 363 364 
875 363 354 370 
876 359 355 365 
877 360 356 362 
878 356 360 368 
879 361 357 363 
880 357 361 367 
881 363 357 364 
882 360 362 364 
2 25 2 26
8209 5 525 1 
8210 1 525 12 
8211 2 523 6 
8212 7 523 2 
8213 3 526 8 
8214 9 526 3 
8215 4 524 10 
8216 11 524 4 
8217 6 519 5 
8218 519 525 5 
8219 6 523 519 
8220 8 522 7 
8221 522 523 7 
8222 8 526 522 
8223 10 520 9 
8224 520 526 9 
8225 10 524 520 
8226 12 521 11 
8227 521 524 11 
8228 12 525 521 
8229 520 521 519 
8230 519 522 520 
8231 521 525 519 
8232 519 523 522 
8233 520 524 521 
8234 522 526 520 
3 1 4 770
883 371 381 375 387 
884 219 8 210 380 
885 217 210 7 380 
886 153 379 384 395 
887 153 384 379 389 
888 381 382 373 387 
889 153 384 145 395 
890 371 382 381 387 
891 5 525 1 373 
892 144 374 380 384 
893 371 375 382 387 
894 219 210 139 380 
895 6 218 375 387 
896 177 382 378 390 
897 139 210 217 380 
898 371 379 378 384 
899 519 375 523 381 
900 375 380 523 381 
901 378 384 379 395 
902 178 375 382 390 
903 144 374 384 389 
904 378 379 371 386 
905 139 217 142 380 
906 217 142 380 403 
907 178 382 375 387 
908 219 8 380 402 
909 219 139 150 380 
910 217 380 7 403 
911 219 380 150 402 
912 176 375 218 387 
913 11 524 372 388 
914 177 169 382 390 
915 524 10 372 391 
916 375 371 382 384 
917 3 526 8 374 
918 6 375 523 387 
919 519 523 375 387 
920 11 524 4 399 
921 378 382 371 384 
922 177 378 382 392 
923 375 384 382 390 
924 208 376 385 393 
925 379 386 378 395 
926 526 381 374 391 
927 371 373 381 382 
928 11 372 524 399 
929 153 145 384 389 
930 374 371 384 389 
931 382 384 378 390 
932 525 12 1 373 
933 167 166 396 401 
934 523 380 522 381 
935 375 381 519 387 
936 166 117 396 401 
937 221 9 3 374 
938 526 380 374 381 
939 375 380 143 403 
940 211 218 6 387 
941 5 525 373 387 
942 192 208 376 385 
943 525 381 373 387 
944 154 384 378 395 
945 379 385 376 393 
946 524 372 381 391 
947 2 6 218 403 
948 379 385 201 389 
949 379 384 371 389 
950 167 396 373 401 
951 376 386 379 393 
952 519 6 523 387 
953 376 385 379 386 
954 144 380 374 402 
955 524 381 372 388 
956 242 386 376 393 
957 185 382 178 387 
958 5 373 1 401 
959 163 166 117 396 
960 372 383 128 388 
961 215 4 10 399 
962 521 525 381 388 
963 215 10 391 399 
964 176 218 164 387 
965 142 143 380 403 
966 117 114 163 396 
967 201 385 379 393 
968 129 376 383 394 
969 221 374 200 391 
970 168 392 377 397 
971 526 520 381 391 
972 168 382 377 392 
973 377 396 168 397 
974 208 385 201 393 
975 371 374 385 389 
976 522 380 526 381 
977 143 380 375 384 
978 214 12 388 401 
979 152 154 378 404 
980 381 385 374 391 
981 144 150 380 402 
982 377 382 168 396 
983 164 218 211 387 
984 114 122 174 396 
985 152 378 154 390 
986 372 391 10 399 
987 139 142 143 380 
988 144 374 389 402 
989 376 371 385 386 
990 7 523 375 380 
991 376 386 242 398 
992 3 374 8 402 
993 373 381 525 388 
994 221 9 374 391 
995 8 374 526 380 
996 163 114 174 396 
997 372 385 381 391 
998 218 375 176 403 
999 144 150 139 380 
1000 9 526 3 374 
1001 11 388 372 399 
1002 221 200 374 402 
1003 378 386 382 392 
1004 373 387 167 401 
1005 373 382 167 387 
1006 371 385 379 389 
1007 519 381 525 387 
1008 214 1 12 401 
1009 379 385 371 386 
1010 519 523 522 381 
1011 152 378 390 404 
1012 521 381 524 388 
1013 129 383 130 394 
1014 371 382 378 386 
1015 372 209 385 391 
1016 381 383 372 388 
1017 201 379 389 405 
1018 136 383 377 396 
1019 373 383 381 388 
1020 144 384 160 389 
1021 371 376 383 386 
1022 135 128 383 388 
1023 202 385 374 389 
1024 177 382 184 392 
1025 197 209 372 391 
1026 6 375 218 403 
1027 371 380 375 381 
1028 136 119 383 396 
1029 241 235 395 405 
1030 167 382 373 396 
1031 221 374 3 402 
1032 192 385 376 394 
1033 129 383 376 398 
1034 143 390 375 403 
1035 249 242 386 398 
1036 122 174 396 397 
1037 135 383 373 388 
1038 160 384 145 389 
1039 371 380 374 384 
1040 5 387 373 401 
1041 163 167 166 396 
1042 1 373 12 401 
1043 192 376 208 400 
1044 248 378 386 395 
1045 377 383 376 386 
1046 129 130 137 394 
1047 374 380 371 381 
1048 12 373 525 388 
1049 153 160 145 389 
1050 129 137 376 394 
1051 377 383 136 398 
1052 136 377 119 396 
1053 176 178 375 387 
1054 382 386 377 392 
1055 129 136 383 398 
1056 232 248 378 386 
1057 171 165 238 392 
1058 177 179 169 390 
1059 7 380 375 403 
1060 194 192 208 400 
1061 373 388 12 401 
1062 371 383 377 386 
1063 374 380 8 402 
1064 383 385 372 394 
1065 376 385 383 394 
1066 242 376 236 393 
1067 248 232 378 404 
1068 241 379 386 393 
1069 163 174 168 396 
1070 177 169 184 382 
1071 215 391 197 399 
1072 191 372 209 385 
1073 371 381 373 383 
1074 135 118 373 383 
1075 371 383 376 385 
1076 128 372 121 394 
1077 185 169 178 382 
1078 248 234 232 404 
1079 249 231 377 386 
1080 241 395 379 405 
1081 143 384 375 390 
1082 374 381 371 385 
1083 203 201 385 389 
1084 171 392 238 404 
1085 148 154 378 395 
1086 174 168 396 397 
1087 249 386 377 398 
1088 371 377 382 386 
1089 208 193 201 385 
1090 243 386 242 393 
1091 522 526 520 381 
1092 379 395 153 405 
1093 202 374 385 391 
1094 191 197 209 372 
1095 236 376 242 400 
1096 202 374 196 389 
1097 227 238 165 392 
1098 242 398 240 400 
1099 144 389 146 402 
1100 371 372 381 383 
1101 372 388 128 399 
1102 9 526 374 391 
1103 524 381 520 391 
1104 214 388 124 401 
1105 197 391 372 399 
1106 201 195 393 405 
1107 176 164 178 387 
1108 242 376 398 400 
1109 375 380 371 384 
1110 128 121 372 399 
1111 241 386 379 395 
1112 521 12 525 388 
1113 11 521 524 388 
1114 198 123 113 394 
1115 202 385 209 391 
1116 118 373 383 396 
1117 154 378 384 390 
1118 148 378 154 404 
1119 130 129 120 383 
1120 200 374 202 391 
1121 125 237 397 398 
1122 249 242 233 386 
1123 143 144 380 384 
1124 155 153 145 395 
1125 184 382 168 392 
1126 201 389 199 405 
1127 191 197 372 399 
1128 372 371 381 385 
1129 232 386 378 392 
1130 372 385 191 394 
1131 191 190 197 399 
1132 371 373 382 383 
1133 371 372 383 385 
1134 231 377 386 392 
1135 170 184 168 392 
1136 176 375 172 403 
1137 196 374 200 402 
1138 228 125 116 398 
1139 143 144 139 380 
1140 176 178 172 375 
1141 190 394 121 399 
1142 201 393 379 405 
1143 196 202 200 374 
1144 115 214 212 388 
1145 152 390 175 404 
1146 198 123 394 400 
1147 185 167 382 387 
1148 125 377 136 398 
1149 230 231 392 397 
1150 236 393 376 400 
1151 120 129 136 383 
1152 188 215 213 391 
1153 192 191 385 394 
1154 196 389 374 402 
1155 128 121 130 394 
1156 119 136 125 377 
1157 143 149 390 403 
1158 121 394 372 399 
1159 173 167 387 401 
1160 120 136 119 383 
1161 231 386 232 392 
1162 241 248 386 395 
1163 137 129 376 400 
1164 371 382 377 383 
1165 377 397 237 398 
1166 144 160 146 389 
1167 147 389 153 405 
1168 203 385 202 389 
1169 192 193 208 385 
1170 170 392 168 397 
1171 125 397 377 398 
1172 377 392 231 397 
1173 171 177 392 404 
1174 239 379 241 393 
1175 126 128 388 399 
1176 5 519 525 387 
1177 220 388 11 399 
1178 249 377 237 398 
1179 216 164 211 387 
1180 117 34 166 163 
1181 378 392 177 404 
1182 148 395 378 404 
1183 187 198 113 394 
1184 153 389 379 405 
1185 163 168 167 396 
1186 129 398 376 400 
1187 168 382 167 396 
1188 220 126 388 399 
1189 34 117 114 163 
1190 237 249 231 377 
1191 170 230 227 392 
1192 216 5 1 401 
1193 144 145 160 384 
1194 196 146 389 402 
1195 232 238 392 404 
1196 119 377 125 397 
1197 135 373 124 388 
1198 152 148 154 404 
1199 124 388 373 401 
1200 115 220 126 388 
1201 241 379 239 405 
1202 228 237 125 398 
1203 237 377 231 397 
1204 216 387 5 401 
1205 151 153 395 405 
1206 147 199 141 389 
1207 190 187 121 394 
1208 227 165 170 392 
1209 236 242 240 400 
1210 152 154 140 390 
1211 115 212 220 388 
1212 221 200 188 391 
1213 232 392 378 404 
1214 117 124 118 401 
1215 203 201 193 385 
1216 148 234 395 404 
1217 236 194 393 400 
1218 124 373 118 401 
1219 249 233 231 386 
1220 137 376 394 400 
1221 192 394 376 400 
1222 172 375 178 390 
1223 188 213 221 391 
1224 187 113 121 394 
1225 170 230 392 397 
1226 147 199 389 405 
1227 241 386 243 393 
1228 379 393 239 405 
1229 114 174 35 163 
1230 116 228 38 125 
1231 122 174 35 114 
1232 120 135 128 383 
1233 171 177 165 392 
1234 143 149 161 390 
1235 186 146 141 389 
1236 70 170 230 227 
1237 231 233 232 386 
1238 147 141 153 389 
1239 195 239 393 405 
1240 137 394 123 400 
1241 120 383 119 396 
1242 70 170 227 165 
1243 376 383 377 398 
1244 234 229 138 395 
1245 194 189 226 393 
1246 128 130 120 383 
1247 124 135 118 373 
1248 235 151 395 405 
1249 198 394 192 400 
1250 115 124 214 388 
1251 161 384 143 390 
1252 227 232 238 392 
1253 141 199 186 389 
1254 196 146 186 389 
1255 5 6 519 387 
1256 377 386 376 398 
1257 192 191 193 385 
1258 188 197 215 391 
1259 243 233 242 386 
1260 135 120 118 383 
1261 127 398 129 400 
1262 173 167 185 387 
1263 148 234 138 395 
1264 152 140 175 390 
1265 123 137 113 394 
1266 9 520 526 391 
1267 524 520 10 391 
1268 172 375 390 403 
1269 236 194 226 393 
1270 521 525 519 381 
1271 217 7 2 403 
1272 119 396 377 397 
1273 382 383 373 396 
1274 230 237 231 397 
1275 228 116 240 398 
1276 42 121 190 187 
1277 200 202 188 391 
1278 42 121 187 113 
1279 154 384 161 390 
1280 202 196 203 389 
1281 188 215 74 213 
1282 216 66 211 164 
1283 212 115 46 214 
1284 240 398 127 400 
1285 126 128 115 388 
1286 11 220 212 388 
1287 212 214 12 388 
1288 237 38 228 125 
1289 173 164 216 387 
1290 4 220 11 399 
1291 219 3 8 402 
1292 233 241 248 386 
1293 139 219 63 210 
1294 119 122 396 397 
1295 120 118 383 396 
1296 232 233 248 386 
1297 148 155 154 395 
1298 240 116 127 398 
1299 216 211 5 387 
1300 201 195 189 393 
1301 165 171 238 71 
1302 165 238 227 71 
1303 43 198 123 113 
1304 377 383 382 396 
1305 242 236 243 393 
1306 189 195 239 393 
1307 221 213 9 391 
1308 10 213 215 391 
1309 139 62 217 210 
1310 241 233 243 386 
1311 241 239 235 405 
1312 229 241 235 395 
1313 140 162 175 390 
1314 201 203 199 389 
1315 229 235 151 395 
1316 198 43 187 113 
1317 216 173 387 401 
1318 7 522 523 380 
1319 522 8 526 380 
1320 150 139 219 63 
1321 172 390 149 403 
1322 184 169 168 382 
1323 240 228 39 116 
1324 524 521 520 381 
1325 202 193 209 385 
1326 117 118 114 396 
1327 198 187 192 394 
1328 190 191 187 394 
1329 239 226 189 393 
1330 139 217 62 142 
1331 8 7 210 380 
1332 154 145 161 384 
1333 138 229 151 395 
1334 116 125 136 398 
1335 137 127 129 400 
1336 114 119 122 396 
1337 185 167 169 382 
1338 520 519 522 381 
1339 162 140 149 390 
1340 193 191 209 385 
1341 127 240 39 116 
1342 173 166 167 401 
1343 197 215 74 188 
1344 66 216 173 164 
1345 67 211 164 218 
1346 220 115 47 212 
1347 188 221 213 75 
1348 124 46 115 214 
1349 138 234 54 229 
1350 226 194 78 189 
1351 58 141 186 146 
1352 230 231 227 392 
1353 228 249 237 398 
1354 172 162 149 390 
1355 120 119 118 396 
1356 206 200 221 402 
1357 54 148 234 138 
1358 226 78 194 236 
1359 196 58 186 146 
1360 149 162 50 140 
1361 179 177 175 390 
1362 203 193 202 385 
1363 176 182 218 403 
1364 234 248 229 395 
1365 168 169 167 382 
1366 208 189 194 393 
1367 164 176 67 218 
1368 221 188 200 75 
1369 126 115 47 220 
1370 143 145 144 384 
1371 182 172 157 403 
1372 8 522 7 380 
1373 206 221 222 402 
1374 211 6 5 387 
1375 521 519 520 381 
1376 162 50 172 149 
1377 146 206 156 402 
1378 51 152 140 175 
1379 11 12 521 388 
1380 197 188 209 391 
1381 189 79 239 195 
1382 59 141 147 199 
1383 235 151 55 229 
1384 135 124 115 388 
1385 182 223 218 403 
1386 140 162 51 175 
1387 199 203 186 389 
1388 151 138 55 229 
1389 199 59 141 186 
1390 79 239 226 189 
1391 245 134 125 397 
1392 197 205 215 399 
1393 119 125 122 397 
1394 142 149 143 403 
1395 194 246 204 400 
1396 146 196 206 402 
1397 172 149 157 403 
1398 188 202 209 391 
1399 215 205 224 399 
1400 244 234 158 404 
1401 128 135 115 388 
1402 185 178 164 387 
1403 146 150 144 402 
1404 125 237 245 397 
1405 170 165 184 392 
1406 9 10 520 391 
1407 236 246 194 400 
1408 179 172 178 390 
1409 141 146 160 389 
1410 192 194 198 400 
1411 183 158 152 404 
1412 148 158 234 404 
1413 132 246 240 400 
1414 239 241 243 393 
1415 49 157 182 172 
1416 168 174 170 397 
1417 242 228 240 398 
1418 131 205 190 399 
1419 232 234 238 404 
1420 155 151 153 395 
1421 166 133 117 401 
1422 133 225 214 401 
1423 245 230 180 397 
1424 131 190 121 399 
1425 170 180 230 397 
1426 121 113 130 394 
1427 132 240 127 400 
1428 189 208 201 393 
1429 235 247 159 405 
1430 207 247 195 405 
1431 165 177 184 392 
1432 133 214 124 401 
1433 231 232 227 392 
1434 140 154 161 390 
1435 246 204 77 194 
1436 156 146 57 206 
1437 158 244 53 234 
1438 229 248 241 395 
1439 134 125 37 245 
1440 187 191 192 394 
1441 181 133 166 401 
1442 33 117 166 133 
1443 49 157 172 149 
1444 128 126 121 399 
1445 141 160 153 389 
1446 221 200 206 76 
1447 182 68 176 218 
1448 196 200 206 402 
1449 146 196 57 206 
1450 194 77 246 236 
1451 148 158 53 234 
1452 161 145 143 384 
1453 186 203 196 389 
1454 125 237 37 245 
1455 181 33 166 133 
1456 36 134 174 122 
1457 175 177 171 404 
1458 127 116 129 398 
1459 206 221 76 222 
1460 218 182 68 223 
1461 201 199 195 405 
1462 134 174 122 397 
1463 153 151 147 405 
1464 179 175 162 390 
1465 220 48 126 399 
1466 182 176 172 403 
1467 36 134 180 174 
1468 159 235 56 247 
1469 195 207 80 247 
1470 183 52 152 158 
1471 238 72 171 404 
1472 134 180 174 397 
1473 175 183 152 404 
1474 132 246 40 240 
1475 142 217 61 403 
1476 170 180 69 230 
1477 245 69 180 230 
1478 149 140 161 390 
1479 137 123 127 400 
1480 185 164 173 387 
1481 123 198 44 204 
1482 221 3 222 402 
1483 195 247 239 405 
1484 150 64 219 402 
1485 40 132 240 127 
1486 158 148 152 404 
1487 159 151 235 405 
1488 240 246 236 400 
1489 198 204 123 400 
1490 183 171 72 404 
1491 239 243 226 393 
1492 133 225 45 214 
1493 197 190 205 399 
1494 131 205 41 190 
1495 121 131 41 190 
1496 72 238 244 404 
1497 218 223 2 403 
1498 155 138 151 395 
1499 159 60 147 405 
1500 132 123 44 204 
1501 224 48 220 399 
1502 217 223 61 403 
1503 138 155 148 395 
1504 65 216 225 401 
1505 215 224 4 399 
1506 243 236 226 393 
1507 215 73 224 205 
1508 64 222 219 402 
1509 11 212 12 388 
1510 123 204 132 400 
1511 48 131 126 399 
1512 242 249 228 398 
1513 72 244 183 404 
1514 116 136 129 398 
1515 159 207 60 405 
1516 142 61 157 403 
1517 80 239 195 247 
1518 56 151 235 159 
1519 124 133 45 214 
1520 237 230 245 397 
1521 114 35 34 163 
1522 73 215 197 205 
1523 113 137 130 394 
1524 1 214 225 401 
1525 52 152 175 183 
1526 150 156 64 402 
1527 10 9 213 391 
1528 172 50 49 149 
1529 77 194 78 236 
1530 196 57 58 146 
1531 148 53 54 234 
1532 117 34 33 166 
1533 147 60 199 405 
1534 37 38 237 125 
1535 65 225 181 401 
1536 134 245 180 397 
1537 224 131 48 399 
1538 118 119 114 396 
1539 170 69 70 230 
1540 157 61 223 403 
1541 133 124 117 401 
1542 64 156 222 402 
1543 227 70 165 71 
1544 41 42 121 190 
1545 207 199 60 405 
1546 239 247 235 405 
1547 71 171 238 72 
1548 246 132 204 400 
1549 240 39 40 127 
1550 206 222 156 402 
1551 244 158 183 404 
1552 174 35 36 122 
1553 172 179 162 390 
1554 182 157 223 403 
1555 159 247 207 405 
1556 187 43 42 113 
1557 224 205 131 399 
1558 225 216 1 401 
1559 27 207 159 247 
1560 22 134 245 180 
1561 26 183 244 158 
1562 132 23 246 204 
1563 181 225 133 401 
1564 28 156 206 222 
1565 181 225 21 133 
1566 157 25 182 223 
1567 205 24 224 131 
1568 2 223 217 403 
1569 219 222 3 402 
1570 134 122 125 397 
1571 228 38 39 116 
1572 198 44 43 123 
1573 62 139 63 210 
1574 217 61 62 142 
1575 195 79 239 80 
1576 151 55 56 235 
1577 147 60 59 199 
1578 180 170 174 397 
1579 45 46 124 214 
1580 215 74 73 197 
1581 216 65 66 173 
1582 224 220 4 399 
1583 126 47 48 220 
1584 176 68 67 218 
1585 200 221 75 76 
1586 51 52 152 175 
1587 194 204 198 400 
1588 238 234 244 404 
1589 219 150 63 64 
1590 166 173 181 401 
1591 213 74 188 75 
1592 66 211 164 67 
1593 115 46 47 212 
1594 156 150 146 402 
1595 131 121 126 399 
1596 26 183 72 244 
1597 134 22 36 180 
1598 21 33 181 133 
1599 44 23 132 204 
1600 24 48 224 131 
1601 138 54 55 229 
1602 79 226 78 189 
1603 59 58 141 186 
1604 162 51 50 140 
1605 156 28 64 222 
1606 182 25 68 223 
1607 157 61 25 223 
1608 76 28 206 222 
1609 157 149 142 403 
1610 123 132 127 400 
1611 159 56 27 247 
1612 60 27 207 159 
1613 183 26 52 158 
1614 80 207 27 247 
1615 246 40 23 132 
1616 175 171 183 404 
1617 69 22 245 180 
1618 159 147 151 405 
1619 156 57 28 206 
1620 23 246 204 77 
1621 244 53 26 158 
1622 157 25 49 182 
1623 37 22 134 245 
1624 73 24 224 205 
1625 225 45 21 133 
1626 195 199 207 405 
1627 225 21 65 181 
1628 205 41 24 131 
1629 399 524 10 372 
1630 399 10 524 4 
1631 394 128 383 130 
1632 394 383 128 372 
1633 7 403 523 2 
1634 7 523 403 375 
1635 6 523 403 2 
1636 6 403 523 375 
1637 208 400 393 194 
1638 393 400 208 376 
1639 404 248 395 378 
1640 404 395 248 234 
1641 399 191 394 372 
1642 399 394 191 190 
1643 118 401 396 117 
1644 396 401 118 373 
1645 390 169 178 179 
1646 390 178 169 382 
1647 145 395 154 155 
1648 154 395 145 384 
1649 390 404 177 175 
1650 177 404 390 378 
1651 401 65 173 181 
1652 401 173 65 216 
3 2 4 769
1653 415 417 409 423 
1654 315 415 409 423 
1655 315 417 415 423 
1656 252 358 349 430 
1657 16 17 416 425 
1658 16 416 20 425 
1659 358 252 258 430 
1660 19 5 1 408 
1661 314 417 414 426 
1662 407 420 419 431 
1663 370 349 358 430 
1664 18 11 407 422 
1665 419 420 413 431 
1666 411 424 421 429 
1667 421 424 414 429 
1668 329 413 345 420 
1669 406 419 407 420 
1670 345 420 413 433 
1671 345 338 420 433 
1672 11 4 18 434 
1673 406 413 419 420 
1674 20 410 416 418 
1675 290 424 411 429 
1676 10 18 407 418 
1677 406 409 417 423 
1678 409 416 17 425 
1679 11 18 407 434 
1680 20 416 410 425 
1681 17 409 415 416 
1682 370 358 412 430 
1683 1 12 19 408 
1684 304 415 408 436 
1685 363 370 421 430 
1686 272 419 412 430 
1687 10 215 418 434 
1688 417 421 414 426 
1689 409 416 410 424 
1690 410 416 409 425 
1691 406 417 414 423 
1692 370 412 421 430 
1693 346 418 407 420 
1694 291 424 290 429 
1695 18 407 416 422 
1696 19 5 408 415 
1697 2 7 217 438 
1698 406 415 409 416 
1699 219 8 3 440 
1700 18 416 407 418 
1701 272 265 419 430 
1702 329 413 420 431 
1703 330 329 345 420 
1704 265 419 430 431 
1705 411 406 421 424 
1706 305 412 417 426 
1707 414 421 406 424 
1708 314 321 417 426 
1709 306 417 315 423 
1710 414 423 289 424 
1711 5 1 408 436 
1712 411 420 338 433 
1713 412 421 417 426 
1714 412 426 305 432 
1715 414 417 406 421 
1716 10 4 215 434 
1717 305 417 412 428 
1718 408 415 304 417 
1719 406 409 415 417 
1720 254 303 428 436 
1721 328 346 407 420 
1722 305 428 412 432 
1723 289 414 285 423 
1724 19 415 408 416 
1725 329 420 328 431 
1726 411 406 413 421 
1727 328 420 407 431 
1728 408 416 415 417 
1729 285 414 289 439 
1730 411 413 406 420 
1731 409 406 416 424 
1732 214 422 12 436 
1733 19 15 416 422 
1734 410 427 339 440 
1735 18 416 15 422 
1736 20 9 410 418 
1737 410 416 406 424 
1738 17 409 6 415 
1739 407 418 416 420 
1740 266 419 407 422 
1741 304 428 303 436 
1742 315 423 409 438 
1743 406 413 412 419 
1744 291 281 290 424 
1745 314 321 306 417 
1746 409 423 406 424 
1747 304 408 428 436 
1748 304 311 322 415 
1749 10 418 407 434 
1750 416 418 410 420 
1751 20 416 14 418 
1752 217 425 278 438 
1753 415 416 406 417 
1754 219 288 425 440 
1755 285 423 414 439 
1756 412 413 406 421 
1757 363 421 413 430 
1758 406 423 414 424 
1759 11 407 422 434 
1760 251 254 303 428 
1761 329 330 328 420 
1762 314 312 414 423 
1763 407 419 266 431 
1764 290 411 424 427 
1765 407 419 416 422 
1766 304 311 415 436 
1767 330 345 338 420 
1768 214 12 1 436 
1769 251 303 300 428 
1770 416 419 408 422 
1771 17 415 13 416 
1772 413 430 419 431 
1773 412 406 417 421 
1774 19 416 408 422 
1775 5 415 216 436 
1776 272 256 412 419 
1777 5 408 415 436 
1778 339 418 410 440 
1779 298 291 290 429 
1780 410 420 339 427 
1781 369 421 414 429 
1782 409 424 410 425 
1783 300 310 261 428 
1784 408 406 416 417 
1785 12 408 1 436 
1786 409 415 315 438 
1787 19 408 12 422 
1788 406 407 416 420 
1789 346 335 407 418 
1790 298 290 411 429 
1791 352 370 412 421 
1792 5 211 216 415 
1793 6 218 211 415 
1794 322 304 415 417 
1795 261 251 300 428 
1796 215 335 418 434 
1797 285 312 423 439 
1798 301 309 359 426 
1799 339 410 418 420 
1800 266 273 419 422 
1801 369 414 353 439 
1802 6 218 415 438 
1803 408 417 304 428 
1804 302 218 307 415 
1805 218 307 415 438 
1806 369 353 414 421 
1807 333 338 433 437 
1808 12 422 408 436 
1809 408 419 273 422 
1810 406 416 410 420 
1811 316 306 315 423 
1812 302 211 218 415 
1813 314 414 312 439 
1814 278 425 409 438 
1815 369 353 355 439 
1816 6 415 409 438 
1817 410 425 288 440 
1818 309 359 426 439 
1819 9 410 418 440 
1820 282 414 289 429 
1821 327 259 431 434 
1822 215 326 213 418 
1823 412 419 256 428 
1824 14 416 18 418 
1825 408 416 406 419 
1826 305 417 321 426 
1827 310 261 428 432 
1828 411 433 338 437 
1829 412 419 413 430 
1830 363 370 354 421 
1831 407 406 416 419 
1832 281 291 289 424 
1833 19 13 415 416 
1834 362 421 411 433 
1835 273 408 255 419 
1836 345 433 413 435 
1837 411 427 290 437 
1838 335 328 346 407 
1839 359 348 301 426 
1840 286 427 336 437 
1841 332 433 345 435 
1842 336 427 411 437 
1843 412 352 421 426 
1844 324 327 250 431 
1845 266 422 407 434 
1846 214 263 422 436 
1847 338 336 411 437 
1848 9 418 221 440 
1849 272 412 256 432 
1850 7 409 17 425 
1851 15 19 12 422 
1852 18 15 11 422 
1853 8 20 410 425 
1854 331 221 418 440 
1855 338 411 340 420 
1856 411 420 406 424 
1857 265 431 430 435 
1858 414 423 312 439 
1859 272 265 257 419 
1860 286 290 427 437 
1861 420 424 411 427 
1862 413 420 411 433 
1863 356 350 283 429 
1864 363 430 413 435 
1865 221 326 331 418 
1866 311 216 415 436 
1867 350 275 283 429 
1868 277 323 336 427 
1869 282 289 414 439 
1870 353 414 421 426 
1871 272 256 258 432 
1872 407 418 335 434 
1873 370 358 352 412 
1874 314 316 312 423 
1875 335 328 407 434 
1876 296 289 423 424 
1877 322 415 315 417 
1878 411 421 362 429 
1879 321 308 305 426 
1880 408 406 417 419 
1881 335 327 328 434 
1882 363 413 357 435 
1883 413 421 412 430 
1884 221 213 326 418 
1885 304 300 303 428 
1886 282 289 291 429 
1887 338 336 340 411 
1888 13 16 17 416 
1889 16 14 20 416 
1890 363 364 413 421 
1891 288 284 410 440 
1892 286 277 336 427 
1893 7 17 16 425 
1894 8 16 20 425 
1895 212 214 253 422 
1896 267 266 419 431 
1897 283 356 429 437 
1898 310 428 305 432 
1899 255 419 408 428 
1900 327 259 250 431 
1901 221 9 213 418 
1902 215 213 10 418 
1903 353 421 352 426 
1904 314 309 426 439 
1905 314 426 414 439 
1906 340 411 336 427 
1907 362 433 411 437 
1908 272 257 256 419 
1909 340 420 411 427 
1910 280 284 297 427 
1911 329 345 413 435 
1912 352 412 358 432 
1913 337 339 427 440 
1914 308 305 426 432 
1915 352 426 412 432 
1916 280 410 284 427 
1917 315 313 423 438 
1918 310 300 305 428 
1919 352 351 426 432 
1920 303 251 83 254 
1921 307 315 415 438 
1922 11 422 220 434 
1923 264 422 266 434 
1924 338 333 336 437 
1925 19 13 5 415 
1926 17 6 13 415 
1927 298 411 290 437 
1928 280 288 284 410 
1929 303 251 300 83 
1930 284 427 410 440 
1931 412 417 406 419 
1932 278 409 287 438 
1933 264 220 422 434 
1934 282 414 429 439 
1935 296 281 289 424 
1936 357 433 332 435 
1937 280 424 410 427 
1938 352 354 370 421 
1939 323 277 284 427 
1940 357 413 433 435 
1941 348 351 308 426 
1942 339 331 418 440 
1943 279 423 409 424 
1944 280 288 410 425 
1945 287 409 279 423 
1946 278 279 409 425 
1947 297 424 280 427 
1948 5 216 1 436 
1949 359 353 426 439 
1950 219 274 210 425 
1951 335 326 215 418 
1952 20 14 9 418 
1953 10 14 18 418 
1954 296 287 279 423 
1955 282 275 350 429 
1956 324 250 334 431 
1957 263 408 273 422 
1958 408 422 263 436 
1959 414 426 353 439 
1960 290 424 297 427 
1961 362 411 429 437 
1962 287 409 423 438 
1963 264 220 253 422 
1964 282 285 289 439 
1965 296 423 279 424 
1966 217 210 274 425 
1967 347 325 332 433 
1968 348 308 301 426 
1969 220 212 253 422 
1970 263 254 255 436 
1971 82 310 261 300 
1972 278 279 287 409 
1973 287 276 299 423 
1974 357 347 332 433 
1975 263 255 408 436 
1976 301 314 309 426 
1977 217 274 278 425 
1978 282 429 355 439 
1979 363 364 357 413 
1980 251 82 261 300 
1981 351 308 426 432 
1982 265 267 419 431 
1983 328 330 346 420 
1984 369 362 421 429 
1985 259 266 267 431 
1986 219 288 274 425 
1987 358 90 252 349 
1988 413 421 364 433 
1989 298 429 411 437 
1990 410 424 420 427 
1991 410 406 420 424 
1992 256 419 257 428 
1993 362 429 356 437 
1994 255 257 419 428 
1995 357 413 364 433 
1996 279 424 409 425 
1997 354 352 353 421 
1998 265 267 257 419 
1999 430 431 413 435 
2000 351 308 106 348 
2001 102 275 350 282 
2002 412 428 256 432 
2003 322 315 306 417 
2004 282 350 355 429 
2005 408 419 417 428 
2006 363 354 364 421 
2007 304 417 305 428 
2008 348 308 106 301 
2009 280 410 424 425 
2010 276 289 285 423 
2011 253 214 263 422 
2012 263 255 273 408 
2013 359 353 348 426 
2014 298 283 429 437 
2015 362 364 421 433 
2016 329 332 345 435 
2017 324 328 327 431 
2018 411 421 413 433 
2019 302 307 315 415 
2020 279 280 424 425 
2021 257 266 273 419 
2022 417 419 412 428 
2023 329 413 431 435 
2024 255 256 257 428 
2025 213 215 74 326 
2026 216 211 66 302 
2027 2 218 6 438 
2028 9 221 3 440 
2029 258 358 90 252 
2030 283 275 298 429 
2031 262 431 265 435 
2032 86 334 324 250 
2033 350 283 275 103 
2034 290 281 297 424 
2035 261 256 428 432 
2036 212 46 253 214 
2037 350 356 283 103 
2038 220 11 212 422 
2039 212 12 214 422 
2040 264 253 266 422 
2041 339 418 346 420 
2042 11 220 4 434 
2043 355 102 350 282 
2044 284 337 427 440 
2045 323 99 284 277 
2046 210 219 63 274 
2047 257 273 255 419 
2048 305 306 321 417 
2049 360 433 362 437 
2050 339 331 326 418 
2051 107 309 359 301 
2052 287 423 313 438 
2053 359 348 107 301 
2054 352 358 351 432 
2055 300 304 305 428 
2056 260 265 430 435 
2057 210 62 217 274 
2058 8 219 210 425 
2059 217 7 210 425 
2060 287 95 299 276 
2061 6 5 13 415 
2062 369 354 353 421 
2063 338 340 330 420 
2064 19 15 13 416 
2065 15 18 14 416 
2066 329 431 334 435 
2067 286 290 277 427 
2068 323 284 337 427 
2069 334 250 262 431 
2070 354 369 362 421 
2071 278 274 279 425 
2072 362 350 356 429 
2073 288 63 219 274 
2074 332 325 345 433 
2075 339 420 340 427 
2076 98 323 336 277 
2077 255 254 251 428 
2078 324 327 87 250 
2079 354 362 364 421 
2080 280 274 288 425 
2081 313 287 299 423 
2082 278 217 62 274 
2083 261 256 251 428 
2084 333 433 360 437 
2085 276 94 299 285 
2086 9 14 10 418 
2087 257 267 266 419 
2088 298 290 286 437 
2089 215 335 74 326 
2090 66 311 216 302 
2091 327 87 250 259 
2092 304 303 311 436 
2093 336 98 277 286 
2094 262 334 431 435 
2095 46 263 253 214 
2096 47 253 220 212 
2097 311 302 322 415 
2098 348 352 351 426 
2099 332 347 110 325 
2100 67 302 211 218 
2101 221 213 75 326 
2102 329 324 334 431 
2103 361 367 260 435 
2104 304 306 305 417 
2105 6 211 5 415 
2106 322 306 304 417 
2107 94 312 299 285 
2108 334 86 262 250 
2109 357 347 110 332 
2110 333 325 360 433 
2111 337 339 340 427 
2112 253 264 47 220 
2113 279 274 280 425 
2114 337 99 284 323 
2115 16 13 14 416 
2116 339 346 330 420 
2117 260 262 265 435 
2118 278 292 217 438 
2119 315 313 316 423 
2120 296 279 281 424 
2121 294 288 219 440 
2122 297 281 280 424 
2123 270 260 367 435 
2124 346 326 335 418 
2125 11 15 12 422 
2126 350 369 355 429 
2127 323 340 336 427 
2128 302 67 307 218 
2129 326 75 221 331 
2130 333 325 111 360 
2131 347 360 325 433 
2132 361 260 430 435 
2133 263 273 253 422 
2134 111 325 347 360 
2135 223 217 292 438 
2136 344 335 215 434 
2137 294 219 222 440 
2138 313 287 95 299 
2139 333 338 325 433 
2140 366 258 269 432 
2141 293 355 365 439 
2142 299 312 316 423 
2143 344 215 224 434 
2144 15 14 13 416 
2145 260 91 361 430 
2146 273 266 253 422 
2147 7 16 8 425 
2148 342 367 332 435 
2149 280 281 279 424 
2150 305 308 310 432 
2151 256 261 258 432 
2152 321 301 308 426 
2153 314 312 309 439 
2154 293 319 285 439 
2155 366 358 258 432 
2156 355 293 282 439 
2157 285 319 312 439 
2158 361 91 349 430 
2159 284 277 297 427 
2160 343 333 368 437 
2161 295 286 343 437 
2162 318 351 366 432 
2163 318 308 351 432 
2164 260 252 91 430 
2165 315 322 302 415 
2166 252 349 91 430 
2167 320 303 254 436 
2168 332 367 357 435 
2169 359 355 353 439 
2170 328 324 329 431 
2171 275 282 291 429 
2172 327 344 268 434 
2173 213 9 10 418 
2174 327 268 259 434 
2175 286 336 343 437 
2176 271 214 225 436 
2177 271 263 214 436 
2178 348 353 352 426 
2179 287 296 276 423 
2180 342 109 332 367 
2181 337 340 323 427 
2182 366 89 269 258 
2183 301 321 314 426 
2184 326 346 339 418 
2185 266 259 264 434 
2186 271 320 254 436 
2187 320 84 254 303 
2188 313 299 316 423 
2189 101 293 355 365 
2190 261 310 318 432 
2191 357 332 109 367 
2192 81 318 261 310 
2193 366 89 258 358 
2194 342 334 270 435 
2195 307 313 315 438 
2196 64 288 219 294 
2197 331 339 337 440 
2198 254 271 84 320 
2199 97 295 286 343 
2200 265 262 267 431 
2201 362 356 360 437 
2202 362 369 350 429 
2203 61 217 278 292 
2204 294 219 64 222 
2205 217 61 223 292 
2206 355 282 293 101 
2207 259 267 250 431 
2208 318 269 261 432 
2209 330 340 339 420 
2210 97 286 336 343 
2211 347 357 364 433 
2212 329 334 332 435 
2213 264 48 220 434 
2214 289 276 296 423 
2215 81 318 269 261 
2216 343 112 368 333 
2217 309 108 359 439 
2218 277 290 297 427 
2219 313 317 292 438 
2220 341 337 294 440 
2221 288 294 284 440 
2222 338 345 325 433 
2223 68 307 218 438 
2224 349 370 363 430 
2225 331 76 221 440 
2226 368 333 360 437 
2227 105 318 308 351 
2228 284 294 337 440 
2229 313 292 287 438 
2230 318 105 366 351 
2231 104 368 356 283 
2232 342 85 270 334 
2233 319 293 285 93 
2234 268 327 259 88 
2235 88 268 327 344 
2236 319 285 312 93 
2237 272 252 265 430 
2238 285 282 293 439 
2239 356 283 368 437 
2240 309 319 108 439 
2241 360 364 362 433 
2242 298 286 283 437 
2243 225 271 45 214 
2244 292 278 287 438 
2245 327 335 344 434 
2246 359 108 365 439 
2247 217 223 2 438 
2248 3 222 219 440 
2249 368 104 295 283 
2250 223 68 218 438 
2251 221 76 222 440 
2252 336 333 343 437 
2253 224 220 48 434 
2254 65 225 216 436 
2255 357 367 361 435 
2256 224 215 4 434 
2257 224 344 73 215 
2258 212 11 12 422 
2259 264 268 48 434 
2260 262 270 334 435 
2261 262 250 267 431 
2262 368 283 295 437 
2263 365 108 319 439 
2264 341 100 294 337 
2265 251 256 255 428 
2266 68 317 307 438 
2267 341 76 331 440 
2268 313 317 96 292 
2269 284 294 100 337 
2270 270 367 342 435 
2271 263 45 271 214 
2272 333 112 368 360 
2273 275 291 298 429 
2274 335 73 344 215 
2275 210 7 8 425 
2276 251 83 82 300 
2277 1 225 214 436 
2278 351 358 366 432 
2279 292 96 313 287 
2280 318 366 269 432 
2281 252 260 265 430 
2282 332 110 357 109 
2283 349 363 361 430 
2284 89 258 358 90 
2285 83 254 84 303 
2286 262 270 85 334 
2287 282 355 102 101 
2288 336 98 286 97 
2289 65 320 225 436 
2290 268 224 48 434 
2291 223 317 68 438 
2292 308 106 105 351 
2293 341 222 76 440 
2294 254 263 271 436 
2295 91 260 361 92 
2296 364 360 347 433 
2297 327 87 259 88 
2298 107 348 106 301 
2299 359 309 107 108 
2300 365 319 293 439 
2301 94 312 285 93 
2302 295 343 368 437 
2303 223 292 317 438 
2304 341 294 222 440 
2305 268 344 224 434 
2306 90 91 252 349 
2307 283 356 104 103 
2308 262 260 270 435 
2309 225 1 216 436 
2310 32 368 295 343 
2311 366 29 318 269 
2312 270 30 342 367 
2313 31 293 365 319 
2314 271 225 320 436 
2315 317 223 25 292 
2316 320 271 21 225 
2317 28 341 294 222 
2318 24 224 268 344 
2319 310 261 81 82 
2320 103 275 350 102 
2321 318 310 308 432 
2322 261 269 258 432 
2323 218 2 223 438 
2324 221 222 3 440 
2325 331 75 221 76 
2326 307 67 68 218 
2327 63 62 210 274 
2328 217 62 61 278 
2329 112 333 111 360 
2330 263 46 45 214 
2331 66 311 65 216 
2332 73 335 74 215 
2333 99 284 100 337 
2334 4 220 224 434 
2335 287 96 313 95 
2336 86 324 87 250 
2337 264 48 47 220 
2338 312 319 309 439 
2339 359 365 355 439 
2340 86 262 85 334 
2341 342 332 334 435 
2342 219 63 288 64 
2343 211 66 302 67 
2344 75 213 74 326 
2345 320 311 303 436 
2346 47 46 253 212 
2347 268 264 259 434 
2348 319 365 31 108 
2349 29 81 318 269 
2350 270 92 30 367 
2351 104 32 368 295 
2352 84 271 21 320 
2353 48 24 224 268 
2354 347 110 325 111 
2355 76 341 28 222 
2356 223 25 68 317 
2357 61 25 223 292 
2358 294 64 28 222 
2359 95 94 299 276 
2360 368 32 112 343 
2361 30 342 85 270 
2362 368 360 356 437 
2363 28 341 100 294 
2364 29 318 105 366 
2365 295 283 286 437 
2366 31 293 319 93 
2367 97 32 295 343 
2368 30 109 342 367 
2369 29 366 89 269 
2370 96 317 25 292 
2371 344 24 224 73 
2372 99 323 98 277 
2373 271 45 21 225 
2374 21 65 320 225 
2375 88 24 268 344 
2376 101 31 293 365 
2377 307 317 313 438 
2378 341 331 337 440 
2379 430 258 272 252 
2380 434 18 10 4 
2381 434 10 18 407 
2382 6 438 17 2 
2383 6 17 438 409 
2384 7 17 438 2 
2385 7 438 17 409 
2386 9 440 20 410 
2387 9 20 440 3 
2388 8 20 440 410 
2389 8 440 20 3 
2390 429 289 424 414 
2391 429 424 289 291 
2392 439 369 429 355 
2393 439 429 369 414 
2394 438 425 7 217 
2395 438 7 425 409 
2396 425 440 8 219 
2397 8 440 425 410 
2398 423 414 306 417 
2399 314 306 414 417 
2400 434 328 431 327 
2401 434 431 328 407 
2402 302 216 415 311 
2403 302 415 216 211 
2404 358 432 430 258 
2405 358 430 432 412 
2406 272 430 432 258 
2407 272 432 430 412 
2408 299 285 423 276 
2409 423 285 299 312 
2410 423 314 306 414 
2411 423 306 314 316 
2412 436 255 428 254 
2413 436 428 255 408 
2414 431 434 266 407 
2415 266 434 431 259 
2416 435 363 361 357 
2417 435 361 363 430 
2418 260 367 92 270 
2419 92 367 260 361 
2420 436 65 311 216 
2421 436 311 65 320 
$EndElements
