$MeshFormat
4.1 0 8
$EndMeshFormat
$Entities
0 0 1 0
1 0 0 0 1 1 0 0 0 
$EndEntities
$Nodes
1 4 1 4
2 1 0 4
1
2
3
4
0 0 0
1 0 0
1 1 0
0 1 0
$EndNodes
$Elements
1 2 1 2
2 1 2 2
1 1 2 3 
2 1 3 4 
$EndElements
$InterpolationScheme
"INTERPOLATION_SCHEME"
1
3
2
3 3
1 -1 -1 
0 1 0 
0 0 1 
3 2
0 0 
1 0 
0 1 
$EndInterpolationScheme
$NodeData
1
"some data"
1
0
4
0
1
4
0
1 10
2 10
3 12
4 13
$EndNodeData
$NodeData
1
"some data"
1
0
4
1
1
4
0
1 10
2 10
3 13
4 14
$EndNodeData
$NodeData
1
"some data"
1
0
4
2
1
4
0
1 10
2 10
3 14
4 15
$EndNodeData
$NodeData
1
"some data"
1
0
4
3
1
4
0
1 10
2 10
3 15
4 16
$EndNodeData
$NodeData
1
"some data"
1
0
4
4
1
4
0
1 10
2 10
3 16
4 17
$EndNodeData
$NodeData
1
"some data"
1
0
4
5
1
4
0
1 10
2 10
3 17
4 18
$EndNodeData
$NodeData
1
"some data"
1
0
4
6
1
4
0
1 10
2 10
3 18
4 19
$EndNodeData
$NodeData
1
"some data"
1
0
4
7
1
4
0
1 10
2 10
3 19
4 20
$EndNodeData
$NodeData
1
"some data"
1
0
4
8
1
4
0
1 10
2 10
3 20
4 21
$EndNodeData
$NodeData
1
"some data"
1
0
4
9
1
4
0
1 10
2 10
3 21
4 22
$EndNodeData
