$MeshFormat
4.1 0 8
$EndMeshFormat
$Entities
8 12 6 1
1 0 0 2 0 
2 0 0 0 0 
3 0 2 2 0 
4 0 2 0 0 
5 2 0 2 0 
6 2 0 0 0 
7 2 2 2 0 
8 2 2 0 0 
1 -1e-07 -1e-07 -9.999999994736442e-08 1e-07 1e-07 2.0000001 0 2 2 -1 
2 -1e-07 -9.999999994736442e-08 1.9999999 1e-07 2.0000001 2.0000001 0 2 1 -3 
3 -1e-07 1.9999999 -9.999999994736442e-08 1e-07 2.0000001 2.0000001 0 2 4 -3 
4 -1e-07 -9.999999994736442e-08 -1e-07 1e-07 2.0000001 1e-07 0 2 2 -4 
5 1.9999999 -1e-07 -9.999999994736442e-08 2.0000001 1e-07 2.0000001 0 2 6 -5 
6 1.9999999 -9.999999994736442e-08 1.9999999 2.0000001 2.0000001 2.0000001 0 2 5 -7 
7 1.9999999 1.9999999 -9.999999994736442e-08 2.0000001 2.0000001 2.0000001 0 2 8 -7 
8 1.9999999 -9.999999994736442e-08 -1e-07 2.0000001 2.0000001 1e-07 0 2 6 -8 
9 -9.999999994736442e-08 -1e-07 -1e-07 2.0000001 1e-07 1e-07 0 2 2 -6 
10 -9.999999994736442e-08 -1e-07 1.9999999 2.0000001 1e-07 2.0000001 0 2 1 -5 
11 -9.999999994736442e-08 1.9999999 -1e-07 2.0000001 2.0000001 1e-07 0 2 4 -8 
12 -9.999999994736442e-08 1.9999999 1.9999999 2.0000001 2.0000001 2.0000001 0 2 3 -7 
1 -1e-07 -9.999999994736442e-08 -9.999999994736442e-08 1e-07 2.0000001 2.0000001 0 4 -1 4 3 -2 
2 1.9999999 -9.999999994736442e-08 -9.999999994736442e-08 2.0000001 2.0000001 2.0000001 0 4 -5 8 7 -6 
3 -9.999999994736442e-08 -1e-07 -9.999999994736442e-08 2.0000001 1e-07 2.0000001 0 4 -9 1 10 -5 
4 -9.999999994736442e-08 1.9999999 -9.999999994736442e-08 2.0000001 2.0000001 2.0000001 0 4 -11 3 12 -7 
5 -9.999999994736442e-08 -9.999999994736442e-08 -1e-07 2.0000001 2.0000001 1e-07 0 4 -4 9 8 -11 
6 -9.999999994736442e-08 -9.999999994736442e-08 1.9999999 2.0000001 2.0000001 2.0000001 0 4 -2 10 6 -12 
1 -9.999999994736442e-08 -9.999999994736442e-08 -9.999999994736442e-08 2.0000001 2.0000001 2.0000001 0 6 -1 2 -3 4 -5 6 
$EndEntities
$Nodes
27 315 1 315
0 1 0 1
1
0 0 2
0 2 0 1
2
0 0 0
0 3 0 1
3
0 2 2
0 4 0 1
4
0 2 0
0 5 0 1
5
2 0 2
0 6 0 1
6
2 0 0
0 7 0 1
7
2 2 2
0 8 0 1
8
2 2 0
1 1 0 12
9
10
11
12
13
14
15
16
17
18
19
20
0 0 0.5646283746387781
0 0 0.9721534605684333
0 0 1.266287861682237
0 0 1.478581745151005
0 0 1.631806526538602
0 0 1.742397726815259
0 0 1.82221779911879
0 0 1.879828578110435
0 0 1.921409607573096
0 0 1.951421050166639
0 0 1.973082045348837
0 0 1.988716039639144
1 2 0 12
21
22
23
24
25
26
27
28
29
30
31
32
0 0.01128396036085647 2
0 0.02691795465116274 2
0 0.04857894983336052 2
0 0.07859039242690354 2
0 0.1201714218895647 2
0 0.1777822008812096 2
0 0.2576022731847392 2
0 0.3681934734613953 2
0 0.5214182548489897 2
0 0.7337121383177571 2
0 1.027846539431561 2
0 1.435371625361215 2
1 3 0 1
33
0 2 1
1 4 0 1
34
0 1 0
1 5 0 12
35
36
37
38
39
40
41
42
43
44
45
46
2 0 0.5646283746387781
2 0 0.9721534605684333
2 0 1.266287861682237
2 0 1.478581745151005
2 0 1.631806526538602
2 0 1.742397726815259
2 0 1.82221779911879
2 0 1.879828578110435
2 0 1.921409607573096
2 0 1.951421050166639
2 0 1.973082045348837
2 0 1.988716039639144
1 6 0 12
47
48
49
50
51
52
53
54
55
56
57
58
2 0.01128396036085647 2
2 0.02691795465116274 2
2 0.04857894983336052 2
2 0.07859039242690354 2
2 0.1201714218895647 2
2 0.1777822008812096 2
2 0.2576022731847392 2
2 0.3681934734613953 2
2 0.5214182548489897 2
2 0.7337121383177571 2
2 1.027846539431561 2
2 1.435371625361215 2
1 7 0 1
59
2 2 1
1 8 0 1
60
2 1 0
1 9 0 1
61
1 0 0
1 10 0 12
62
63
64
65
66
67
68
69
70
71
72
73
0.01128396036085647 0 2
0.02691795465116274 0 2
0.04857894983336052 0 2
0.07859039242690354 0 2
0.1201714218895647 0 2
0.1777822008812096 0 2
0.2576022731847392 0 2
0.3681934734613953 0 2
0.5214182548489897 0 2
0.7337121383177571 0 2
1.027846539431561 0 2
1.435371625361215 0 2
1 11 0 1
74
1 2 0
1 12 0 1
75
1 2 2
2 1 0 49
76
77
78
79
80
81
82
83
84
85
86
87
88
89
90
91
92
93
94
95
96
97
98
99
100
101
102
103
104
105
106
107
108
109
110
111
112
113
114
115
116
117
118
119
120
121
122
123
124
0 0.8807793388746588 1.780710120178259
0 0.4448058641551925 1.885764328977215
0 0.2140595715000832 1.939712457655039
0 0.09938090715823412 1.9689995502398
0 0.1600488074478494 1.37714674444237
0 0.082450499610683 1.68710212667693
0 0.04295131298437451 1.851023188614613
0 0.03774845224226163 1.983850795841469
0 0.02258632135539416 1.937108901370609
0 0.3329542313982116 0.7897131724469917
0 0.01165462000858639 1.980637159747747
0 0.0157126462136709 1.962251547757738
0 0.04075471293647877 1.959675925561596
0 0.05150741952405725 1.925693067457889
0 0.0629793454631314 1.977676572123942
0 0.1458223486653296 1.95682780973915
0 0.1626391348358454 1.891298439156347
0 0.2430094111250618 1.856473939479108
0 0.1657619415701944 1.799092127493177
0 0.2629489118862298 1.752040056760345
0 0.06633314787936659 1.793430754354394
0 0.1111475649640891 1.555194135844804
0 0.2910163393657662 1.497628704547091
0 0.3693464467964365 1.337346849774012
0 0.5392361703405237 1.497548810256522
0 0.6136900555616753 1.125086429699183
0 0.6207521495954074 1.851640550660576
0 1.164359221742551 1.763111452883855
0 0.3139647639681489 1.916950670378578
0 0.9219427313828789 1.449006865937984
0 1.232048172969944 1.030090068398605
0 1.487980667751593 1.561239459475678
0 0.50116645644112 1.731551625110964
0 0.02965288102980702 1.900326769334878
0 0.209916680085771 1.655256251691263
0 0.2460065902006954 1.144622419768871
0 0.09998283339871142 1.920285836854885
0 0.09975676716391807 1.857004603226006
0 0.07146436212053038 1.951342467777097
0 0.02006440545010448 1.988884952436584
0 0.06477024282017366 1.890866693097654
0 0.3560978719028839 1.65368233401272
0 0.6962707350715354 1.677780155093649
0 1.5 0.4781917823224011
0 0.8407430041766335 0.6284532723853091
0 0.434739447114969 0.3965589638942158
0 0.3543662448091011 1.805222722083712
0 0.009463862141960154 1.990536137858032
0 0.02531350765347952 1.974806942912462
2 2 0 49
125
126
127
128
129
130
131
132
133
134
135
136
137
138
139
140
141
142
143
144
145
146
147
148
149
150
151
152
153
154
155
156
157
158
159
160
161
162
163
164
165
166
167
168
169
170
171
172
173
2 0.8807793388746588 1.780710120178259
2 0.4448058641551925 1.885764328977215
2 0.2140595715000832 1.939712457655039
2 0.09938090715823412 1.9689995502398
2 0.1600488074478494 1.37714674444237
2 0.082450499610683 1.68710212667693
2 0.04295131298437451 1.851023188614613
2 0.03774845224226163 1.983850795841469
2 0.02258632135539416 1.937108901370609
2 0.3329542313982116 0.7897131724469917
2 0.01165462000858639 1.980637159747747
2 0.0157126462136709 1.962251547757738
2 0.04075471293647877 1.959675925561596
2 0.05150741952405725 1.925693067457889
2 0.0629793454631314 1.977676572123942
2 0.1458223486653296 1.95682780973915
2 0.1626391348358454 1.891298439156347
2 0.2430094111250618 1.856473939479108
2 0.1657619415701944 1.799092127493177
2 0.2629489118862298 1.752040056760345
2 0.06633314787936659 1.793430754354394
2 0.1111475649640891 1.555194135844804
2 0.2910163393657662 1.497628704547091
2 0.3693464467964365 1.337346849774012
2 0.5392361703405237 1.497548810256522
2 0.6136900555616753 1.125086429699183
2 0.6207521495954074 1.851640550660576
2 1.164359221742551 1.763111452883855
2 0.3139647639681489 1.916950670378578
2 0.9219427313828789 1.449006865937984
2 1.232048172969944 1.030090068398605
2 1.487980667751593 1.561239459475678
2 0.50116645644112 1.731551625110964
2 0.02965288102980702 1.900326769334878
2 0.209916680085771 1.655256251691263
2 0.2460065902006954 1.144622419768871
2 0.09998283339871142 1.920285836854885
2 0.09975676716391807 1.857004603226006
2 0.07146436212053038 1.951342467777097
2 0.02006440545010448 1.988884952436584
2 0.06477024282017366 1.890866693097654
2 0.3560978719028839 1.65368233401272
2 0.6962707350715354 1.677780155093649
2 1.5 0.4781917823224011
2 0.8407430041766335 0.6284532723853091
2 0.434739447114969 0.3965589638942158
2 0.3543662448091011 1.805222722083712
2 0.009463862141960154 1.990536137858032
2 0.02531350765347952 1.974806942912462
2 3 0 67
174
175
176
177
178
179
180
181
182
183
184
185
186
187
188
189
190
191
192
193
194
195
196
197
198
199
200
201
202
203
204
205
206
207
208
209
210
211
212
213
214
215
216
217
218
219
220
221
222
223
224
225
226
227
228
229
230
231
232
233
234
235
236
237
238
239
240
0.8828522471352638 0 1.764554452915124
0.4484874997704064 0 1.883268564514935
0.2176922370329744 0 1.940490695757329
0.09842014737659791 0 1.968706222131454
0.1582742246614911 0 1.372434803416621
0.08353130349973617 0 1.692112550692432
1.780710120178259 0 1.119220661125335
0.04089127397279325 0 1.853623258446979
0.03774845224226148 0 1.983850795841469
1.871486363294826 0 1.57992072652095
1.928401365878537 0 1.752543645858061
0.02134284033688853 0 1.937781840366196
0.2831967407815231 0 0.8082064507789886
0.01129236316448362 0 1.980510573449674
1.697637528827253 0 0.7780048916120927
1.416377589504697 0 1.009823445389649
1.515324147202838 0 1.370573927663654
1.151031622225775 0 1.264483770958795
1.060836564377291 0 0.9727512044753523
0.7712295471753162 0 1.174212283376636
1.2221800114721 0 1.658165340089632
0.01620000678916112 0 1.962466737191659
0.0633271186617481 0 1.977450290115399
0.0732312714466081 0 1.941615021346939
0.1141387295520739 0 1.926390707284073
0.03098916391800399 0 1.90136246935042
0.06120929774025974 0 1.784005651599235
0.1509691211725538 0 1.775618484630757
0.2015152910877779 0 1.650372874908415
0.2528774700877185 0 1.741153462468707
0.3444686567204745 0 1.654402793290325
0.3117420508965807 0 1.915388916786777
0.6290800900779219 0 1.834378758698238
0.6921729462889946 0 1.61585492529118
0.2024711259875461 0 1.14060334370478
0.03999833683809606 0 1.957378302069416
0.1155101073060016 0 1.553434658766811
0.07612501590068198 0 1.892644023310321
0.1367414767644828 0 1.861826655126431
0.3845078596874454 0 0.4087855550904275
0.4091366521670986 0 1.295979992371879
1.835970490223859 0 1.376338212343323
0.495843422842337 0 1.719923051771899
0.1493663410884029 0 1.958541017226327
0.4765839285355369 0 1.525478453409719
1.573527791553431 0 1.696479414494889
1.249548472716817 0 0.6534623161196623
1.787912089030509 0 1.712796614404703
1.792357455755944 0 1.879442936369129
1.975468382627253 0 1.916883275235272
0.7260977521391921 0 0.7397162010786301
0.8979347404841272 0 1.474780213078434
1.589437200308814 0 0.3992191164741066
0.02037818295242003 0 1.988277833220215
0.2281482651133998 0 1.853715377675232
0.1686178506716041 0 1.91184950493448
1.884470836740008 0 1.858397050431721
1.677228720960311 0 1.509995912753471
0.4784263636501352 0 1.031743654262183
0.2842481434130634 0 1.508683929360628
0.09454202609867887 0 1.828479629229569
1.947415785059344 0 1.845496588064931
0.009463862141960032 0 1.990536137858033
0.04926931521196744 0 1.924674093894164
0.02512346839728446 0 1.974496848354487
0.3469278942384861 0 1.794642027751312
0.6494115629302147 0 1.417261173505569
2 4 0 4
241
242
243
244
1.5 2 1.5
0.7499999999999999 2 1.25
0.5625000000000002 2 0.5625
1.30859375 2 0.6914062499999998
2 5 0 4
245
246
247
248
1.5 1.5 0
1.25 0.7499999999999999 0
0.5625 0.5625000000000002 0
0.6914062499999998 1.30859375 0
2 6 0 67
249
250
251
252
253
254
255
256
257
258
259
260
261
262
263
264
265
266
267
268
269
270
271
272
273
274
275
276
277
278
279
280
281
282
283
284
285
286
287
288
289
290
291
292
293
294
295
296
297
298
299
300
301
302
303
304
305
306
307
308
309
310
311
312
313
314
315
0.2192898798217408 0.8807793388746588 2
0.1142356710227853 0.4448058641551925 2
0.2176922370329744 0.0595093042426713 2
1.761377431798771 0.8695999638745113 2
0.09842014737659724 0.03129377786854522 2
0.6166568484662485 0.1669323123099065 2
0.04175523800615858 0.1447047407068354 2
0.03774845224226163 0.01614920415853085 2
1.874627208436059 0.4515567673284122 2
1.956745932836579 0.198088456423148 2
0.02134284033688876 0.06221815963380393 2
1.227806121810471 0.2833295956002784 2
0.01129236316448378 0.01948942655032575 2
0.9202861459900273 0.324647020313789 2
1.06772051528084 0.5436534942202834 2
0.8342039454089273 0.5667185707980665 2
0.9061305094513459 0.7867609118950697 2
1.361089319273031 0.541155722096316 2
0.08245049961068208 0.3128978733230673 2
0.210658436516753 0.3281997879755782 2
0.2625573032292487 0.5029198277440521 2
0.4024628743359483 0.3653854510818918 2
0.4457843147700228 0.5442174659078826 2
0.1942721724488128 0.2009934137846328 2
0.4382691156773174 0.160597068143307 2
1.695069446781068 1.220616261536273 2
1.427374466152979 1.015860602931821 2
0.01620000678916067 0.03753326280833931 2
0.06332711866174805 0.02254970988460022 2
0.07323127144660642 0.05838497865305994 2
0.111121544743972 0.08242340039784879 2
0.03113315792356507 0.0983588638418826 2
0.05021552320727843 0.2062331190166831 2
0.3081214613874388 0.09718306810549372 2
0.2273275625016937 1.176071383806881 2
0.54322605592663 0.9881541978633565 2
0.03999833683809613 0.04262169793058228 2
0.06770605627185668 0.1034477092331309 2
0.1076210933695893 0.1558689537044348 2
1.564722113312675 0.3069898093113537 2
1.648103173561119 0.5716804048385423 2
0.3092454683062562 0.2162374498769508 2
1.848820171993561 0.6280931821254052 2
1.919778367435993 0.3128978733230672 2
1.860594566494489 0.1349730620376547 2
0.4527653992302346 1.502488985296465 2
0.1496540050233408 0.04962585992311248 2
0.143532521918364 0.6269260751422063 2
0.8867236537704422 1.393230634881101 2
0.2463879117918653 0.1451781321210514 2
0.1711248274017591 0.1155998440289586 2
0.02037818295242007 0.01172216677978351 2
0.6285163825971927 0.4124455078973271 2
0.6110205688378901 0.6615883190856529 2
1.223930457501722 0.7919667856126368 2
1.292641765074521 1.394738165528772 2
1.611260480810033 1.616753574334557 2
1.760925811605311 0.3586949092760601 2
0.3709017740839827 0.700764204102968 2
0.009463862141964 0.009463862141964 2
0.8032497703364471 0.1613665064209811 2
0.04668233256340261 0.07300628185849194 2
0.1155406406933194 0.2287516157623032 2
0.02512346839728445 0.02550315164551234 2
1.484374969657525 0.7580526958707655 2
1.073343377691245 1.083170584654656 2
0.5277731874175285 0.2957573950777955 2
3 1 0 0
$EndNodes
$Elements
26 713 1 713
0 1 15 1
1 1 
0 2 15 1
2 2 
0 3 15 1
3 3 
0 4 15 1
4 4 
0 5 15 1
5 5 
0 6 15 1
6 6 
0 7 15 1
7 7 
0 8 15 1
8 8 
1 1 1 13
9 2 9 
10 9 10 
11 10 11 
12 11 12 
13 12 13 
14 13 14 
15 14 15 
16 15 16 
17 16 17 
18 17 18 
19 18 19 
20 19 20 
21 20 1 
1 2 1 13
22 1 21 
23 21 22 
24 22 23 
25 23 24 
26 24 25 
27 25 26 
28 26 27 
29 27 28 
30 28 29 
31 29 30 
32 30 31 
33 31 32 
34 32 3 
1 3 1 2
35 4 33 
36 33 3 
1 4 1 2
37 2 34 
38 34 4 
1 5 1 13
39 6 35 
40 35 36 
41 36 37 
42 37 38 
43 38 39 
44 39 40 
45 40 41 
46 41 42 
47 42 43 
48 43 44 
49 44 45 
50 45 46 
51 46 5 
1 6 1 13
52 5 47 
53 47 48 
54 48 49 
55 49 50 
56 50 51 
57 51 52 
58 52 53 
59 53 54 
60 54 55 
61 55 56 
62 56 57 
63 57 58 
64 58 7 
1 7 1 2
65 8 59 
66 59 7 
1 8 1 2
67 6 60 
68 60 8 
1 9 1 2
69 2 61 
70 61 6 
1 10 1 13
71 1 62 
72 62 63 
73 63 64 
74 64 65 
75 65 66 
76 66 67 
77 67 68 
78 68 69 
79 69 70 
80 70 71 
81 71 72 
82 72 73 
83 73 5 
1 11 1 2
84 4 74 
85 74 8 
1 12 1 2
86 3 75 
87 75 7 
2 1 2 126
88 3 33 107 
89 106 105 107 
90 101 85 111 
91 94 81 96 
92 112 89 114 
93 33 106 107 
94 81 94 110 
95 89 112 116 
96 85 101 120 
97 94 96 113 
98 24 79 90 
99 82 16 109 
100 26 78 91 
101 96 82 113 
102 30 76 102 
103 91 78 92 
104 32 3 107 
105 85 10 111 
106 19 20 86 
107 22 23 83 
108 17 18 84 
109 24 25 79 
110 15 16 82 
111 26 27 78 
112 13 14 81 
113 28 29 77 
114 11 12 80 
115 30 31 76 
116 18 19 87 
117 14 15 96 
118 27 28 104 
119 12 13 97 
120 106 33 119 
121 23 24 90 
122 16 17 109 
123 25 26 91 
124 29 30 102 
125 1 21 123 
126 20 1 123 
127 88 83 90 
128 28 77 104 
129 94 95 110 
130 22 83 115 
131 10 11 111 
132 84 18 87 
133 81 14 96 
134 9 10 85 
135 80 12 97 
136 31 32 103 
137 83 88 124 
138 19 86 87 
139 15 82 96 
140 13 81 97 
141 21 22 115 
142 2 9 121 
143 91 92 112 
144 100 98 117 
145 101 106 120 
146 78 27 104 
147 82 109 116 
148 108 100 117 
149 90 79 114 
150 112 113 116 
151 79 112 114 
152 102 76 118 
153 84 87 88 
154 80 97 98 
155 92 94 113 
156 88 87 124 
157 105 100 118 
158 4 34 119 
159 98 97 110 
160 33 4 119 
161 76 103 105 
162 117 95 122 
163 76 105 118 
164 88 90 114 
165 108 117 122 
166 92 93 94 
167 77 108 122 
168 86 20 123 
169 97 81 110 
170 106 119 120 
171 93 104 122 
172 115 83 124 
173 93 78 104 
174 99 98 100 
175 113 82 116 
176 79 91 112 
177 77 102 108 
178 86 115 124 
179 100 108 118 
180 92 78 93 
181 83 23 90 
182 17 84 109 
183 79 25 91 
184 77 29 102 
185 104 77 122 
186 112 92 113 
187 84 88 89 
188 101 100 105 
189 11 80 111 
190 89 88 114 
191 94 93 95 
192 95 93 122 
193 76 31 103 
194 87 86 124 
195 103 32 107 
196 80 98 99 
197 9 85 121 
198 99 100 101 
199 85 120 121 
200 109 89 116 
201 110 95 117 
202 84 89 109 
203 120 34 121 
204 21 115 123 
205 101 105 106 
206 108 102 118 
207 80 99 111 
208 119 34 120 
209 98 110 117 
210 115 86 123 
211 34 2 121 
212 99 101 111 
213 105 103 107 
2 2 2 126
214 7 59 156 
215 155 154 156 
216 150 134 160 
217 143 130 145 
218 161 138 163 
219 59 155 156 
220 130 143 159 
221 138 161 165 
222 134 150 169 
223 143 145 162 
224 50 128 139 
225 131 42 158 
226 52 127 140 
227 145 131 162 
228 56 125 151 
229 140 127 141 
230 58 7 156 
231 134 36 160 
232 45 46 135 
233 48 49 132 
234 43 44 133 
235 50 51 128 
236 41 42 131 
237 52 53 127 
238 39 40 130 
239 54 55 126 
240 37 38 129 
241 56 57 125 
242 44 45 136 
243 40 41 145 
244 53 54 153 
245 38 39 146 
246 155 59 168 
247 49 50 139 
248 42 43 158 
249 51 52 140 
250 55 56 151 
251 5 47 172 
252 46 5 172 
253 137 132 139 
254 54 126 153 
255 143 144 159 
256 48 132 164 
257 36 37 160 
258 133 44 136 
259 130 40 145 
260 35 36 134 
261 129 38 146 
262 57 58 152 
263 132 137 173 
264 45 135 136 
265 41 131 145 
266 39 130 146 
267 47 48 164 
268 6 35 170 
269 140 141 161 
270 149 147 166 
271 150 155 169 
272 127 53 153 
273 131 158 165 
274 157 149 166 
275 139 128 163 
276 161 162 165 
277 128 161 163 
278 151 125 167 
279 133 136 137 
280 129 146 147 
281 141 143 162 
282 137 136 173 
283 154 149 167 
284 8 60 168 
285 147 146 159 
286 59 8 168 
287 125 152 154 
288 166 144 171 
289 125 154 167 
290 137 139 163 
291 157 166 171 
292 141 142 143 
293 126 157 171 
294 135 46 172 
295 146 130 159 
296 155 168 169 
297 142 153 171 
298 164 132 173 
299 142 127 153 
300 148 147 149 
301 162 131 165 
302 128 140 161 
303 126 151 157 
304 135 164 173 
305 149 157 167 
306 141 127 142 
307 132 49 139 
308 43 133 158 
309 128 51 140 
310 126 55 151 
311 153 126 171 
312 161 141 162 
313 133 137 138 
314 150 149 154 
315 37 129 160 
316 138 137 163 
317 143 142 144 
318 144 142 171 
319 125 57 152 
320 136 135 173 
321 152 58 156 
322 129 147 148 
323 35 134 170 
324 148 149 150 
325 134 169 170 
326 158 138 165 
327 159 144 166 
328 133 138 158 
329 169 60 170 
330 47 164 172 
331 150 154 155 
332 157 151 167 
333 129 148 160 
334 168 60 169 
335 147 159 166 
336 164 135 172 
337 60 6 170 
338 148 150 160 
339 154 152 156 
2 3 2 173
340 73 72 194 
341 183 184 221 
342 72 174 194 
343 61 220 224 
344 203 204 239 
345 221 184 230 
346 193 225 240 
347 73 219 222 
348 205 176 228 
349 193 191 225 
350 190 180 215 
351 18 185 195 
352 16 181 199 
353 176 67 217 
354 14 179 200 
355 213 61 224 
356 201 212 234 
357 191 190 194 
358 192 191 193 
359 36 37 180 
360 204 216 239 
361 200 179 201 
362 196 182 209 
363 228 176 229 
364 197 196 209 
365 20 19 187 
366 64 63 182 
367 18 17 185 
368 66 65 177 
369 16 15 181 
370 68 67 176 
371 14 13 179 
372 70 69 175 
373 12 11 178 
374 10 186 208 
375 189 180 190 
376 72 71 174 
377 65 64 196 
378 69 68 205 
379 13 12 210 
380 195 185 209 
381 71 70 206 
382 219 221 222 
383 199 181 211 
384 19 18 195 
385 17 16 199 
386 67 66 217 
387 15 14 200 
388 205 228 239 
389 194 174 225 
390 6 35 226 
391 218 204 233 
392 41 42 235 
393 62 1 236 
394 1 20 236 
395 214 218 233 
396 12 178 210 
397 35 36 188 
398 182 63 227 
399 194 190 219 
400 212 201 228 
401 73 194 219 
402 11 10 208 
403 177 65 196 
404 175 69 205 
405 10 9 186 
406 207 206 216 
407 189 190 191 
408 37 38 215 
409 64 182 196 
410 68 176 205 
411 174 206 207 
412 63 62 227 
413 174 71 206 
414 200 201 234 
415 180 37 215 
416 70 175 206 
417 212 228 229 
418 178 214 233 
419 9 2 213 
420 36 180 188 
421 190 215 231 
422 179 13 210 
423 176 217 229 
424 214 193 240 
425 222 221 230 
426 188 180 189 
427 189 191 192 
428 177 196 197 
429 216 175 239 
430 223 230 235 
431 42 223 235 
432 195 209 238 
433 191 194 225 
434 198 197 211 
435 220 61 226 
436 199 211 237 
437 206 175 216 
438 225 207 240 
439 38 39 183 
440 193 214 232 
441 42 43 223 
442 209 182 238 
443 208 186 232 
444 40 41 184 
445 211 197 237 
446 214 208 232 
447 192 193 224 
448 178 208 214 
449 186 213 224 
450 202 210 233 
451 201 203 228 
452 201 202 203 
453 20 187 236 
454 216 204 218 
455 174 207 225 
456 228 203 239 
457 209 185 237 
458 202 179 210 
459 211 181 234 
460 218 214 240 
461 197 209 237 
462 182 227 238 
463 198 211 212 
464 38 183 215 
465 219 190 231 
466 204 202 233 
467 203 202 204 
468 210 178 233 
469 201 179 202 
470 187 19 195 
471 185 17 199 
472 66 177 217 
473 181 15 200 
474 207 216 218 
475 177 197 198 
476 183 221 231 
477 227 187 238 
478 178 11 208 
479 35 188 226 
480 215 183 231 
481 212 211 234 
482 175 205 239 
483 186 9 213 
484 189 192 220 
485 217 198 229 
486 224 193 232 
487 177 198 217 
488 227 62 236 
489 188 189 220 
490 198 212 229 
491 184 41 235 
492 230 184 235 
493 185 199 237 
494 181 200 234 
495 187 195 238 
496 188 220 226 
497 207 218 240 
498 186 224 232 
499 187 227 236 
500 221 219 231 
501 2 61 213 
502 61 6 226 
503 46 5 222 
504 5 73 222 
505 39 40 184 
506 183 39 184 
507 43 44 223 
508 44 45 223 
509 45 46 223 
510 46 222 230 
511 223 46 230 
512 220 192 224 
2 4 2 14
513 3 242 33 
514 75 242 3 
515 8 244 59 
516 74 244 8 
517 33 243 4 
518 4 243 74 
519 59 241 7 
520 7 241 75 
521 241 244 242 
522 59 244 241 
523 241 242 75 
524 242 244 243 
525 243 244 74 
526 242 243 33 
2 5 2 14
527 60 6 246 
528 6 61 246 
529 34 4 248 
530 4 74 248 
531 2 34 247 
532 61 2 247 
533 8 60 245 
534 74 8 245 
535 245 246 248 
536 74 245 248 
537 245 60 246 
538 246 247 248 
539 247 34 248 
540 246 61 247 
2 6 2 173
541 3 294 75 
542 254 309 301 
543 301 309 262 
544 70 273 69 
545 295 299 279 
546 260 262 72 
547 273 282 69 
548 73 260 72 
549 284 294 283 
550 265 314 284 
551 302 307 271 
552 264 301 262 
553 301 315 254 
554 251 299 295 
555 289 291 252 
556 279 299 287 
557 260 288 266 
558 284 297 294 
559 288 289 266 
560 257 291 289 
561 267 311 268 
562 23 276 259 
563 25 280 255 
564 251 295 67 
565 27 281 267 
566 260 263 262 
567 268 311 272 
568 249 307 284 
569 284 307 302 
570 284 302 265 
571 72 309 71 
572 289 306 257 
573 73 288 260 
574 57 252 56 
575 272 290 268 
576 252 313 289 
577 270 290 273 
578 32 294 3 
579 262 309 72 
580 284 314 297 
581 277 285 256 
582 278 285 277 
583 263 264 262 
584 21 261 22 
585 64 256 63 
586 23 259 24 
587 66 253 65 
588 25 255 26 
589 68 251 67 
590 301 302 271 
591 27 267 28 
592 28 250 29 
593 71 254 70 
594 31 283 32 
595 30 249 31 
596 69 282 68 
597 65 277 64 
598 260 266 263 
599 254 273 70 
600 276 285 259 
601 56 291 55 
602 252 291 56 
603 280 286 255 
604 22 276 23 
605 24 280 25 
606 67 295 66 
607 26 281 27 
608 7 305 58 
609 268 290 270 
610 1 308 21 
611 62 308 1 
612 58 274 57 
613 256 300 63 
614 29 296 30 
615 293 306 288 
616 264 302 301 
617 253 277 65 
618 30 296 249 
619 28 267 250 
620 57 274 252 
621 68 282 251 
622 64 277 256 
623 63 300 62 
624 273 290 282 
625 281 311 267 
626 274 275 252 
627 250 296 29 
628 275 313 252 
629 287 299 272 
630 253 278 277 
631 276 312 285 
632 267 268 250 
633 273 315 270 
634 304 305 75 
635 279 286 278 
636 280 310 286 
637 55 257 54 
638 288 306 289 
639 285 312 256 
640 53 258 52 
641 54 292 53 
642 294 297 75 
643 290 298 282 
644 286 310 278 
645 272 298 290 
646 292 306 293 
647 249 284 283 
648 55 291 257 
649 282 298 251 
650 21 308 261 
651 268 270 269 
652 289 313 266 
653 269 296 250 
654 270 271 269 
655 285 310 259 
656 296 307 249 
657 270 301 271 
658 278 310 285 
659 263 265 264 
660 256 312 300 
661 257 306 292 
662 266 303 263 
663 298 299 251 
664 249 283 31 
665 261 276 22 
666 259 280 24 
667 66 295 253 
668 255 281 26 
669 268 269 250 
670 272 311 287 
671 253 279 278 
672 286 287 255 
673 297 304 75 
674 300 312 261 
675 283 294 32 
676 255 287 281 
677 58 305 274 
678 254 315 273 
679 257 292 54 
680 270 315 301 
681 274 304 275 
682 266 313 303 
683 53 292 258 
684 292 293 258 
685 272 299 298 
686 265 302 264 
687 71 309 254 
688 253 295 279 
689 300 308 62 
690 275 314 303 
691 303 313 275 
692 303 314 265 
693 287 311 281 
694 263 303 265 
695 271 307 269 
696 259 310 280 
697 261 312 276 
698 274 305 304 
699 269 307 296 
700 304 314 275 
701 261 308 300 
702 297 314 304 
703 75 305 7 
704 47 293 5 
705 5 293 73 
706 48 293 47 
707 49 293 48 
708 50 293 49 
709 51 258 50 
710 258 293 50 
711 52 258 51 
712 73 293 288 
713 279 287 286 
$EndElements
$Periodic
9
0 5 1
16 1 0 0 2 0 1 0 0 0 0 1 0 0 0 0 1
1
5 1
0 6 2
16 1 0 0 2 0 1 0 0 0 0 1 0 0 0 0 1
1
6 2
0 7 3
16 1 0 0 2 0 1 0 0 0 0 1 0 0 0 0 1
1
7 3
0 8 4
16 1 0 0 2 0 1 0 0 0 0 1 0 0 0 0 1
1
8 4
1 5 1
16 1 0 0 2 0 1 0 0 0 0 1 0 0 0 0 1
14
5 1
6 2
35 9
36 10
37 11
38 12
39 13
40 14
41 15
42 16
43 17
44 18
45 19
46 20
1 6 2
16 1 0 0 2 0 1 0 0 0 0 1 0 0 0 0 1
14
5 1
7 3
47 21
48 22
49 23
50 24
51 25
52 26
53 27
54 28
55 29
56 30
57 31
58 32
1 7 3
16 1 0 0 2 0 1 0 0 0 0 1 0 0 0 0 1
3
7 3
8 4
59 33
1 8 4
16 1 0 0 2 0 1 0 0 0 0 1 0 0 0 0 1
3
6 2
8 4
60 34
2 2 1
16 1 0 0 2 0 1 0 0 0 0 1 0 0 0 0 1
79
5 1
6 2
7 3
8 4
35 9
36 10
37 11
38 12
39 13
40 14
41 15
42 16
43 17
44 18
45 19
46 20
47 21
48 22
49 23
50 24
51 25
52 26
53 27
54 28
55 29
56 30
57 31
58 32
59 33
60 34
125 76
126 77
127 78
128 79
129 80
130 81
131 82
132 83
133 84
134 85
135 86
136 87
137 88
138 89
139 90
140 91
141 92
142 93
143 94
144 95
145 96
146 97
147 98
148 99
149 100
150 101
151 102
152 103
153 104
154 105
155 106
156 107
157 108
158 109
159 110
160 111
161 112
162 113
163 114
164 115
165 116
166 117
167 118
168 119
169 120
170 121
171 122
172 123
173 124
$EndPeriodic
