$MeshFormat
4.1 0 8
$EndMeshFormat
$Entities
2 3 3 1
1 0.08000000000000002 -6.217248937900877e-17 0.4000000000000001 0 
2 0.1 -7.771561172376097e-17 0.05 0 
1 -0.07767534539408427 -0.07941670992784428 0.3999999999999999 0.08000000000000002 0.07941670992784433 0.4000000000000001 0 0 
2 0.08000000000000002 -8.826532520583476e-17 0.04999999999999999 0.1065355890870294 -4.601428977215714e-17 0.4000000000000001 0 2 1 -2 
3 -0.09709418174260534 -0.09927088740980533 0.04999999999999998 0.1 0.09927088740980539 0.05 0 0 
1 -0.1061766719193322 -0.1053570741461889 0.04999999999999999 0.1065355890870294 0.106527474130789 0.4000000000000001 0 2 1 3 
2 -0.07767534539408427 -0.07941670992784428 0.3999999999999999 0.08000000000000002 0.07941670992784433 0.4000000000000001 0 1 1 
3 -0.09709418174260534 -0.09927088740980533 0.006525909558709228 0.1 0.09927088740980539 0.05 0 1 3 
1 -0.1061766719193322 -0.1053570741461889 0.006525909558709214 0.1065355890870294 0.106527474130789 0.4000000000000001 0 3 1 2 3 
$EndEntities
$Nodes
9 224 1 224
0 1 0 1
1
0.08000000000000002 -6.217248937900877e-17 0.4000000000000001
0 2 0 1
2
0.1 -7.771561172376097e-17 0.05
1 1 0 12
3
4
5
6
7
8
9
10
11
12
13
14
0.07083648205225679 0.03717785376350149 0.4
0.04544517973849248 0.0658387092714925 0.4
0.009642934420425825 0.07941670992784433 0.4
-0.02836839096340289 0.07480129941483317 0.4
-0.05988085985368821 0.05304981265926349 0.4
-0.07767534539408426 0.0191452531430042 0.4
-0.07767534539408402 -0.01914525314300516 0.4
-0.0598808598536876 -0.05304981265926417 0.4
-0.02836839096340215 -0.07480129941483345 0.3999999999999999
0.009642934420426352 -0.07941670992784428 0.4
0.04544517973849275 -0.06583870927149234 0.4
0.07083648205225687 -0.03717785376350133 0.4000000000000001
1 2 0 8
15
16
17
18
19
20
21
22
0.1011675049535132 -6.97472890090187e-17 0.07565919829294307
0.1035360463344003 -8.826532520583476e-17 0.1071864045115073
0.105679012345679 -4.601428977215714e-17 0.1432098765432097
0.1065355890870294 -6.74555724069453e-17 0.1825407712238985
0.1054107605547935 -7.606914471726763e-17 0.2241731443377531
0.1019753086419753 -6.368362627363747e-17 0.2672839506172838
0.09626581313824117 -7.481356556123677e-17 0.3112330437433317
0.08868465172991925 -8.122928738217115e-17 0.3555631763450693
1 3 0 12
23
24
25
26
27
28
29
30
31
32
33
34
0.088545602565321 0.04647231720437686 0.04999999999999999
0.05680647467311561 0.08229838658936563 0.04999999999999999
0.01205366802553228 0.0992708874098054 0.04999999999999999
-0.03546048870425361 0.09350162426854147 0.04999999999999999
-0.07485107481711027 0.06631226582407936 0.04999999999999999
-0.09709418174260533 0.02393156642875525 0.04999999999999998
-0.09709418174260505 -0.02393156642875646 0.04999999999999999
-0.07485107481710949 -0.06631226582408022 0.04999999999999999
-0.03546048870425269 -0.09350162426854179 0.04999999999999998
0.01205366802553294 -0.09927088740980533 0.04999999999999998
0.05680647467311593 -0.0822983865893654 0.04999999999999999
0.0885456025653211 -0.04647231720437667 0.04999999999999998
2 1 0 123
35
36
37
38
39
40
41
42
43
44
45
46
47
48
49
50
51
52
53
54
55
56
57
58
59
60
61
62
63
64
65
66
67
68
69
70
71
72
73
74
75
76
77
78
79
80
81
82
83
84
85
86
87
88
89
90
91
92
93
94
95
96
97
98
99
100
101
102
103
104
105
106
107
108
109
110
111
112
113
114
115
116
117
118
119
120
121
122
123
124
125
126
127
128
129
130
131
132
133
134
135
136
137
138
139
140
141
142
143
144
145
146
147
148
149
150
151
152
153
154
155
156
157
0.09859615516633395 -0.03959254626397024 0.2031762856814303
0.09836166761233775 0.04018013096895799 0.2030546349917016
-0.08921353575205218 -0.04777236732323784 0.07610510622422505
-0.07685109731886218 0.04159952338316079 0.3624417675436421
-0.05739078652831925 0.08314490845549077 0.07366486107594952
-0.05004901738996381 -0.07250851958828812 0.3586569990317734
0.09224218896772422 -0.03696830560466077 0.2892925874062187
0.0971863911420634 -0.03901933025915528 0.124982369572683
0.09202614918683423 0.03753945043715551 0.2891865759792712
0.09695425973908751 0.03954973298684179 0.1247146966925772
-0.01461958198857689 -0.09995171043586305 0.07346972279488671
-0.01061981480269934 0.08746204369978039 0.3586569990317774
0.03582523557616261 0.094463382727507 0.07366486107594676
0.03014756187699286 -0.08247903019514569 0.3601842768655935
0.06600038280644231 0.059425105666941 0.3548856781866501
0.0756209935744707 -0.0669943543234866 0.07366486107594665
0.09627258388320724 0.0393135075874191 0.24556226478108
0.07508747245611624 0.07403073081999191 0.223520473241105
0.07597337856884193 0.07468533532644872 0.1824513974627109
0.04049509988106161 0.09825043434640761 0.202418320355034
0.03946627645995269 0.09613306015424575 0.2464506024956628
-0.001455748674391365 0.1053966285057907 0.2242499153485306
-0.00133644195989107 0.106527474130789 0.1808219839418397
-0.04338962448925594 0.09701362157420032 0.2021794639410005
-0.04246455339675317 0.09480526728816999 0.2469183841321616
-0.07782275819115302 0.07108968169037755 0.2242894976527212
-0.0785788950418925 0.07193822816738669 0.1802890865196388
-0.1005643613991004 0.03439324158422608 0.2018474910598275
-0.1005194308695526 0.03418789087256078 0.1568545253869059
-0.1061766719193322 -0.008723989520762317 0.1798740501006111
-0.1050479397237117 -0.00877128998459319 0.2241215804591863
-0.09344185375336334 -0.05063510956668008 0.2019954816377213
-0.0913392982173281 -0.04948355165812358 0.2469058156533681
-0.06500606244104075 -0.08298752795141799 0.2240577671768462
-0.06574784331708645 -0.08382692646310683 0.1802324349260953
-0.02703951396366598 -0.1027879947996185 0.2017682655464707
-0.02629346072480367 -0.1005490548031803 0.2463130160520733
-0.02702686127899994 -0.1027484749610796 0.1593779476871184
-0.1013162935366675 -0.008589140078470793 0.2700397562798371
0.01579752509176956 -0.1053570741461889 0.1800731332020346
0.01556386656488912 -0.1043418645779023 0.1391932000237355
-0.06514320185882827 -0.08297007687768319 0.1390150931992696
-0.1048478044487112 -0.009728460767238564 0.1351871713236912
-0.07512667806089091 0.06853479890022329 0.2699370854956878
-0.0775700054618529 0.071466945043763 0.1387137273890791
-0.08684348281969441 -0.04723922924511977 0.2931760390704645
0.05529521050003797 -0.09072728688346735 0.1596139342196526
-0.04006088295232436 0.09107684641721291 0.2883403046901297
0.05507962543466335 -0.08910246685944406 0.1254033332965748
-0.09503037842113442 -0.008143477056336662 0.3169486530638747
0.05513492513891492 -0.09086279687059677 0.2018808720242717
0.01512360821219589 -0.1020420033968277 0.1020352346373178
-0.07051572076828196 0.06427740897280639 0.3167172832112397
0.01572060647116423 -0.1042642560098679 0.223566271021632
0.01557772548179867 -0.100631717012608 0.2686462261132668
-0.0252071902195767 -0.09621414155559434 0.288623786987463
0.01505605560470403 -0.09449829551542362 0.3149636089130677
0.05308621345039893 -0.08406619522435703 0.2889062984067868
0.05466442488650158 -0.0884928360665931 0.2452464538807697
-0.0502402315487174 0.07153825713233966 0.3622856907412006
-0.06235503148757076 -0.08067400275401831 0.2674007714917351
-0.08173996660093977 -0.04382806994581563 0.3329116048665228
-0.001224259616437813 0.1016981258411935 0.2698026514959748
0.03886813226548076 0.09169386641301487 0.2876145244406801
-0.09832451407847179 0.03353295755930985 0.2468655385454558
-0.04310981732346534 0.09710677165127873 0.1594649658633152
-0.0007318213946735421 0.1055137687754064 0.1396173185383229
0.04079043105502024 0.09812542447477858 0.1602533851729488
0.04100398219042133 0.09608917035707272 0.1208810423020546
-1.173941758027548e-05 0.1031666484147582 0.1021691182981671
0.07293199930048888 0.07210433359336375 0.09414369716091515
-0.04165565919776101 0.09595264561542212 0.1229850140080071
-0.09420395919552718 0.03162838097383142 0.2893132997891302
0.09844454746620084 0.04015765348303699 0.1625290542600211
-0.09330626850787557 -0.05080462376471152 0.1592823190464733
-0.02650406826763286 -0.1010081608150631 0.1201816483235884
-0.05736347600544995 -0.08468948741488214 0.09063396279285675
-0.0895016579343995 -0.05269214447350789 0.1117409340897066
-0.1023825512860558 -0.009535343995106275 0.09764777432087957
-0.09860231747730722 0.03321154870119589 0.114414278579858
-0.09693095038663346 0.03153761285659015 0.08599353305605673
0.03507299367916222 -0.09460880721045281 0.07177062727560012
0.09655525464623008 -0.03860094971876873 0.2456233188957543
0.08580532693187851 -0.03500184291164467 0.3333719135802468
0.09883963875469642 -0.03918558854230451 0.1627009427388131
0.02957757000550194 0.08317555614152899 0.3577343868318522
-0.009115817522058738 -0.08717322559126665 0.3610687681884657
0.07272838926237549 0.07144704520066955 0.2675094420628515
0.0001216134536843806 0.09570974836453497 0.3148377240090101
-0.07495033423632015 0.07089544787416628 0.1021924607951454
0.07503263134112967 0.07398311479880372 0.1366573236094553
-0.05771256995665103 -0.07652891236965144 0.3139297923951979
-0.01216218555551597 0.1001646096757732 0.07176514261971052
0.06518860380141905 -0.05973775910461538 0.3569760712281168
-0.08754504249129488 -5.550104980543085e-16 0.3616142156336019
0.08623561477999066 0.03392789236918593 0.3333719135802467
0.0706238446839907 0.06680523753741896 0.3048874285579177
0.09519665118677093 -0.03745345520654952 0.09077932098765426
0.09568544351787694 0.03618645606952868 0.09077932098765425
0.07532778556073155 0.06673459469015737 0.06761540077609775
0.07773817376674057 -0.06599730465861017 0.2672883909856138
0.08053706615706763 -0.0680051831671549 0.2242181982263921
0.0816573689694684 -0.06842499358307712 0.1821890979417495
-0.1006565801026817 -0.001987490088798334 0.06826236472230153
0.05279112607999242 -0.07705296744083151 0.3290603023237239
0.08142426855656119 -0.06736573417092567 0.14320987654328
0.08017097752941466 -0.06549422681259542 0.1069976872961955
-0.03302595699119856 0.08717001473866208 0.3301636146550359
-0.0347076901477257 0.09632954993274932 0.09197678459742437
-0.05709381592590521 -0.08271467226175271 0.06536233644377376
-0.09017290371156607 0.02429004911269731 0.3291526690459045
-0.02845689591143072 -0.08917380442880363 0.3278587159767388
0.09523654885081376 0.03252159336925001 0.0676049113581097
0.08162165670490064 0.0279463563760942 0.3682550344027804
0.09521355499664584 -0.03260007266693931 0.06766522291248951
0.05624309954051583 -0.0856576131266126 0.09302542971277661
0.08193131680203984 -0.0289307020900635 0.3650525968360084
0.07529443793286837 -0.06028155708961101 0.3100034390531652
0.04213379547062916 0.08480748625536676 0.3212141838920762
-0.07520267145487058 -0.03949556968657146 0.3750994105065951
0.04528052844964942 0.09214949341358038 0.09565412800657005
-0.08087312765829897 0.06008699067752463 0.06947474534415103
-0.02652866297082014 -0.09909783257674704 0.09452762012953399
2 2 0 14
158
159
160
161
162
163
164
165
166
167
168
169
170
171
-0.006186922174320339 -0.04540348981614804 0.4
-0.005382646677753432 0.04433008368756925 0.4
0.04335806110463581 -0.01068680224628049 0.4
-0.04636788000392891 9.598050725831764e-05 0.4
0.0308977845980349 0.02766450892835385 0.4000000000000001
-0.0512071507699998 -0.02687558596668071 0.4
-0.02352055691850641 -0.01986372375920522 0.4000000000000001
-0.01399443087871364 0.0123979839000767 0.4000000000000001
0.009739880501469058 -0.01268299982993793 0.4
0.02692645216397537 -0.03912988462118665 0.3999999999999999
-0.03494051460964686 0.03497730377910611 0.4
0.05629592174385541 0.01354231051306766 0.4
-0.03285197264485789 -0.0475942990743162 0.3999999999999999
0.02015702187851737 0.05433432224703773 0.4
2 3 0 15
172
173
174
175
176
177
178
179
180
181
182
183
184
185
186
0.02002367523945637 -0.05510245802056562 0.02898543818489968
-0.006707081897908857 0.05523778907178353 0.02746954738901851
0.05462707910547372 0.01318551358170992 0.0277501207784251
-0.04926986597335521 -0.02585882046984568 0.02746954738901847
-0.04926986597335537 0.02585882046984507 0.0274695473890184
-0.04100222143577895 -0.05940197292935625 0.03586848522910726
-0.01263325468200532 -0.0358932567403907 0.01853392300677625
0.02042305948340398 -0.01071884849274635 0.01092163096539733
-0.01311992620737449 0.005961928207606226 0.006525909558709228
0.05273951504890857 -0.03192005193480751 0.03051894341740035
0.02050799524396585 0.02236003233495969 0.01461716537998546
0.0376389562859166 0.05313748769866681 0.03228175620362931
-0.07318202385798024 -4.639530732317443e-16 0.03637807215887834
-0.04157212784815706 0.06022762490856233 0.03637807215887836
-0.008700190750089225 -0.07165251727246368 0.03586848522910732
3 1 0 38
187
188
189
190
191
192
193
194
195
196
197
198
199
200
201
202
203
204
205
206
207
208
209
210
211
212
213
214
215
216
217
218
219
220
221
222
223
224
0.009582563353240238 0.03576012267795577 0.2463844895281431
0.001470786165886112 -0.000529550253704575 0.1441326595291196
0.01707634865720309 -0.006122288862732365 0.3173090985898102
-0.0006105223714508634 -0.02654274659242366 0.07894802556549969
-0.002399483693041787 -0.03033218265335021 0.212024395019201
-0.03215923365512305 -0.01417899879884099 0.2712458379093674
0.006091912640039928 0.03878487458998112 0.07131495648266124
-0.02904101291895103 0.02927690031080171 0.1952542262435561
0.03684900186823542 -0.01986033342671209 0.2587138375915078
0.03723138689888116 0.01782157257742586 0.1942332541499611
-0.03771359582464982 -0.00194332899933506 0.3392757085979627
0.04309679937436317 0.008369884076866665 0.1065074556301952
-0.037645476267559 0.01655736437496096 0.1055703412318302
-0.01806392226162489 0.03641761190692638 0.2988318766519072
-0.04817749016713387 -0.0002830162151329893 0.06231976165323089
0.04468730511884077 0.0105509142360588 0.3530188781042933
0.03140047613999523 -0.04183911028047228 0.1717313522527677
0.006323965813858782 0.04912904545227166 0.1223286361040765
-0.02501258914871156 -0.04574853531730835 0.16743816506435
0.01052076802586818 -0.04935773478761962 0.1262473661284671
0.03879490876358658 -0.001124711717830098 0.05953926110255891
0.003952886673178518 -0.05003192596653773 0.2892232142778032
-0.008791992811086202 -0.0426771369550506 0.3418823255961361
-0.0001626035336324521 0.03007938507809659 0.350229828683546
-0.05427424387106397 0.001599138644418877 0.1573301107847245
0.04263040657091052 0.02491891360951263 0.2845457113468893
-0.04433422096199189 0.03439811661759977 0.2464379630638168
0.05526870153674249 0.0005956831623423283 0.1525022708772663
-0.03085985858998316 -0.04361511363216561 0.0589842628799743
0.008948394592709094 0.05437816187801185 0.1698186173674173
-0.05152186776389762 -0.01088581520850006 0.2211544372599369
0.04994493766681993 -0.02908069509428709 0.213586043464946
-0.03986849307458745 -0.03284913721101509 0.1235206588630144
-0.03477785442606409 0.04313564178506458 0.05885054649993405
-0.0351189697850128 0.04747006338460717 0.1485551403142029
0.0537838241985802 0.01899983649636263 0.2369131931170655
-0.03841804021184141 -0.03403541366897652 0.363900278065678
0.03072366353423134 -0.04797212947464823 0.06247080216926905
$EndNodes
$Elements
9 1108 1 1108
0 1 15 1
1 1 
0 2 15 1
2 2 
1 1 1 13
3 1 3 
4 3 4 
5 4 5 
6 5 6 
7 6 7 
8 7 8 
9 8 9 
10 9 10 
11 10 11 
12 11 12 
13 12 13 
14 13 14 
15 14 1 
1 2 1 9
16 2 15 
17 15 16 
18 16 17 
19 17 18 
20 18 19 
21 19 20 
22 20 21 
23 21 22 
24 22 1 
1 3 1 13
25 2 23 
26 23 24 
27 24 25 
28 25 26 
29 26 27 
30 27 28 
31 28 29 
32 29 30 
33 30 31 
34 31 32 
35 32 33 
36 33 34 
37 34 2 
2 1 2 288
38 1 148 3 
39 14 151 1 
40 22 148 1 
41 1 151 22 
42 2 147 15 
43 15 149 2 
44 23 147 2 
45 2 149 34 
46 3 49 4 
47 3 148 49 
48 4 120 5 
49 49 120 4 
50 5 46 6 
51 5 120 46 
52 6 94 7 
53 46 94 6 
54 7 38 8 
55 7 94 38 
56 8 129 9 
57 38 129 8 
58 9 154 10 
59 129 154 9 
60 10 40 11 
61 10 154 40 
62 11 121 12 
63 40 121 11 
64 12 48 13 
65 12 121 48 
66 13 128 14 
67 48 128 13 
68 128 151 14 
69 16 132 15 
70 15 133 16 
71 132 149 15 
72 15 147 133 
73 17 42 16 
74 16 44 17 
75 42 132 16 
76 16 133 44 
77 17 108 18 
78 18 119 17 
79 17 119 42 
80 44 108 17 
81 19 35 18 
82 18 36 19 
83 35 119 18 
84 18 108 36 
85 19 51 20 
86 20 117 19 
87 19 117 35 
88 36 51 19 
89 21 41 20 
90 20 43 21 
91 41 117 20 
92 20 51 43 
93 22 118 21 
94 21 130 22 
95 21 118 41 
96 43 130 21 
97 22 151 118 
98 130 148 22 
99 24 134 23 
100 134 147 23 
101 25 47 24 
102 47 134 24 
103 26 127 25 
104 25 127 47 
105 27 39 26 
106 39 127 26 
107 28 156 27 
108 27 156 39 
109 29 138 28 
110 28 138 115 
111 115 156 28 
112 30 37 29 
113 37 138 29 
114 31 144 30 
115 30 144 37 
116 32 45 31 
117 45 144 31 
118 33 116 32 
119 32 116 45 
120 34 50 33 
121 50 116 33 
122 34 149 50 
123 117 136 35 
124 35 137 119 
125 136 137 35 
126 36 52 51 
127 36 53 52 
128 36 108 53 
129 111 112 37 
130 37 144 111 
131 112 113 37 
132 113 138 37 
133 38 94 87 
134 87 145 38 
135 38 145 129 
136 124 143 39 
137 39 156 124 
138 39 143 127 
139 96 126 40 
140 40 154 96 
141 40 146 121 
142 126 146 40 
143 41 135 117 
144 118 152 41 
145 41 152 135 
146 119 140 42 
147 42 141 132 
148 140 141 42 
149 51 122 43 
150 122 131 43 
151 43 131 130 
152 105 125 44 
153 44 133 105 
154 44 125 108 
155 45 116 86 
156 86 157 45 
157 111 144 45 
158 45 157 111 
159 46 142 94 
160 120 123 46 
161 123 142 46 
162 47 127 104 
163 104 155 47 
164 105 134 47 
165 47 155 105 
166 48 121 91 
167 91 139 48 
168 48 139 128 
169 49 153 120 
170 130 131 49 
171 49 148 130 
172 131 153 49 
173 50 150 116 
174 132 141 50 
175 50 149 132 
176 141 150 50 
177 52 122 51 
178 53 54 52 
179 54 55 52 
180 55 122 52 
181 53 102 54 
182 53 125 102 
183 108 125 53 
184 54 56 55 
185 54 57 56 
186 54 102 57 
187 56 97 55 
188 97 98 55 
189 98 122 55 
190 57 58 56 
191 58 59 56 
192 59 97 56 
193 57 100 58 
194 57 101 100 
195 57 102 101 
196 58 60 59 
197 58 61 60 
198 58 100 61 
199 60 78 59 
200 78 82 59 
201 82 97 59 
202 61 62 60 
203 62 99 60 
204 60 99 78 
205 61 63 62 
206 61 79 63 
207 61 100 79 
208 63 64 62 
209 64 65 62 
210 65 99 62 
211 63 77 64 
212 63 114 77 
213 79 114 63 
214 64 66 65 
215 64 109 66 
216 77 109 64 
217 66 67 65 
218 67 73 65 
219 73 99 65 
220 66 68 67 
221 66 69 68 
222 66 109 69 
223 68 95 67 
224 67 80 73 
225 67 95 80 
226 69 70 68 
227 70 71 68 
228 71 95 68 
229 69 72 70 
230 69 76 72 
231 69 109 76 
232 70 88 71 
233 72 74 70 
234 74 88 70 
235 88 89 71 
236 89 90 71 
237 90 95 71 
238 72 75 74 
239 72 110 75 
240 76 110 72 
241 80 84 73 
242 84 107 73 
243 73 107 99 
244 75 81 74 
245 81 85 74 
246 85 88 74 
247 75 83 81 
248 75 86 83 
249 75 110 86 
250 109 112 76 
251 76 111 110 
252 76 112 111 
253 77 112 109 
254 77 113 112 
255 77 114 113 
256 78 87 82 
257 78 107 87 
258 99 107 78 
259 100 106 79 
260 106 124 79 
261 79 124 114 
262 80 96 84 
263 95 126 80 
264 80 126 96 
265 83 140 81 
266 81 137 85 
267 81 140 137 
268 87 142 82 
269 82 123 97 
270 82 142 123 
271 86 150 83 
272 83 141 140 
273 83 150 141 
274 96 129 84 
275 84 145 107 
276 129 145 84 
277 85 93 88 
278 85 136 93 
279 85 137 136 
280 110 157 86 
281 116 150 86 
282 94 142 87 
283 107 145 87 
284 88 93 89 
285 89 91 90 
286 89 92 91 
287 89 93 92 
288 91 146 90 
289 90 126 95 
290 90 146 126 
291 92 139 91 
292 121 146 91 
293 93 135 92 
294 135 152 92 
295 92 152 139 
296 93 136 135 
297 96 154 129 
298 97 123 98 
299 98 131 122 
300 123 153 98 
301 98 153 131 
302 101 106 100 
303 102 103 101 
304 103 104 101 
305 104 106 101 
306 102 125 103 
307 103 155 104 
308 103 125 105 
309 105 155 103 
310 104 143 106 
311 127 143 104 
312 133 134 105 
313 106 143 124 
314 111 157 110 
315 114 115 113 
316 115 138 113 
317 114 124 115 
318 124 156 115 
319 135 136 117 
320 118 151 128 
321 128 152 118 
322 137 140 119 
323 120 153 123 
324 139 152 128 
325 133 147 134 
2 2 2 39
326 3 169 1 
327 1 160 14 
328 1 169 160 
329 4 162 3 
330 162 169 3 
331 5 171 4 
332 4 171 162 
333 6 159 5 
334 159 171 5 
335 7 168 6 
336 6 168 159 
337 8 168 7 
338 9 161 8 
339 161 168 8 
340 10 163 9 
341 9 163 161 
342 11 170 10 
343 10 170 163 
344 12 158 11 
345 158 170 11 
346 13 167 12 
347 12 167 158 
348 14 167 13 
349 160 167 14 
350 158 166 164 
351 164 170 158 
352 158 167 166 
353 159 165 162 
354 162 171 159 
355 159 168 165 
356 162 166 160 
357 160 169 162 
358 166 167 160 
359 163 164 161 
360 164 165 161 
361 165 168 161 
362 165 166 162 
363 163 170 164 
364 164 166 165 
2 3 2 41
365 23 2 174 
366 2 34 181 
367 174 2 181 
368 24 23 183 
369 23 174 183 
370 25 24 183 
371 26 25 173 
372 173 25 183 
373 27 26 185 
374 26 173 185 
375 28 27 176 
376 176 27 185 
377 29 28 184 
378 28 176 184 
379 30 29 175 
380 175 29 184 
381 31 30 177 
382 30 175 177 
383 32 31 186 
384 31 177 186 
385 33 32 172 
386 172 32 186 
387 34 33 181 
388 33 172 181 
389 172 178 179 
390 178 172 186 
391 172 179 181 
392 176 173 180 
393 173 176 185 
394 180 173 182 
395 182 173 183 
396 179 174 181 
397 174 179 182 
398 174 182 183 
399 175 176 180 
400 176 175 184 
401 177 175 178 
402 178 175 180 
403 177 178 186 
404 179 178 180 
405 179 180 182 
3 1 4 703
406 88 195 191 208 
407 93 195 88 208 
408 128 202 189 209 
409 89 93 88 208 
410 141 198 190 206 
411 71 88 191 208 
412 190 198 141 224 
413 191 192 71 208 
414 71 89 88 208 
415 128 167 202 209 
416 128 118 189 202 
417 141 206 190 224 
418 41 118 21 189 
419 126 192 80 197 
420 128 189 139 209 
421 140 42 206 214 
422 198 206 42 214 
423 126 192 197 209 
424 41 189 21 212 
425 42 198 141 206 
426 54 187 56 216 
427 132 141 198 207 
428 202 210 153 212 
429 187 194 56 216 
430 41 152 189 195 
431 152 118 41 189 
432 187 54 196 216 
433 41 195 189 212 
434 141 207 132 224 
435 56 194 187 213 
436 198 207 141 224 
437 126 208 192 209 
438 140 42 141 206 
439 58 194 56 213 
440 54 52 187 196 
441 131 202 153 212 
442 21 189 118 202 
443 141 150 206 224 
444 153 210 200 212 
445 189 195 152 208 
446 107 197 192 200 
447 58 56 59 213 
448 84 192 107 197 
449 67 95 68 217 
450 94 197 87 210 
451 152 139 189 208 
452 95 71 192 208 
453 67 192 95 217 
454 52 187 196 222 
455 187 192 195 212 
456 178 179 180 215 
457 157 215 190 224 
458 191 205 68 217 
459 97 59 187 213 
460 143 199 193 204 
461 143 106 199 204 
462 56 187 59 213 
463 197 200 87 210 
464 153 200 98 212 
465 48 128 139 209 
466 125 204 214 216 
467 189 208 139 209 
468 128 151 118 202 
469 190 193 180 201 
470 179 190 180 215 
471 143 193 199 220 
472 180 193 190 207 
473 74 191 88 203 
474 86 190 157 206 
475 98 200 187 212 
476 97 187 98 200 
477 66 68 205 217 
478 88 191 85 203 
479 42 132 141 198 
480 41 21 20 212 
481 94 38 87 197 
482 128 167 160 202 
483 187 200 192 212 
484 58 56 194 216 
485 126 95 192 208 
486 68 191 70 205 
487 189 195 192 212 
488 97 187 200 213 
489 92 152 195 208 
490 74 88 85 203 
491 70 68 71 191 
492 97 200 59 213 
493 41 20 195 212 
494 140 206 203 214 
495 73 107 84 192 
496 128 160 151 202 
497 55 54 52 187 
498 80 192 84 197 
499 142 94 87 210 
500 126 80 96 197 
501 142 87 200 210 
502 180 190 179 207 
503 92 152 135 195 
504 69 66 68 205 
505 41 135 152 195 
506 74 70 88 191 
507 70 191 74 205 
508 189 202 21 212 
509 143 199 124 220 
510 126 209 197 223 
511 187 192 191 195 
512 157 190 86 224 
513 166 202 167 209 
514 125 214 53 216 
515 88 85 191 218 
516 107 200 192 213 
517 145 197 107 200 
518 190 207 198 224 
519 191 203 74 205 
520 191 192 187 217 
521 167 128 48 209 
522 53 214 196 216 
523 157 45 215 224 
524 94 168 197 210 
525 192 200 189 212 
526 153 202 49 210 
527 86 206 150 224 
528 70 71 88 191 
529 83 141 150 206 
530 125 204 198 214 
531 126 95 80 192 
532 190 201 180 215 
533 143 106 124 199 
534 119 35 214 218 
535 55 56 54 187 
536 187 196 194 216 
537 193 198 105 204 
538 191 195 192 208 
539 66 205 211 217 
540 155 193 105 204 
541 119 35 18 214 
542 168 38 94 197 
543 131 49 153 202 
544 190 188 198 199 
545 35 18 214 218 
546 42 16 132 198 
547 191 187 194 217 
548 88 93 85 218 
549 85 203 191 218 
550 140 141 83 206 
551 86 190 206 224 
552 157 111 190 215 
553 58 57 56 216 
554 132 198 16 207 
555 105 198 193 207 
556 192 213 187 217 
557 125 108 53 214 
558 119 214 203 218 
559 183 134 193 207 
560 110 86 157 206 
561 191 194 187 196 
562 145 87 197 200 
563 145 107 87 200 
564 197 209 164 223 
565 103 198 125 204 
566 98 55 122 187 
567 96 126 197 223 
568 73 84 80 192 
569 153 123 200 210 
570 97 82 59 200 
571 130 21 202 212 
572 107 192 73 213 
573 98 187 122 212 
574 179 207 190 224 
575 69 68 70 205 
576 134 105 193 207 
577 189 210 202 212 
578 188 194 191 196 
579 103 105 198 204 
580 187 191 196 222 
581 187 195 191 222 
582 152 92 139 208 
583 112 215 201 219 
584 190 198 193 199 
585 171 120 162 210 
586 131 130 202 212 
587 123 98 153 200 
588 19 196 18 218 
589 145 84 107 197 
590 74 75 72 206 
591 191 194 188 205 
592 74 205 203 206 
593 201 215 190 219 
594 74 72 205 206 
595 105 133 198 207 
596 126 90 95 208 
597 187 213 194 217 
598 157 86 45 224 
599 122 187 55 222 
600 166 209 197 210 
601 157 190 111 219 
602 56 97 59 187 
603 189 197 192 209 
604 164 197 166 209 
605 196 214 18 218 
606 19 36 18 196 
607 113 201 199 219 
608 189 192 208 209 
609 82 59 200 213 
610 73 213 192 217 
611 120 171 162 49 
612 92 135 93 195 
613 194 205 191 217 
614 174 147 134 207 
615 103 155 105 204 
616 92 195 93 208 
617 198 199 188 204 
618 133 134 147 207 
619 15 132 16 207 
620 98 97 55 187 
621 159 46 171 210 
622 52 122 55 222 
623 190 198 188 206 
624 193 199 198 204 
625 52 55 187 222 
626 197 209 189 210 
627 107 78 200 213 
628 45 186 215 224 
629 191 195 218 222 
630 191 218 196 222 
631 99 213 73 217 
632 178 186 172 215 
633 108 196 53 214 
634 194 211 205 217 
635 87 38 145 197 
636 180 201 193 220 
637 74 203 75 206 
638 182 193 180 207 
639 153 49 120 210 
640 134 133 105 207 
641 188 196 191 203 
642 103 105 125 198 
643 183 174 134 207 
644 182 183 193 207 
645 86 83 150 206 
646 58 60 194 213 
647 62 211 194 217 
648 111 190 215 219 
649 104 143 193 204 
650 58 216 194 221 
651 64 66 211 217 
652 130 43 21 212 
653 57 54 56 216 
654 139 208 91 209 
655 54 53 52 196 
656 19 36 196 222 
657 17 198 42 214 
658 196 218 19 222 
659 95 90 71 208 
660 125 102 204 216 
661 188 214 204 216 
662 131 130 49 202 
663 188 205 194 211 
664 37 201 112 215 
665 200 210 189 212 
666 122 212 187 222 
667 133 16 198 207 
668 123 97 98 200 
669 46 120 171 210 
670 100 216 58 221 
671 106 199 204 221 
672 113 112 201 219 
673 166 160 167 202 
674 162 49 202 210 
675 73 192 67 217 
676 107 73 99 213 
677 140 203 119 214 
678 133 15 16 207 
679 108 18 36 196 
680 16 42 17 198 
681 42 140 119 214 
682 125 53 102 216 
683 172 215 186 224 
684 53 196 54 216 
685 56 55 97 187 
686 58 59 60 213 
687 63 211 199 221 
688 93 135 136 195 
689 104 106 143 204 
690 18 196 108 214 
691 81 203 140 206 
692 20 117 195 222 
693 62 64 211 217 
694 62 61 194 211 
695 192 195 189 208 
696 74 81 75 203 
697 174 149 15 207 
698 93 195 136 218 
699 72 205 206 219 
700 66 205 109 211 
701 63 199 79 221 
702 192 197 189 200 
703 165 166 164 197 
704 22 21 118 202 
705 94 46 159 210 
706 117 41 20 195 
707 168 161 38 197 
708 194 213 62 217 
709 190 199 193 201 
710 146 208 126 209 
711 81 75 203 206 
712 136 135 117 195 
713 92 93 89 208 
714 96 80 84 197 
715 182 180 179 207 
716 199 201 190 219 
717 132 207 149 224 
718 67 80 95 192 
719 188 199 190 219 
720 106 79 199 221 
721 107 78 87 200 
722 47 183 134 193 
723 180 193 182 220 
724 65 99 73 217 
725 35 19 18 218 
726 198 188 206 214 
727 195 212 20 222 
728 61 58 194 221 
729 60 62 194 213 
730 21 43 20 212 
731 146 90 126 208 
732 79 124 106 199 
733 188 190 206 219 
734 94 142 46 210 
735 114 199 63 211 
736 72 206 110 219 
737 175 184 138 201 
738 100 57 58 216 
739 73 80 67 192 
740 113 199 77 219 
741 44 125 198 214 
742 182 174 183 207 
743 20 19 117 222 
744 110 157 111 219 
745 162 120 49 210 
746 79 63 114 199 
747 117 19 218 222 
748 165 166 197 210 
749 117 218 195 222 
750 52 196 36 222 
751 117 136 195 218 
752 142 200 123 210 
753 188 203 191 205 
754 186 116 172 224 
755 194 211 61 221 
756 45 116 186 224 
757 198 204 188 214 
758 170 158 121 223 
759 182 193 173 220 
760 99 62 213 217 
761 114 77 199 211 
762 104 193 155 204 
763 194 196 188 216 
764 153 98 131 212 
765 38 161 129 197 
766 173 47 127 193 
767 61 100 58 221 
768 199 201 115 220 
769 47 134 105 193 
770 178 215 172 224 
771 124 199 115 220 
772 62 63 61 211 
773 180 182 173 220 
774 167 48 158 209 
775 117 135 41 195 
776 149 132 15 207 
777 48 139 91 209 
778 82 200 78 213 
779 52 53 36 196 
780 153 120 123 210 
781 51 20 43 212 
782 127 173 193 220 
783 177 144 186 215 
784 15 147 174 207 
785 108 36 53 196 
786 51 20 212 222 
787 142 123 46 210 
788 136 85 93 218 
789 163 129 161 223 
790 192 200 187 213 
791 113 112 37 201 
792 193 198 190 207 
793 94 159 168 210 
794 132 149 50 224 
795 155 47 105 193 
796 131 43 130 212 
797 81 140 83 206 
798 111 215 112 219 
799 114 63 77 211 
800 65 73 67 217 
801 58 60 61 194 
802 46 123 120 210 
803 196 214 188 216 
804 70 74 72 205 
805 203 214 196 218 
806 82 78 59 213 
807 62 61 60 194 
808 113 114 77 199 
809 183 47 173 193 
810 66 69 109 205 
811 15 133 147 207 
812 44 125 105 198 
813 158 48 121 209 
814 22 160 169 202 
815 143 127 193 220 
816 17 42 119 214 
817 66 109 64 211 
818 91 139 92 208 
819 137 119 140 203 
820 185 127 39 220 
821 67 68 66 217 
822 203 206 188 214 
823 99 65 62 217 
824 118 151 22 202 
825 103 104 155 204 
826 193 201 199 220 
827 181 149 174 207 
828 61 211 63 221 
829 185 173 127 220 
830 44 108 125 214 
831 170 121 40 223 
832 100 101 216 221 
833 183 173 182 193 
834 176 28 184 156 
835 199 211 77 219 
836 141 132 50 224 
837 72 75 110 206 
838 64 62 65 217 
839 177 37 144 215 
840 115 199 113 201 
841 161 197 164 223 
842 175 37 177 215 
843 163 154 129 223 
844 191 203 196 218 
845 204 216 101 221 
846 90 89 71 208 
847 169 162 148 202 
848 188 196 203 214 
849 60 99 62 213 
850 51 212 122 222 
851 172 179 178 224 
852 176 156 201 220 
853 129 197 161 223 
854 113 77 112 219 
855 100 101 57 216 
856 44 198 17 214 
857 123 82 97 200 
858 116 45 86 224 
859 181 149 207 224 
860 165 197 168 210 
861 101 204 102 216 
862 106 204 101 221 
863 105 133 44 198 
864 44 16 17 198 
865 82 87 78 200 
866 51 43 122 212 
867 79 114 124 199 
868 1 22 160 169 
869 102 103 125 204 
870 178 180 175 215 
871 22 130 21 202 
872 165 161 168 197 
873 188 194 216 221 
874 164 166 158 209 
875 115 114 113 199 
876 104 143 127 193 
877 189 200 197 210 
878 72 76 205 219 
879 158 209 121 223 
880 159 46 5 171 
881 26 185 127 39 
882 161 165 164 197 
883 72 110 76 219 
884 174 2 15 149 
885 85 137 203 218 
886 37 175 138 201 
887 52 51 122 222 
888 151 160 22 202 
889 64 65 66 217 
890 166 162 202 210 
891 164 209 158 223 
892 115 124 114 199 
893 127 47 104 193 
894 175 201 37 215 
895 145 38 129 197 
896 188 211 194 221 
897 45 186 144 215 
898 137 140 81 203 
899 6 94 46 159 
900 142 87 82 200 
901 30 144 177 37 
902 180 201 175 215 
903 98 122 131 212 
904 91 208 146 209 
905 175 30 177 37 
906 141 50 150 224 
907 111 37 112 215 
908 85 81 74 203 
909 47 155 104 193 
910 78 107 99 213 
911 3 148 169 162 
912 151 128 14 160 
913 102 53 54 216 
914 106 101 100 221 
915 188 204 199 221 
916 166 167 158 209 
917 170 11 121 158 
918 117 19 35 218 
919 169 148 22 202 
920 40 209 126 223 
921 186 172 116 32 
922 4 171 120 49 
923 75 86 110 206 
924 188 199 211 221 
925 44 133 16 198 
926 127 173 185 26 
927 101 106 104 204 
928 171 4 162 49 
929 70 72 69 205 
930 102 101 103 204 
931 186 178 177 215 
932 144 31 177 186 
933 96 197 129 223 
934 75 83 86 206 
935 171 46 5 120 
936 62 64 63 211 
937 81 83 75 206 
938 203 205 188 206 
939 146 91 90 208 
940 148 162 49 202 
941 109 211 205 219 
942 116 45 186 32 
943 142 82 123 200 
944 20 51 19 222 
945 187 212 195 222 
946 39 143 124 220 
947 47 173 127 25 
948 146 126 40 209 
949 171 162 159 210 
950 121 40 11 170 
951 181 50 149 224 
952 52 36 51 222 
953 85 136 137 218 
954 161 9 129 163 
955 121 48 91 209 
956 44 17 108 214 
957 128 167 14 160 
958 17 119 18 214 
959 188 216 204 221 
960 12 121 158 48 
961 67 66 65 217 
962 101 102 57 216 
963 188 211 199 219 
964 19 51 36 222 
965 1 22 151 160 
966 129 96 84 197 
967 85 137 81 203 
968 156 115 201 220 
969 86 150 116 224 
970 37 138 113 201 
971 121 209 40 223 
972 174 23 134 147 
973 167 12 158 48 
974 109 77 211 219 
975 96 129 154 223 
976 102 54 57 216 
977 76 110 111 219 
978 145 129 84 197 
979 188 206 205 219 
980 175 176 184 201 
981 17 18 108 214 
982 163 9 129 154 
983 25 47 173 183 
984 174 15 2 147 
985 78 60 59 213 
986 3 148 162 49 
987 35 137 136 218 
988 176 201 180 220 
989 101 104 103 204 
990 166 165 162 210 
991 159 6 94 168 
992 2 174 181 149 
993 156 124 115 220 
994 61 63 79 221 
995 31 144 45 186 
996 143 39 127 220 
997 96 40 126 223 
998 91 92 89 208 
999 188 205 211 219 
1000 129 38 8 161 
1001 121 91 146 209 
1002 116 33 172 224 
1003 163 170 10 223 
1004 48 167 13 128 
1005 117 35 136 218 
1006 185 156 176 220 
1007 122 43 131 212 
1008 76 109 69 205 
1009 181 207 179 224 
1010 72 76 69 205 
1011 50 33 116 224 
1012 38 168 8 161 
1013 172 33 181 224 
1014 50 181 33 224 
1015 183 23 134 174 
1016 109 205 76 219 
1017 182 179 174 207 
1018 166 162 160 202 
1019 109 112 77 219 
1020 39 124 156 220 
1021 76 111 112 219 
1022 78 99 60 213 
1023 175 180 176 201 
1024 161 164 163 223 
1025 148 49 130 202 
1026 90 91 89 208 
1027 22 1 148 169 
1028 46 5 6 159 
1029 64 109 77 211 
1030 64 77 63 211 
1031 162 4 3 49 
1032 173 185 176 220 
1033 121 146 40 209 
1034 162 165 159 210 
1035 39 156 185 220 
1036 174 179 181 207 
1037 37 175 30 29 
1038 173 176 180 220 
1039 170 164 158 223 
1040 160 162 169 202 
1041 157 45 111 215 
1042 106 100 79 221 
1043 130 22 148 202 
1044 156 185 176 27 
1045 14 13 167 128 
1046 40 10 170 223 
1047 100 61 79 221 
1048 138 115 113 201 
1049 172 181 179 224 
1050 165 168 159 210 
1051 39 26 185 27 
1052 154 163 10 223 
1053 26 127 173 25 
1054 172 116 32 33 
1055 167 13 12 48 
1056 178 175 177 215 
1057 144 37 111 215 
1058 7 94 168 38 
1059 144 111 45 215 
1060 34 149 181 50 
1061 45 31 186 32 
1062 50 181 34 33 
1063 47 24 134 183 
1064 10 11 40 170 
1065 11 12 121 158 
1066 109 76 112 219 
1067 151 14 1 160 
1068 170 163 164 223 
1069 24 47 25 183 
1070 171 5 4 120 
1071 150 50 116 224 
1072 168 8 7 38 
1073 156 39 185 27 
1074 40 154 10 223 
1075 149 181 2 34 
1076 154 40 96 223 
1077 156 176 28 27 
1078 8 9 129 161 
1079 2 23 174 147 
1080 6 7 94 168 
1081 148 1 3 169 
1082 23 134 24 183 
1083 10 9 163 154 
1084 31 30 144 177 
1085 184 29 138 28 
1086 195 88 218 93 
1087 195 218 88 191 
1088 215 179 224 178 
1089 215 224 179 190 
1090 217 95 191 192 
1091 217 191 95 68 
1092 71 191 95 192 
1093 71 95 191 68 
1094 152 128 189 139 
1095 189 128 152 118 
1096 157 206 219 110 
1097 219 206 157 190 
1098 209 202 210 166 
1099 209 210 202 189 
1100 218 119 137 203 
1101 218 137 119 35 
1102 184 156 201 176 
1103 138 175 29 184 
1104 138 29 175 37 
1105 201 115 184 138 
1106 201 184 115 156 
1107 28 184 115 138 
1108 28 115 184 156 
$EndElements
