$MeshFormat
4.1 0 8
$EndMeshFormat
$Entities
4 4 1 0
1 0 0 0 0 
2 1 0 0 0 
3 1 1 0 0 
4 0 1 0 0 
1 0 0 0 1 0 0 1 1 2 1 -2 
2 1 0 0 1 1 0 1 1 2 2 -3 
3 0 1 0 1 1 0 1 1 2 3 -4 
4 0 0 0 0 1 0 1 1 2 4 -1 
6 0 0 0 1 1 0 1 2 4 1 2 3 4 
$EndEntities
$Nodes
9 40 1 40
0 1 0 1
1
0 0 0
0 2 0 1
2
1 0 0
0 3 0 1
3
1 1 0
0 4 0 1
4
0 1 0
1 1 0 9
5
6
7
8
9
10
11
12
13
0.09999999999981468 0 0
0.1999999999995579 0 0
0.2999999999992664 0 0
0.399999999998975 0 0
0.4999999999986943 0 0
0.5999999999989468 0 0
0.69999999999921 0 0
0.7999999999994734 0 0
0.8999999999997368 0 0
1 2 0 9
14
15
16
17
18
19
20
21
22
1 0.09999999999981468 0
1 0.1999999999995579 0
1 0.2999999999992664 0
1 0.399999999998975 0
1 0.4999999999986943 0
1 0.5999999999989468 0
1 0.69999999999921 0
1 0.7999999999994734 0
1 0.8999999999997368 0
1 3 0 9
23
24
25
26
27
28
29
30
31
0.8999999999995836 1 0
0.7999999999999998 1 0
0.7000000000006934 1 0
0.6000000000013869 1 0
0.5000000000020587 1 0
0.4000000000016644 1 0
0.3000000000012483 1 0
0.2000000000008322 1 0
0.100000000000416 1 0
1 4 0 9
32
33
34
35
36
37
38
39
40
0 0.8999999999995836 0
0 0.7999999999999998 0
0 0.7000000000006934 0
0 0.6000000000013869 0
0 0.5000000000020587 0
0 0.4000000000016644 0
0 0.3000000000012483 0
0 0.2000000000008322 0
0 0.100000000000416 0
2 6 0 0
$EndNodes
$Elements
5 78 1 78
1 1 1 10
1 1 5 
2 5 6 
3 6 7 
4 7 8 
5 8 9 
6 9 10 
7 10 11 
8 11 12 
9 12 13 
10 13 2 
1 2 1 10
11 2 14 
12 14 15 
13 15 16 
14 16 17 
15 17 18 
16 18 19 
17 19 20 
18 20 21 
19 21 22 
20 22 3 
1 3 1 10
21 3 23 
22 23 24 
23 24 25 
24 25 26 
25 26 27 
26 27 28 
27 28 29 
28 29 30 
29 30 31 
30 31 4 
1 4 1 10
31 4 32 
32 32 33 
33 33 34 
34 34 35 
35 35 36 
36 36 37 
37 37 38 
38 38 39 
39 39 40 
40 40 1 
2 6 2 38
41 5 40 1 
42 13 15 12 
43 7 39 6 
44 14 13 2 
45 14 15 13 
46 8 38 7 
47 39 40 6 
48 40 5 6 
49 9 37 8 
50 38 39 7 
51 10 18 9 
52 37 38 8 
53 11 17 10 
54 36 37 9 
55 15 16 12 
56 35 36 28 
57 23 22 3 
58 34 35 29 
59 16 11 12 
60 33 34 30 
61 16 17 11 
62 32 33 31 
63 17 18 10 
64 31 33 30 
65 18 36 9 
66 30 34 29 
67 19 27 18 
68 29 35 28 
69 20 26 19 
70 28 36 27 
71 21 25 20 
72 27 36 18 
73 22 24 21 
74 26 27 19 
75 23 24 22 
76 25 26 20 
77 32 31 4 
78 24 25 21 
$EndElements
