$MeshFormat
4.1 0 8
$EndMeshFormat
$Entities
8 8 2 0
1 0 0 0 0 
2 1 0 0 0 
3 1 1 0 0 
4 0 1 0 0 
5 2 0 0 0 
6 3 0 0 0 
7 3 1 0 0 
8 2 1 0 0 
1 -9.999999994736442e-08 -1e-07 -1e-07 1.0000001 1e-07 1e-07 0 2 1 -2 
2 0.9999999000000001 -9.999999994736442e-08 -1e-07 1.0000001 1.0000001 1e-07 0 2 2 -3 
3 -9.999999994736442e-08 0.9999999000000001 -1e-07 1.0000001 1.0000001 1e-07 0 2 3 -4 
4 -1e-07 -9.999999994736442e-08 -1e-07 1e-07 1.0000001 1e-07 0 2 4 -1 
5 1.9999999 -1e-07 -1e-07 3.0000001 1e-07 1e-07 0 2 5 -6 
6 2.9999999 -9.999999994736442e-08 -1e-07 3.0000001 1.0000001 1e-07 0 2 6 -7 
7 1.9999999 0.9999999000000001 -1e-07 3.0000001 1.0000001 1e-07 0 2 7 -8 
8 1.9999999 -9.999999994736442e-08 -1e-07 2.0000001 1.0000001 1e-07 0 2 8 -5 
1 -9.999999994736442e-08 -9.999999994736442e-08 -1e-07 1.0000001 1.0000001 1e-07 0 4 1 2 3 4 
2 1.9999999 -9.999999994736442e-08 -1e-07 3.0000001 1.0000001 1e-07 0 4 5 6 7 8 
$EndEntities
$Nodes
18 46 1 46
0 1 0 1
1
0 0 0
0 2 0 1
2
1 0 0
0 3 0 1
3
1 1 0
0 4 0 1
4
0 1 0
0 5 0 1
5
2 0 0
0 6 0 1
6
3 0 0
0 7 0 1
7
3 1 0
0 8 0 1
8
2 1 0
1 1 0 3
9
10
11
0.2500000000000002 0 0
0.500000000000001 0 0
0.7500000000000011 0 0
1 2 0 3
12
13
14
1 0.2500000000000002 0
1 0.500000000000001 0
1 0.7500000000000011 0
1 3 0 3
15
16
17
0.7499999999999998 1 0
0.499999999999999 1 0
0.2499999999999989 1 0
1 4 0 3
18
19
20
0 0.7499999999999998 0
0 0.499999999999999 0
0 0.2499999999999989 0
1 5 0 3
21
22
23
2.25 0 0
2.500000000000001 0 0
2.750000000000001 0 0
1 6 0 3
24
25
26
3 0.2500000000000002 0
3 0.500000000000001 0
3 0.7500000000000011 0
1 7 0 3
27
28
29
2.75 1 0
2.499999999999999 1 0
2.249999999999999 1 0
1 8 0 3
30
31
32
2 0.7499999999999998 0
2 0.499999999999999 0
2 0.2499999999999989 0
2 1 0 14
33
34
35
36
37
38
39
40
41
42
43
44
45
46
0.61460037333665 0.7455130020893455 0
0.3640932128832327 0.2132312167772874 0
0.2110423218195953 0.6246662583056087 0
0.8080509614599587 0.3756310460435204 0
0.1979210047255864 0.3784328232099311 0
0.4308090314148669 0.4943497273003387 0
0.3712961061749194 0.7832009930524035 0
0.6139924015721206 0.2521184975333662 0
0.8112741566738988 0.6144560228268077 0
0.6557453848914989 0.4964136591586757 0
0.8351749060021096 0.8219938049832309 0
0.1830127018922195 0.8169872981077801 0
0.8169872981077805 0.1830127018922199 0
0.1830127018922199 0.1830127018922195 0
2 2 0 0
$EndNodes
$Elements
16 75 1 82
0 1 15 1
1 1 
0 2 15 1
2 2 
0 3 15 1
3 3 
0 4 15 1
4 4 
0 5 15 1
5 5 
0 6 15 1
6 6 
0 7 15 1
7 7 
0 8 15 1
8 8 
1 2 1 1
16 14 3 
1 3 1 4
17 3 15 
18 15 16 
19 16 17 
20 17 4 
1 4 1 4
21 4 18 
22 18 19 
23 19 20 
24 20 1 
1 5 1 4
25 5 21 
26 21 22 
27 22 23 
28 23 6 
1 6 1 4
29 6 24 
30 24 25 
31 25 26 
32 26 7 
1 7 1 4
33 7 27 
34 27 28 
35 28 29 
36 29 8 
1 8 1 4
37 8 30 
38 30 31 
39 31 32 
40 32 5 
2 1 2 42
41 33 39 38 
42 34 40 38 
43 38 42 33 
44 40 42 38 
45 38 39 35 
46 34 38 37 
47 36 42 40 
48 10 34 9 
49 13 36 12 
50 16 33 15 
51 19 35 18 
52 33 42 41 
53 20 37 19 
54 11 40 10 
55 17 39 16 
56 14 41 13 
57 37 38 35 
58 16 39 33 
59 19 37 35 
60 10 40 34 
61 13 41 36 
62 9 46 1 
63 1 46 20 
64 2 45 11 
65 15 43 3 
66 18 44 4 
67 12 45 2 
68 3 43 14 
69 4 44 17 
70 14 43 41 
71 17 44 39 
72 20 46 37 
73 11 45 40 
74 34 46 9 
75 36 45 12 
76 33 43 15 
77 35 44 18 
78 41 43 33 
79 40 45 36 
80 37 46 34 
81 39 44 35 
82 41 42 36 
$EndElements
